<?xml version="1.0" standalone="no"?>
<!DOCTYPE svg PUBLIC "-//W3C//DTD SVG 20010904//EN"
 "http://www.w3.org/TR/2001/REC-SVG-20010904/DTD/svg10.dtd">
<svg version="1.0" xmlns="http://www.w3.org/2000/svg"
 width="500.000000pt" height="650.000000pt" viewBox="0 0 500.000000 650.000000"
 preserveAspectRatio="xMidYMid meet">

<g transform="translate(0.000000,650.000000) scale(0.100000,-0.100000)"
fill="#000000" stroke="none">
<path d="M63 6481 c4 -17 1 -25 -13 -28 -14 -4 -17 -12 -13 -34 2 -16 0 -29
-6 -29 -7 0 -7 -8 -1 -26 9 -22 7 -27 -10 -31 -22 -6 -26 -18 -10 -28 6 -3 10
-11 10 -16 0 -6 -4 -7 -10 -4 -6 4 -10 -40 -10 -124 0 -81 4 -131 10 -131 6 0
10 -5 10 -11 0 -5 -5 -7 -10 -4 -7 5 -10 -62 -10 -206 1 -186 4 -215 18 -226
16 -12 16 -13 -1 -7 -14 5 -17 0 -16 -27 1 -19 3 -26 6 -16 2 9 14 17 26 17
16 0 18 -3 9 -12 -19 -19 -14 -28 12 -26 16 2 24 8 23 19 -1 10 -5 15 -11 12
-5 -4 -7 1 -3 11 4 9 3 14 -2 11 -5 -3 -12 -2 -15 3 -11 17 30 9 51 -11 26
-23 30 -47 8 -47 -9 0 -12 -6 -9 -15 7 -18 -7 -20 -24 -3 -9 9 -11 3 -9 -29 1
-31 6 -39 17 -36 9 3 8 -1 -4 -11 -13 -11 -23 -13 -30 -6 -5 5 -18 10 -28 10
-17 0 -18 -116 -18 -2710 l0 -2710 2500 0 2500 0 0 3250 0 3250 -277 -2 c-153
-1 -261 -3 -241 -5 23 -3 35 -9 32 -16 -2 -7 12 -21 32 -33 l37 -21 -39 -23
c-21 -13 -41 -25 -43 -27 -2 -1 8 -13 24 -25 26 -20 26 -22 9 -35 -17 -12 -17
-14 3 -35 11 -13 19 -28 16 -35 -4 -10 69 -77 137 -126 25 -17 24 -17 -40 -11
-36 4 -85 13 -110 20 -59 18 -74 18 -66 -1 3 -10 -1 -15 -12 -15 -19 0 -64 29
-47 30 6 0 16 -5 23 -12 9 -9 12 -8 12 4 0 19 -24 40 -35 30 -5 -4 -6 -2 -2 3
3 6 -9 25 -28 43 l-33 33 2 -25 c0 -14 7 -28 14 -31 7 -3 10 -9 7 -15 -3 -5
-1 -10 5 -10 6 0 8 -4 5 -10 -13 -20 -24 -9 -41 43 -9 28 -23 61 -30 71 -13
19 -13 19 -19 0 -4 -10 -10 -28 -14 -38 -10 -27 9 -108 25 -102 13 5 34 -34
34 -64 0 -16 -4 -17 -31 -10 -17 5 -42 16 -55 25 -15 10 -25 11 -29 4 -5 -7
-15 -5 -31 5 -33 22 -34 21 -34 -26 0 -71 -13 -79 -58 -35 -39 38 -52 45 -52
27 0 -5 7 -10 15 -10 8 0 15 -3 15 -6 0 -15 -45 -110 -56 -120 -11 -8 -11 -24
-4 -70 20 -121 5 -206 -21 -123 -10 32 -20 45 -38 49 -13 3 -28 14 -32 25 -8
19 -8 19 -15 -2 -3 -13 -10 -23 -13 -23 -12 0 -51 45 -51 59 0 11 -3 11 -17 0
-15 -12 -16 -12 -11 8 3 12 0 27 -7 33 -7 6 -18 37 -24 69 -6 33 -17 61 -25
64 -12 5 -13 63 -1 115 4 15 -5 42 -26 78 -33 59 -35 86 -2 34 19 -30 21 -30
26 -11 3 13 0 21 -8 21 -7 0 -15 14 -19 31 -3 17 -9 28 -14 26 -4 -3 -12 5
-18 18 -9 19 -9 22 2 18 8 -3 14 1 14 10 0 14 -58 52 -67 44 -1 -2 7 -24 20
-49 17 -34 23 -61 22 -112 -1 -36 3 -66 7 -66 5 0 6 -5 3 -10 -4 -6 -10 -8
-15 -5 -5 3 -11 1 -15 -5 -3 -5 -2 -10 2 -10 5 0 13 -8 20 -18 8 -14 8 -33 -3
-78 -12 -52 -12 -64 3 -101 8 -24 19 -40 24 -37 5 3 9 -10 9 -28 0 -32 0 -32
-15 -11 -28 40 -62 163 -64 231 -1 37 5 101 13 141 15 70 15 75 -6 115 -11 22
-28 52 -38 66 -10 14 -21 36 -24 50 -5 17 1 11 18 -16 17 -28 35 -43 53 -47
36 -7 42 0 16 18 -11 8 -23 27 -26 43 -8 38 -23 42 -179 42 l-128 0 6 -44 c6
-41 5 -45 -17 -48 -19 -2 -25 -12 -34 -53 -8 -38 -15 -49 -28 -47 -19 3 -74
-53 -83 -85 -7 -27 4 -65 17 -58 5 4 9 15 9 27 0 16 3 18 14 9 11 -9 17 -6 31
15 9 14 19 23 23 20 3 -3 -4 -16 -16 -29 -18 -20 -20 -27 -11 -69 6 -27 14
-48 18 -48 3 0 12 14 19 32 9 25 9 34 -1 40 -6 4 -7 8 -2 8 6 0 3 4 -5 10 -12
7 -12 12 4 29 10 11 15 24 12 29 -3 6 2 8 12 5 11 -2 26 3 35 11 8 9 22 16 30
16 11 0 12 -7 3 -42 -13 -51 -24 -70 -36 -63 -4 3 -16 -7 -25 -22 -16 -23 -16
-25 -1 -20 13 5 16 -1 16 -33 0 -29 4 -38 14 -34 10 4 12 -2 8 -22 -3 -19 -1
-25 7 -20 6 4 11 1 11 -9 0 -9 -20 -36 -45 -62 -29 -29 -45 -54 -46 -72 0 -14
-2 -35 -4 -46 -6 -32 32 -63 93 -76 74 -15 107 -30 90 -40 -10 -6 -8 -12 7
-23 15 -12 17 -18 8 -24 -9 -6 -4 -18 18 -45 28 -34 29 -37 10 -37 -11 0 -31
4 -46 10 -20 8 -27 7 -31 -5 -8 -20 -31 -19 -43 3 -6 9 -11 12 -11 6 0 -6 11
-21 24 -33 14 -13 30 -37 35 -53 9 -27 9 -29 -9 -23 -17 6 -20 2 -20 -30 0
-22 -4 -34 -10 -30 -6 4 -8 11 -5 16 4 5 4 9 2 9 -2 0 -16 -18 -31 -40 -14
-22 -31 -40 -37 -40 -6 0 -3 7 5 15 10 11 14 27 10 48 -3 18 -5 41 -6 52 0 11
-4 43 -9 70 -4 28 -11 65 -14 83 -13 77 -17 98 -27 112 -6 10 -7 -3 -3 -39 5
-45 4 -53 -9 -48 -9 4 -17 -1 -21 -14 -6 -17 -9 -18 -22 -7 -13 11 -18 9 -31
-10 -8 -12 -20 -22 -26 -22 -8 0 -8 3 0 8 21 14 98 166 86 170 -8 2 -9 9 -2
22 7 12 7 28 0 46 -7 18 -7 30 1 40 6 7 9 21 6 31 -4 14 -5 13 -6 -4 -1 -28
-9 -29 -27 -5 -12 16 -14 16 -29 -3 -9 -11 -13 -14 -9 -6 5 11 2 13 -15 8 -18
-4 -21 -2 -19 16 2 17 -3 23 -26 27 -26 5 -28 6 -12 19 12 10 14 17 5 27 -6 8
-15 12 -19 9 -5 -3 -12 0 -16 6 -5 9 0 10 14 7 12 -4 25 -2 28 3 3 5 -1 9 -9
9 -8 0 -17 12 -19 28 -3 15 -7 34 -10 42 -3 8 -3 12 -1 8 10 -18 31 -6 29 16
0 13 -5 22 -10 19 -4 -3 -12 1 -17 8 -14 22 -10 33 6 19 14 -12 15 -11 15 17
0 4 -10 8 -21 8 -12 0 -28 11 -37 25 -11 18 -12 21 -2 13 23 -21 35 -15 15 7
-10 11 -13 20 -8 20 17 0 34 -26 27 -44 -3 -9 -2 -16 4 -16 15 0 21 23 10 43
-5 10 -7 21 -4 24 6 6 41 -67 38 -79 -1 -4 6 -4 15 -1 11 4 13 8 5 11 -7 2
-12 15 -12 29 0 25 1 25 19 9 19 -18 20 -17 34 30 14 44 13 50 -1 62 -9 7 -11
12 -4 12 10 0 42 49 42 66 0 3 -10 4 -21 1 -17 -5 -19 -3 -10 6 7 7 17 12 23
12 6 0 13 6 16 13 2 7 -2 13 -9 11 -29 -3 -39 2 -39 21 0 19 -7 20 -185 20
-158 0 -185 -2 -185 -15 0 -8 -5 -15 -12 -15 -6 0 -3 -9 7 -21 19 -20 19 -20
-7 -10 -30 11 -55 -9 -50 -40 2 -9 -2 -20 -8 -24 -16 -10 -12 -25 5 -19 13 6
20 -6 16 -28 -2 -12 13 -9 29 5 12 10 12 9 1 -6 -8 -9 -11 -20 -8 -24 9 -9
-20 -60 -38 -67 -9 -3 -13 -11 -10 -17 4 -6 -3 -20 -15 -31 -17 -16 -24 -18
-30 -8 -4 7 -19 11 -32 8 -28 -5 -29 -1 -32 79 -1 43 -3 49 -15 40 -12 -10
-13 -7 -7 18 13 62 14 81 5 116 -13 50 -32 65 -54 43 -12 -12 -15 -25 -10 -43
4 -14 8 -39 9 -56 5 -54 6 -56 17 -49 8 4 8 1 1 -12 -5 -11 -17 -36 -26 -56
-11 -23 -30 -43 -52 -53 -34 -16 -42 -37 -25 -63 7 -12 14 -11 39 2 54 28 151
14 158 -22 1 -7 0 -8 -3 -2 -9 18 -50 11 -56 -10 -3 -11 -12 -20 -21 -20 -33
0 -127 -42 -137 -62 -11 -20 -9 -20 52 -16 67 5 109 -6 109 -29 0 -8 12 -13
31 -13 26 0 29 -3 24 -20 -5 -17 -2 -20 20 -20 14 0 37 7 51 16 13 9 27 14 30
11 11 -11 65 47 61 65 -3 10 -1 18 4 18 18 0 9 -49 -11 -60 -25 -13 -27 -35
-3 -25 15 5 14 3 -2 -13 -11 -10 -25 -17 -31 -15 -6 2 -17 -3 -24 -12 -11 -13
-8 -15 16 -16 25 0 26 -2 9 -9 -11 -4 -32 -5 -47 -3 -16 3 -28 1 -28 -5 0 -5
-13 -15 -30 -22 -34 -14 -37 -22 -15 -40 12 -10 15 -10 15 0 0 10 3 10 15 0 8
-7 15 -18 15 -24 0 -6 10 -17 23 -25 20 -13 21 -13 9 1 -18 22 -5 73 14 57 8
-6 14 -18 14 -26 0 -10 6 -12 20 -8 17 5 20 2 20 -22 0 -22 2 -25 10 -13 9 13
12 13 21 -3 6 -9 15 -15 20 -11 6 3 5 12 -3 22 -12 14 -10 14 10 3 22 -12 23
-11 17 11 -4 12 -10 25 -14 28 -3 3 -12 15 -19 28 -12 22 -12 23 8 12 11 -6
20 -17 20 -25 0 -9 9 -15 23 -15 16 0 19 -3 8 -9 -8 -5 -11 -16 -8 -25 3 -8
-1 -22 -9 -31 -12 -12 -13 -15 -2 -15 8 0 19 5 26 12 9 9 12 8 12 -4 0 -9 11
-29 23 -44 18 -21 28 -25 43 -19 10 4 22 8 26 7 4 -1 15 11 24 27 17 28 33 35
159 67 11 3 4 -5 -15 -17 -19 -13 -42 -22 -52 -20 -9 1 -20 -4 -24 -10 -5 -9
-2 -10 9 -6 25 9 33 -14 11 -31 -14 -11 -15 -13 -3 -9 13 4 18 -2 21 -24 4
-23 1 -29 -9 -24 -8 3 -19 5 -24 5 -5 0 -9 6 -9 14 0 32 -32 25 -70 -16 -31
-34 -41 -40 -53 -30 -7 6 -17 9 -20 6 -3 -3 -11 -3 -18 1 -8 6 -4 12 12 21 33
18 0 19 -35 0 l-26 -13 30 -13 c16 -7 30 -17 30 -22 0 -6 -10 -4 -22 4 -23 15
-53 13 -43 -2 3 -4 -4 -6 -15 -3 -15 4 -19 2 -14 -10 4 -12 1 -14 -15 -10 -11
3 -26 11 -32 19 -15 18 -59 18 -59 0 0 -7 -9 -25 -20 -39 l-20 -25 35 11 c25
7 45 7 74 -2 47 -14 104 -58 94 -73 -3 -7 -1 -8 6 -4 19 12 44 -62 37 -110 -7
-56 -22 -84 -59 -114 -28 -22 -41 -25 -113 -25 l-81 0 -1 -40 c-2 -50 -10 -73
-36 -110 l-21 -30 27 18 c41 26 89 22 136 -13 55 -40 76 -73 68 -107 -5 -22
-4 -25 4 -13 23 30 3 -98 -20 -130 -55 -77 -168 -86 -244 -21 -18 15 -18 15
-8 -5 6 -11 18 -26 26 -34 9 -7 16 -19 16 -26 0 -17 22 -18 37 -3 14 14 10
-100 -5 -127 -17 -31 -65 -71 -101 -83 -43 -14 -72 -14 -69 0 2 6 -3 14 -11
17 -8 3 -11 0 -7 -7 12 -18 -9 -13 -38 10 -15 12 -25 27 -22 35 3 7 0 16 -6
20 -6 4 -8 3 -4 -4 3 -5 1 -12 -5 -14 -8 -3 -7 -8 2 -18 8 -8 14 -22 14 -30
-1 -8 4 -27 11 -41 10 -21 10 -26 0 -26 -7 0 -13 7 -12 16 1 9 -6 15 -16 15
-21 -2 -22 0 -5 27 10 17 9 22 -6 30 -26 15 -57 83 -57 126 1 52 31 115 71
145 49 37 94 58 124 58 23 0 25 3 25 50 0 45 4 55 35 86 19 19 35 36 35 39 0
2 -21 -8 -46 -22 -36 -20 -55 -25 -94 -21 -48 5 -48 5 -39 -20 7 -17 6 -29 -1
-36 -8 -8 -10 -5 -5 9 3 11 -2 4 -11 -15 -9 -19 -20 -42 -24 -51 -5 -10 -4
-21 3 -28 19 -19 -30 -61 -72 -60 -24 0 -30 3 -19 7 11 5 14 12 9 20 -6 10
-10 10 -21 -3 -14 -17 -46 -20 -55 -5 -3 6 -12 10 -18 10 -7 0 -4 -7 6 -14 12
-10 15 -16 7 -21 -6 -4 -9 -14 -6 -22 3 -8 2 -12 -3 -9 -15 10 -20 -65 -7
-105 16 -46 12 -50 -9 -9 -19 37 -19 71 0 116 14 35 14 35 -19 65 -38 32 -64
97 -60 145 4 63 31 98 99 135 36 19 65 37 65 42 0 4 8 7 18 7 13 0 14 -2 3 -9
-10 -6 -10 -10 -1 -16 15 -9 17 -6 24 36 7 47 16 70 34 92 20 23 13 28 -24 18
-25 -6 -30 -13 -35 -51 -7 -49 -32 -74 -117 -116 -43 -22 -62 -26 -113 -22
-33 2 -54 1 -46 -3 17 -10 10 -68 -9 -76 -30 -11 -62 7 -83 49 -12 24 -20 35
-17 26 3 -10 1 -20 -3 -23 -13 -7 -22 52 -11 77 8 22 9 21 9 -6 1 -16 4 -26 8
-22 4 3 7 46 8 94 2 57 8 98 18 118 13 25 13 31 2 31 -8 0 -11 -7 -7 -16 11
-31 -40 22 -54 56 -55 129 42 262 181 251 l54 -5 -22 38 c-14 24 -31 39 -48
43 -37 7 -93 58 -110 98 -7 18 -16 35 -21 39 -4 3 -12 27 -17 53 -7 40 -6 46
6 42 9 -4 17 1 20 13 4 16 67 52 113 64 11 3 15 19 16 63 0 54 0 56 -9 26 -14
-47 -84 -89 -142 -86 -11 1 -32 2 -46 3 -15 0 -35 9 -46 19 -10 9 -14 14 -8
10 23 -15 96 -27 92 -15 -2 6 -14 14 -28 17 -14 4 -23 13 -23 22 1 9 -4 14
-11 12 -13 -5 -44 36 -50 66 -2 10 -9 29 -15 41 -8 14 -8 19 -1 15 7 -5 11 1
11 14 0 12 -4 18 -10 15 -5 -3 -10 0 -10 8 0 20 65 76 109 94 21 9 51 13 76
10 34 -5 38 -4 22 7 -12 10 -30 11 -60 5 -24 -4 -47 -8 -52 -9 -20 -4 -53 12
-49 24 2 6 -6 16 -18 21 -13 6 -33 31 -46 58 l-22 47 -150 0 -150 0 0 -79 c0
-43 6 -96 14 -117 7 -22 23 -88 35 -149 12 -60 26 -126 31 -145 5 -20 12 -68
16 -108 6 -58 3 -80 -11 -111 -25 -55 -18 -75 27 -79 22 -2 47 3 63 14 14 9
28 14 32 10 3 -3 1 -6 -5 -6 -7 0 -12 -7 -12 -15 0 -26 -45 -42 -127 -47 -27
-1 -38 -10 -68 -55 -41 -62 -56 -71 -23 -14 12 22 20 43 16 46 -3 3 -37 7 -75
9 l-68 2 -6 50 c-4 36 -7 41 -9 19 -1 -16 -2 -35 -1 -41 1 -6 -6 -17 -14 -24
-10 -9 -15 -9 -15 -1 0 6 -15 11 -34 11 -22 0 -45 9 -62 24 l-28 23 18 47 c17
44 20 46 56 46 21 0 45 3 54 6 12 4 16 0 16 -15 0 -12 5 -21 10 -21 10 0 13
12 11 40 -1 9 12 23 27 32 38 23 101 115 113 164 23 99 3 219 -69 411 -21 58
-31 73 -47 73 -19 0 -17 -12 38 -172 55 -164 58 -177 53 -247 -5 -83 -43 -170
-87 -203 -28 -21 -143 -36 -153 -20 -3 6 6 34 20 62 l26 52 -22 112 c-13 61
-35 158 -51 216 -25 94 -29 123 -14 108 18 -17 97 -355 110 -467 6 -51 5 -53
-14 -48 -12 3 -19 1 -15 -4 3 -5 -2 -9 -10 -9 -9 0 -16 -4 -16 -10 0 -13 3
-13 45 7 28 14 34 21 29 37 -4 12 -6 39 -5 62 3 88 -110 524 -137 524 -8 0
-12 -6 -8 -15 3 -8 1 -15 -4 -15 -6 0 -10 7 -10 15 0 11 -11 15 -39 15 l-38 0
13 -50 c18 -68 34 -190 34 -253 0 -35 -10 -79 -31 -132 -36 -93 -51 -100 -113
-49 -20 16 -51 41 -69 56 -30 24 -35 38 -65 165 -18 76 -38 165 -46 198 l-13
60 -305 3 c-257 2 -307 0 -317 -12 -14 -17 -44 -10 -34 8 4 6 -1 5 -11 -3 -15
-13 -19 -13 -28 0 -7 11 -8 8 -5 -10z m108 -54 c-8 -8 -11 -5 -11 12 0 12 -4
20 -9 17 -5 -4 -7 4 -4 15 6 21 7 20 20 -6 11 -20 12 -30 4 -38z m139 53 c8
-5 11 -12 7 -16 -4 -4 -15 0 -24 9 -18 18 -8 23 17 7z m3260 -32 c0 -12 9 -22
21 -25 14 -4 19 -12 16 -24 -3 -11 -1 -17 4 -14 9 6 43 -54 35 -63 -3 -3 -1
-11 5 -18 8 -9 6 -36 -6 -94 -9 -44 -17 -95 -17 -113 0 -17 -6 -42 -13 -53
-15 -24 -2 -46 21 -37 18 7 17 -7 -1 -31 -15 -19 -15 -19 -15 2 0 13 -6 22
-14 22 -17 0 -48 39 -40 52 3 4 0 8 -6 8 -7 0 -10 -7 -7 -15 4 -8 2 -17 -3
-20 -11 -7 -13 7 -11 70 2 46 11 150 17 180 11 59 18 83 30 108 8 15 10 27 5
27 -5 0 -12 -11 -15 -25 -4 -14 -11 -25 -16 -25 -6 0 -10 -10 -10 -22 0 -13
-7 -32 -15 -42 -8 -10 -12 -23 -9 -27 3 -5 0 -9 -6 -9 -7 0 -10 17 -9 43 2 24
-1 49 -6 57 -5 9 -4 11 3 6 12 -7 15 3 13 34 0 10 1 11 5 3 13 -30 26 -10 22
36 -2 39 0 47 10 39 6 -6 12 -19 12 -30z m-3290 6 c0 -14 -3 -15 -17 -3 -10 7
-20 15 -22 16 -2 2 5 3 17 3 14 0 22 -6 22 -16z m-20 -28 c0 -3 -4 -8 -10 -11
-5 -3 -10 -1 -10 4 0 6 5 11 10 11 6 0 10 -2 10 -4z m138 -31 c-3 -3 -9 2 -12
12 -6 14 -5 15 5 6 7 -7 10 -15 7 -18z m-214 -1 c9 -24 8 -26 -14 -14 -11 6
-18 15 -15 21 9 14 22 11 29 -7z m191 -4 c3 -5 1 -10 -4 -10 -6 0 -11 5 -11
10 0 6 2 10 4 10 3 0 8 -4 11 -10z m2831 -16 c-4 -9 -9 -15 -11 -12 -3 3 -3
13 1 22 4 9 9 15 11 12 3 -3 3 -13 -1 -22z m-2796 -46 c0 -6 -7 -5 -15 2 -8 7
-15 17 -15 22 0 6 7 5 15 -2 8 -7 15 -17 15 -22z m2793 -13 c-3 -9 -8 -14 -10
-11 -3 3 -2 9 2 15 9 16 15 13 8 -4z m-3095 -20 c1 -18 -3 -25 -16 -24 -10 0
-12 3 -4 6 17 7 15 23 -4 23 -8 0 -12 5 -9 10 12 19 31 10 33 -15z m2902 5 c0
-5 -4 -10 -10 -10 -5 0 -10 5 -10 10 0 6 5 10 10 10 6 0 10 -4 10 -10z m402
-105 c-12 -30 -27 -52 -41 -57 -17 -6 -21 -5 -18 5 2 6 9 11 16 10 6 -2 13 9
17 25 3 15 10 37 15 50 5 13 9 33 9 46 0 37 15 41 18 4 2 -19 -6 -56 -16 -83z
m114 29 c-3 -9 -6 -27 -6 -40 0 -15 -6 -24 -15 -24 -8 0 -15 -5 -15 -11 0 -6
9 -8 21 -4 15 5 19 4 15 -4 -4 -6 -13 -11 -21 -11 -7 0 -15 -3 -18 -7 -2 -5
-3 -3 -1 3 1 6 -2 16 -8 22 -19 19 18 91 46 92 4 0 5 -7 2 -16z m194 -44 c0
-5 -4 -10 -10 -10 -5 0 -10 5 -10 10 0 6 5 10 10 10 6 0 10 -4 10 -10z m14
-45 c-4 -8 -11 -15 -16 -15 -6 0 -5 6 2 15 7 8 14 15 16 15 2 0 1 -7 -2 -15z
m663 -19 c-3 -8 -1 -17 6 -19 7 -2 9 -7 6 -11 -9 -10 -41 23 -34 35 10 15 28
10 22 -5z m-1734 -16 c-3 -12 -8 -19 -11 -16 -5 6 5 36 12 36 2 0 2 -9 -1 -20z
m102 -10 c3 -5 1 -10 -4 -10 -6 0 -11 5 -11 10 0 6 2 10 4 10 3 0 8 -4 11 -10z
m165 0 c0 -5 -5 -10 -11 -10 -5 0 -7 5 -4 10 3 6 8 10 11 10 2 0 4 -4 4 -10z
m600 6 c0 -2 -3 -11 -6 -20 -9 -23 -23 -20 -21 4 1 11 7 20 14 20 7 0 13 -2
13 -4z m-695 -16 c3 -5 1 -10 -4 -10 -6 0 -11 5 -11 10 0 6 2 10 4 10 3 0 8
-4 11 -10z m568 -5 c-3 -9 -8 -14 -10 -11 -3 3 -2 9 2 15 9 16 15 13 8 -4z
m-676 -9 c-3 -7 0 -19 6 -25 8 -8 8 -11 -1 -11 -7 0 -11 -3 -11 -7 4 -23 -3
-33 -21 -33 -20 0 -20 0 0 20 16 16 18 25 10 45 -8 20 -6 25 6 25 10 0 14 -6
11 -14z m-81 -21 c0 -14 -6 -25 -12 -25 -20 0 -7 48 12 50 1 0 1 -11 0 -25z
m314 4 c0 -6 -4 -7 -10 -4 -5 3 -10 11 -10 16 0 6 5 7 10 4 6 -3 10 -11 10
-16z m-2856 -39 c10 -13 9 -13 -6 -1 -10 7 -17 23 -17 35 1 20 2 20 6 1 3 -11
10 -27 17 -35z m2590 42 c2 -4 -4 -9 -15 -9 -10 -1 -19 2 -19 8 0 11 27 12 34
1z m-14 -32 c0 -5 -4 -10 -10 -10 -5 0 -10 5 -10 10 0 6 5 10 10 10 6 0 10 -4
10 -10z m117 4 c-3 -3 -12 -4 -19 -1 -8 3 -5 6 6 6 11 1 17 -2 13 -5z m205
-16 c-9 -9 -15 -9 -24 1 -11 10 -10 11 5 6 10 -5 17 -2 17 6 0 7 3 9 7 6 4 -4
1 -13 -5 -19z m38 -8 c0 -5 -8 -10 -17 -10 -15 0 -16 2 -3 10 19 12 20 12 20
0z m-2055 -42 c16 -24 22 -38 14 -31 -15 12 -53 73 -46 73 2 0 17 -19 32 -42z
m1785 38 c0 -2 -7 -7 -16 -10 -8 -3 -12 -2 -9 4 6 10 25 14 25 6z m-2696 -47
c-17 -33 -38 -59 -48 -59 -3 0 8 23 25 51 34 55 51 61 23 8z m156 31 c0 -5 -2
-10 -4 -10 -3 0 -8 5 -11 10 -3 6 -1 10 4 10 6 0 11 -4 11 -10z m3351 -17 c-8
-15 -10 -15 -11 -2 0 17 10 32 18 25 2 -3 -1 -13 -7 -23z m-2691 7 c0 -5 -4
-10 -9 -10 -6 0 -13 5 -16 10 -3 6 1 10 9 10 9 0 16 -4 16 -10z m2130 -30 c7
-14 7 -20 0 -20 -5 0 -10 7 -10 15 0 17 -25 20 -35 5 -3 -5 -14 -10 -23 -10
-12 1 -10 5 8 15 34 20 47 18 60 -5z m124 -15 c3 -8 1 -15 -4 -15 -6 0 -10 7
-10 15 0 8 2 15 4 15 2 0 6 -7 10 -15z m486 4 c0 -4 -7 -9 -15 -13 -9 -3 -15
0 -15 8 0 7 7 13 15 13 8 0 15 -4 15 -8z m-520 -19 c6 -11 7 -20 2 -20 -6 0
-12 9 -15 20 -3 11 -3 20 -1 20 2 0 8 -9 14 -20z m945 -57 c-9 -15 -13 -19
-10 -8 4 11 9 34 13 50 5 25 7 27 10 8 2 -12 -4 -34 -13 -50z m-3623 46 c25
-6 55 -20 65 -32 10 -12 11 -17 3 -10 -8 6 -38 19 -67 28 -39 13 -56 14 -72 5
-24 -13 -28 -30 -6 -30 8 0 15 -4 15 -10 0 -5 -8 -7 -17 -3 -17 5 -17 5 0 -13
18 -19 18 -19 35 2 22 27 86 26 105 -1 8 -10 19 -15 25 -11 7 4 12 2 12 -3 0
-14 -33 -14 -46 -1 -21 21 -68 18 -93 -6 l-25 -23 30 2 c27 2 29 0 27 -33 -2
-51 -2 -52 -13 -45 -5 3 -10 1 -10 -4 0 -15 -27 -14 -34 2 -3 8 -8 7 -16 -6
-6 -9 -15 -15 -20 -12 -5 3 -11 1 -15 -5 -9 -15 -25 -12 -25 4 0 12 -5 12 -30
3 -21 -8 -28 -16 -25 -28 4 -13 -3 -18 -30 -23 -35 -7 -44 -19 -24 -32 7 -4 7
-10 1 -16 -15 -15 -32 0 -32 26 0 13 -9 35 -21 50 l-20 26 20 0 c12 0 21 5 21
11 0 6 7 8 16 5 14 -5 15 -4 5 8 -8 10 -9 21 -3 33 5 10 7 24 5 31 -3 6 6 16
19 21 12 6 19 10 14 10 -5 1 -1 10 9 21 12 13 25 18 38 14 14 -4 17 -3 12 6
-4 7 -18 9 -34 6 -24 -5 -24 -4 4 9 17 7 41 11 55 8 18 -3 21 -2 11 5 -11 8
-9 11 10 14 55 7 76 7 121 -3z m3106 -14 c-3 -3 -9 2 -12 12 -6 14 -5 15 5 6
7 -7 10 -15 7 -18z m122 -1 c0 -8 -4 -14 -8 -14 -4 0 -8 9 -8 19 0 11 4 17 8
15 4 -3 8 -12 8 -20z m-510 0 c0 -8 -5 -12 -10 -9 -6 4 -8 11 -5 16 9 14 15
11 15 -7z m-2720 -11 c0 -5 -11 -9 -25 -9 -14 -1 -25 2 -25 7 0 5 11 9 25 9
14 0 25 -3 25 -7z m2760 3 c0 -3 -4 -8 -10 -11 -5 -3 -10 -1 -10 4 0 6 5 11
10 11 6 0 10 -2 10 -4z m1427 -2 c-3 -3 -12 -4 -19 -1 -8 3 -5 6 6 6 11 1 17
-2 13 -5z m-1797 -23 c0 -9 -19 -37 -21 -31 -8 27 -4 48 7 43 8 -3 14 -8 14
-12z m401 2 c13 -16 12 -17 -3 -4 -10 7 -18 15 -18 17 0 8 8 3 21 -13z m480
-10 l24 -27 -24 15 c-14 9 -27 21 -29 27 -6 19 3 14 29 -15z m-951 8 c0 -6 -4
-13 -10 -16 -5 -3 -10 1 -10 9 0 9 5 16 10 16 6 0 10 -4 10 -9z m-1911 -17 c1
-1 1 -8 -1 -14 -2 -8 -13 -4 -28 10 l-25 21 25 -7 c14 -3 27 -8 29 -10z m2011
6 c0 -5 -7 -10 -16 -10 -8 0 -12 5 -9 10 3 6 10 10 16 10 5 0 9 -4 9 -10z
m-1980 -20 c0 -5 -5 -10 -11 -10 -5 0 -7 5 -4 10 3 6 8 10 11 10 2 0 4 -4 4
-10z m1997 -12 c-3 -8 -6 -5 -6 6 -1 11 2 17 5 13 3 -3 4 -12 1 -19z m1519 9
c-10 -7 -34 -22 -53 -34 -37 -25 -48 -28 -38 -13 4 6 27 21 53 35 50 25 70 32
38 12z m-3936 -12 c0 -8 -4 -15 -10 -15 -5 0 -10 7 -10 15 0 8 5 15 10 15 6 0
10 -7 10 -15z m2595 -10 c29 3 35 1 35 -15 0 -30 -13 -31 -65 -5 -36 19 -51
22 -62 14 -16 -14 -17 3 -1 19 9 9 17 8 35 -3 13 -9 36 -13 58 -10z m15 15 c0
-5 -4 -10 -10 -10 -5 0 -10 5 -10 10 0 6 5 10 10 10 6 0 10 -4 10 -10z m758
-15 c-3 -3 -9 2 -12 12 -6 14 -5 15 5 6 7 -7 10 -15 7 -18z m-3345 -22 c-3 -7
-10 -13 -15 -13 -6 0 -7 7 -4 16 3 9 6 21 6 27 0 7 4 7 9 -2 5 -8 7 -20 4 -28z
m2652 7 c3 -5 1 -10 -4 -10 -6 0 -11 5 -11 10 0 6 2 10 4 10 3 0 8 -4 11 -10z
m1118 -52 c-21 -17 -57 -50 -80 -72 -24 -22 -43 -35 -43 -30 0 17 133 134 152
134 5 0 -8 -14 -29 -32z m-1263 12 c0 -5 -5 -10 -11 -10 -5 0 -7 5 -4 10 3 6
8 10 11 10 2 0 4 -4 4 -10z m1163 -24 c-10 -13 -20 -22 -22 -20 -4 4 29 44 36
44 2 0 -4 -11 -14 -24z m102 -28 c-54 -62 -118 -189 -136 -270 -7 -34 -10 -96
-7 -159 5 -104 -3 -110 -17 -12 -8 62 9 187 37 263 24 65 99 181 135 210 41
32 38 24 -12 -32z m-3965 -12 c0 -3 -4 -8 -10 -11 -5 -3 -10 -1 -10 4 0 6 5
11 10 11 6 0 10 -2 10 -4z m-152 -26 c3 -9 -1 -11 -12 -7 -10 4 -25 -3 -40
-18 -14 -14 -31 -25 -38 -25 -7 1 5 16 27 35 41 36 55 39 63 15z m3162 -32 c0
-6 -8 -4 -17 3 -15 12 -16 12 -11 -3 5 -11 0 -18 -13 -21 -24 -6 -25 7 -1 31
17 19 42 12 42 -10z m-2619 -73 l10 -20 -16 20 c-9 11 -21 29 -26 40 l-10 20
16 -20 c9 -11 21 -29 26 -40z m2779 3 c0 -16 -3 -19 -11 -11 -6 6 -8 16 -5 22
11 17 16 13 16 -11z m-445 -38 c3 -5 1 -10 -4 -10 -6 0 -11 5 -11 10 0 6 2 10
4 10 3 0 8 -4 11 -10z m189 -5 c-4 -9 0 -15 9 -15 9 0 19 -6 23 -12 4 -7 4
-10 -1 -6 -4 4 -20 -1 -35 -12 -16 -11 -32 -20 -36 -20 -4 0 0 6 11 13 10 8
15 19 11 26 -4 6 -2 18 4 26 16 19 21 19 14 0z m394 -90 c33 -27 58 -53 55
-57 -5 -10 -80 51 -138 113 -44 46 -36 41 83 -56z m-3388 55 c-36 -11 -50 -11
-50 0 0 6 17 10 38 9 33 -1 34 -2 12 -9z m111 -44 c20 -3 44 -15 53 -25 16
-18 15 -18 -35 -1 -28 10 -59 24 -68 32 -9 8 -22 13 -29 10 -7 -2 -12 0 -12 6
0 20 15 21 34 3 12 -10 37 -21 57 -25z m2972 37 c-7 -2 -21 -2 -30 0 -10 3 -4
5 12 5 17 0 24 -2 18 -5z m762 -24 c-9 -17 -19 -28 -22 -25 -6 6 23 56 32 56
3 0 -2 -14 -10 -31z m-2644 -22 c-10 -9 -11 -8 -5 6 3 10 9 15 12 12 3 -3 0
-11 -7 -18z m129 -6 c0 -12 -26 -32 -33 -25 -9 10 4 34 19 34 8 0 14 -4 14 -9z
m-59 -18 c13 -16 12 -17 -3 -4 -10 7 -18 15 -18 17 0 8 8 3 21 -13z m-1161 -5
c0 -7 14 -27 32 -45 17 -18 29 -36 25 -39 -8 -8 -31 15 -40 39 -6 17 -8 17
-23 3 -23 -23 -40 -20 -19 4 9 10 15 26 12 35 -4 8 -2 15 3 15 6 0 10 -5 10
-12z m1066 -13 c-23 -17 -36 -19 -36 -6 0 5 10 12 23 14 12 2 24 5 27 5 3 1
-4 -5 -14 -13z m-962 -21 c5 -12 2 -15 -10 -10 -8 3 -18 6 -20 6 -3 0 -2 5 1
10 9 15 22 12 29 -6z m-154 -4 c0 -5 -5 -10 -11 -10 -5 0 -7 5 -4 10 3 6 8 10
11 10 2 0 4 -4 4 -10z m898 -10 c-11 -18 -28 -27 -28 -16 0 16 14 36 26 36 12
0 12 -4 2 -20z m2630 -9 c51 -7 99 -19 123 -33 50 -28 44 -35 -7 -9 -22 11
-66 23 -99 26 -76 9 -132 23 -140 35 -4 7 2 7 17 1 13 -6 61 -15 106 -20z
m122 19 c12 -8 11 -10 -7 -10 -12 0 -25 5 -28 10 -8 13 15 13 35 0z m-2412
-21 c-24 -13 -23 -24 5 -36 22 -10 21 -10 -13 -31 -35 -22 -58 -20 -27 2 23
18 22 23 -9 29 -18 3 -24 1 -20 -9 3 -8 0 -11 -10 -7 -23 9 -17 17 29 39 44
22 75 31 45 13z m2439 -5 c-3 -3 -12 -4 -19 -1 -8 3 -5 6 6 6 11 1 17 -2 13
-5z m-2557 -14 c0 -5 -2 -10 -4 -10 -3 0 -8 5 -11 10 -3 6 -1 10 4 10 6 0 11
-4 11 -10z m2437 -58 c18 -13 31 -28 28 -32 -3 -4 3 -10 13 -12 22 -6 65 -75
51 -83 -5 -4 -9 -2 -9 4 0 17 -100 115 -152 150 -27 18 -48 34 -48 37 0 7 83
-37 117 -64z m-3497 48 c0 -5 -5 -10 -11 -10 -5 0 -7 5 -4 10 3 6 8 10 11 10
2 0 4 -4 4 -10z m50 -20 c0 -5 -2 -10 -4 -10 -3 0 -8 5 -11 10 -3 6 -1 10 4
10 6 0 11 -4 11 -10z m3548 -25 c13 -4 22 -14 22 -26 0 -23 -23 -25 -40 -4 -9
11 -15 12 -20 5 -5 -7 -11 -6 -20 5 -11 13 -10 15 4 9 19 -7 22 11 4 20 -14 6
14 1 50 -9z m-2740 -20 c5 -5 -23 -35 -32 -35 -3 0 -6 7 -6 15 0 10 -10 15
-34 15 -19 0 -38 5 -42 12 -5 8 8 9 51 4 33 -4 61 -9 63 -11z m2587 -25 c3 -5
1 -10 -4 -10 -6 0 -11 5 -11 10 0 6 2 10 4 10 3 0 8 -4 11 -10z m-2515 -10 c0
-5 -7 -10 -15 -10 -8 0 -15 5 -15 10 0 6 7 10 15 10 8 0 15 -4 15 -10z m2550
-10 c0 -5 -2 -10 -4 -10 -3 0 -8 5 -11 10 -3 6 -1 10 4 10 6 0 11 -4 11 -10z
m-805 -22 c25 -7 45 -18 45 -25 0 -7 5 -13 10 -13 6 0 10 -11 10 -25 0 -18 -5
-25 -19 -25 -11 0 -26 -7 -34 -15 -8 -8 -17 -12 -20 -9 -3 3 -11 -4 -17 -16
-9 -17 -14 -19 -26 -9 -11 9 -18 9 -26 1 -8 -8 -5 -14 13 -21 22 -9 22 -10 3
-10 -12 -1 -33 8 -48 20 -28 22 -35 42 -11 33 8 -4 15 -1 15 6 0 7 8 9 20 5
16 -5 20 -2 20 17 -1 27 -22 58 -39 58 -21 0 -6 24 20 31 35 10 35 10 84 -3z
m945 2 c0 -5 -2 -10 -4 -10 -3 0 -8 5 -11 10 -3 6 -1 10 4 10 6 0 11 -4 11
-10z m-120 -24 c0 -14 6 -31 14 -39 8 -8 11 -19 6 -27 -6 -9 -10 -7 -15 9 -16
50 -28 25 -173 -344 -82 -207 -89 -227 -73 -205 22 31 10 -10 -24 -81 -20 -41
-33 -65 -30 -54 17 57 -19 -18 -79 -164 -37 -90 -73 -170 -81 -178 -12 -12
-22 -12 -49 -3 l-35 11 44 122 c103 290 174 481 174 470 1 -11 -29 -110 -44
-147 -6 -13 -5 -17 2 -13 6 4 14 18 17 32 7 26 36 93 89 205 17 36 30 68 29
73 -1 4 3 7 8 7 6 0 10 7 10 15 0 8 5 15 10 15 6 0 10 7 10 15 0 8 5 15 12 15
6 0 9 3 5 6 -8 8 25 44 35 38 8 -5 24 28 79 163 33 81 59 107 59 59z m46 7 c3
-10 12 -30 20 -45 17 -31 18 -48 3 -48 -5 0 -7 5 -4 10 7 12 -12 33 -37 43
-10 3 -18 15 -18 25 0 34 27 45 36 15z m-2460 -18 c-11 -8 -25 -15 -30 -15 -6
0 -2 7 8 15 11 8 25 15 30 15 6 0 2 -7 -8 -15z m1406 -2 c-6 -2 -10 -9 -7 -13
3 -5 1 -11 -4 -14 -5 -3 -11 3 -14 14 -4 16 0 20 16 19 12 0 16 -3 9 -6z
m-2182 -33 c0 -5 -5 -10 -11 -10 -5 0 -7 5 -4 10 3 6 8 10 11 10 2 0 4 -4 4
-10z m942 -54 l3 -54 -65 -11 c-36 -6 -77 -14 -92 -17 -21 -5 -28 -3 -28 9 0
9 -5 19 -10 22 -7 4 -9 -2 -4 -19 3 -15 2 -26 -4 -26 -11 0 -22 37 -27 95 -4
39 -2 37 17 -15 7 -18 11 -21 17 -11 5 7 24 15 42 17 52 6 129 36 129 51 0 7
4 13 9 13 5 0 11 -24 13 -54z m-1403 -24 c17 0 38 -5 48 -11 14 -9 12 -9 -13
-5 -39 7 -90 -21 -74 -41 6 -7 10 -17 9 -21 -4 -24 3 -26 14 -4 10 20 21 25
52 26 46 2 63 -5 44 -17 -11 -7 -9 -9 6 -9 18 0 18 -1 -3 -16 -14 -9 -22 -25
-21 -37 3 -33 -11 -77 -25 -74 -6 1 -10 -4 -8 -12 2 -9 -3 -11 -14 -7 -11 4
-15 2 -11 -8 3 -8 3 -17 0 -20 -9 -8 -44 74 -37 85 3 5 2 18 -1 29 -5 17 -9
18 -26 7 -16 -10 -21 -9 -29 2 -5 9 -5 22 1 32 13 24 11 52 -2 43 -8 -4 -7 0
1 15 6 12 18 25 26 28 8 3 14 17 15 32 0 24 1 24 9 5 6 -14 18 -21 39 -22z
m436 19 c-3 -6 -11 -11 -16 -11 -5 0 -4 6 3 14 14 16 24 13 13 -3z m2480 -1
c-3 -5 -16 -15 -28 -21 -19 -9 -19 -8 3 10 28 23 34 26 25 11z m-1791 -70 l6
-35 -14 35 c-8 19 -15 44 -15 55 l0 20 8 -20 c5 -11 11 -36 15 -55z m375 28
c1 -5 -6 -8 -15 -8 -11 0 -14 5 -10 16 3 9 6 21 7 27 0 12 17 -20 18 -35z
m325 16 c3 -8 2 -12 -4 -9 -6 3 -10 10 -10 16 0 14 7 11 14 -7z m-1644 -29
c-18 -14 -36 -22 -39 -19 -8 8 38 44 57 44 10 0 3 -10 -18 -25z m137 12 c-3
-8 0 -14 6 -15 18 -1 88 -20 91 -24 1 -1 12 -16 23 -31 l21 -28 -26 -26 c-17
-17 -22 -28 -14 -31 7 -2 10 -8 6 -13 -3 -5 -1 -9 4 -9 6 0 13 11 16 25 6 24
26 36 26 16 0 -5 3 -17 7 -27 4 -12 3 -15 -5 -10 -6 4 -25 -3 -41 -15 -21 -15
-37 -20 -55 -15 -31 8 -32 4 -9 -32 l17 -27 -22 19 c-18 15 -21 26 -16 56 4
23 1 47 -7 61 -7 13 -12 27 -11 32 1 4 -2 7 -8 7 -5 0 -10 -5 -10 -11 0 -6 -9
-9 -20 -6 -11 3 -18 1 -14 -4 7 -12 -23 -11 -46 1 -11 6 -25 20 -31 33 -6 12
-8 19 -4 15 4 -4 16 -3 26 3 25 13 69 1 62 -17 -3 -8 0 -14 6 -14 6 0 11 6 11
14 0 10 9 13 27 11 15 -1 38 1 50 6 13 5 24 4 27 -2 2 -5 3 -4 2 3 -1 7 -13
13 -27 13 -104 5 -98 3 -86 30 12 25 33 36 24 12z m78 -1 c44 -19 101 -62 109
-82 3 -9 -15 3 -40 25 -26 22 -61 43 -80 47 -19 3 -37 10 -40 15 -8 13 12 11
51 -5z m605 -34 c0 -7 -4 -10 -10 -7 -5 3 -10 16 -10 28 0 18 2 19 10 7 5 -8
10 -21 10 -28z m-1118 -16 c1 -20 -2 -39 -5 -43 -4 -3 -7 15 -7 42 0 55 10 56
12 1z m2488 -41 c-6 -19 -15 -37 -20 -40 -4 -3 -1 17 8 44 10 28 18 46 20 41
2 -6 -2 -26 -8 -45z m-2225 28 c3 -10 1 -19 -4 -21 -6 -2 -9 -8 -6 -12 3 -5 1
-11 -4 -14 -5 -3 -9 10 -9 29 0 37 12 46 23 18z m30 -13 c3 -5 1 -10 -4 -10
-6 0 -11 5 -11 10 0 6 2 10 4 10 3 0 8 -4 11 -10z m3375 -67 c-23 -41 -23 -38
0 20 8 21 16 34 18 28 2 -5 -6 -27 -18 -48z m-3656 1 c3 -8 2 -12 -4 -9 -6 3
-10 10 -10 16 0 14 7 11 14 -7z m257 -16 c10 -18 9 -20 -6 -15 -9 4 -19 7 -21
7 -2 0 -4 7 -4 15 0 22 18 18 31 -7z m-51 -18 c0 -5 -5 -10 -11 -10 -5 0 -7 5
-4 10 3 6 8 10 11 10 2 0 4 -4 4 -10z m-15 -30 c3 -5 -1 -10 -9 -10 -9 0 -16
5 -16 10 0 6 4 10 9 10 6 0 13 -4 16 -10z m3406 -77 c-12 -20 -14 -14 -5 12 4
9 9 14 11 11 3 -2 0 -13 -6 -23z m-573 -38 c-3 -3 -9 2 -12 12 -6 14 -5 15 5
6 7 -7 10 -15 7 -18z m-127 -7 c0 -10 2 -10 6 0 7 18 37 15 50 -6 6 -11 9 -36
6 -57 -5 -38 -36 -99 -50 -101 -5 0 -15 -3 -23 -7 -29 -11 -75 -20 -89 -18
-13 2 -13 1 0 -15 13 -16 12 -16 -9 -5 -12 7 -20 16 -17 22 4 5 1 9 -4 9 -19
0 -12 -28 11 -44 12 -9 18 -16 12 -16 -6 0 -31 23 -56 50 -51 56 -64 99 -47
149 10 29 14 31 41 26 16 -4 34 -2 41 3 27 22 127 30 128 10z m-2827 -112 c-9
-15 -19 -25 -21 -22 -5 5 30 56 35 51 2 -2 -4 -15 -14 -29z m83 0 c-6 -7 -19
-13 -30 -13 -18 -2 -18 0 4 23 15 16 25 21 30 13 4 -7 2 -17 -4 -23z m3386 19
c-3 -9 -8 -14 -10 -11 -3 3 -2 9 2 15 9 16 15 13 8 -4z m647 -25 c0 -5 -4 -10
-10 -10 -5 0 -10 5 -10 10 0 6 5 10 10 10 6 0 10 -4 10 -10z m-4008 -48 c-10
-3 -10 -9 2 -27 17 -25 11 -65 -10 -65 -8 0 -11 -6 -8 -15 13 -33 -27 -1 -47
37 -22 44 -19 91 5 82 8 -3 17 -1 21 5 4 8 13 8 28 -1 14 -7 18 -13 9 -16z
m-113 -21 c8 -14 7 -22 -4 -31 -13 -11 -15 -8 -15 19 0 36 5 39 19 12z m2636
-3 c44 -30 74 -72 81 -110 l5 -33 -15 30 c-10 20 -15 24 -15 13 -1 -10 -5 -18
-11 -18 -6 0 -9 -3 -9 -7 4 -25 -2 -35 -14 -24 -17 14 -38 -5 -30 -27 4 -9 2
-13 -4 -9 -11 7 -27 -19 -25 -39 1 -5 -17 -20 -40 -33 -32 -17 -43 -19 -50 -9
-4 7 -8 9 -8 4 0 -5 -8 -2 -17 5 -15 12 -16 12 -9 -5 7 -19 6 -19 -13 -2 -10
9 -21 14 -24 9 -6 -10 22 -45 48 -61 11 -6 15 -12 8 -12 -27 0 -82 62 -98 111
-39 116 30 225 128 203 25 -5 28 -4 23 13 -5 17 -1 20 26 21 19 1 46 -8 63
-20z m-313 -147 c10 -13 8 -13 -6 1 -13 11 -20 34 -22 70 l-3 53 10 -54 c5
-30 15 -61 21 -70z m-2369 89 c3 -11 1 -18 -4 -14 -5 3 -9 12 -9 20 0 20 7 17
13 -6z m199 -2 c-7 -7 -12 -8 -12 -2 0 14 12 26 19 19 2 -3 -1 -11 -7 -17z
m-155 -9 c8 -3 9 -9 3 -19 -11 -17 -15 -13 -24 20 -4 14 -4 20 1 14 4 -6 13
-13 20 -15z m2790 5 c-3 -3 -12 -4 -19 -1 -8 3 -5 6 6 6 11 1 17 -2 13 -5z
m1935 -12 c10 -10 5 -10 -20 -1 -19 6 -56 9 -84 7 -31 -3 -45 -2 -36 4 18 12
126 4 140 -10z m-1341 -49 c-12 -20 -14 -14 -5 12 4 9 9 14 11 11 3 -2 0 -13
-6 -23z m-3297 -88 c-4 -8 -8 -15 -10 -15 -2 0 -4 7 -4 15 0 8 4 15 10 15 5 0
7 -7 4 -15z m2606 -45 c-6 -11 -13 -20 -16 -20 -2 0 0 9 6 20 6 11 13 20 16
20 2 0 0 -9 -6 -20z m-1263 -16 c-3 -3 -12 -4 -19 -1 -8 3 -5 6 6 6 11 1 17
-2 13 -5z m1209 -39 c-11 -8 -25 -15 -30 -15 -6 1 0 7 14 15 32 19 40 18 16 0z
m553 -136 c17 -6 31 -13 31 -16 0 -3 -9 -21 -21 -40 -12 -18 -18 -40 -15 -48
7 -19 -12 -19 -57 0 l-35 15 21 50 c22 54 27 56 76 39z m-49 -140 c25 -9 29
-14 18 -20 -16 -9 -68 10 -68 24 0 10 12 9 50 -4z"/>
<path d="M3596 6354 c-9 -8 -16 -25 -16 -37 1 -22 1 -22 13 -2 6 11 12 22 12
25 0 3 4 11 8 18 11 17 2 15 -17 -4z"/>
<path d="M310 5850 c0 -5 5 -10 11 -10 5 0 7 5 4 10 -3 6 -8 10 -11 10 -2 0
-4 -4 -4 -10z"/>
<path d="M2952 5080 c0 -14 2 -19 5 -12 2 6 2 18 0 25 -3 6 -5 1 -5 -13z"/>
<path d="M3422 4418 c-12 -33 -21 -63 -18 -65 2 -2 14 24 26 57 12 33 21 63
18 65 -2 3 -14 -23 -26 -57z"/>
<path d="M3381 4309 c-6 -18 -9 -34 -7 -36 2 -2 9 10 15 28 6 18 9 34 7 36 -2
2 -9 -10 -15 -28z"/>
<path d="M3361 4253 c-1 -6 -4 -20 -7 -30 -5 -17 -5 -17 6 0 6 10 9 23 6 30
-3 9 -5 9 -5 0z"/>
<path d="M3307 4103 c-10 -9 -9 -23 1 -23 5 0 9 7 9 15 0 17 -1 18 -10 8z"/>
<path d="M170 4946 c0 -2 7 -7 16 -10 8 -3 12 -2 9 4 -6 10 -25 14 -25 6z"/>
<path d="M2772 4630 c-8 -13 -8 -20 -2 -20 6 0 13 7 17 15 9 24 -1 27 -15 5z"/>
<path d="M2725 4480 c3 -5 11 -10 16 -10 6 0 7 5 4 10 -3 6 -11 10 -16 10 -6
0 -7 -4 -4 -10z"/>
<path d="M1290 6495 c1 -6 7 -21 16 -35 l15 -25 -7 25 c-7 26 -24 52 -24 35z"/>
<path d="M2288 6493 c6 -2 18 -2 25 0 6 3 1 5 -13 5 -14 0 -19 -2 -12 -5z"/>
<path d="M2410 6475 c0 -19 4 -23 17 -18 12 5 15 2 10 -10 -6 -17 12 -18 66
-3 31 9 33 32 4 50 -14 8 -20 8 -27 -4 -6 -10 -10 -11 -10 -2 0 7 -13 12 -30
12 -25 0 -30 -4 -30 -25z"/>
<path d="M2770 6496 c0 -2 9 -6 20 -9 11 -3 20 -1 20 4 0 5 -9 9 -20 9 -11 0
-20 -2 -20 -4z"/>
<path d="M3210 6489 c0 -5 5 -7 10 -4 6 3 10 8 10 11 0 2 -4 4 -10 4 -5 0 -10
-5 -10 -11z"/>
<path d="M3787 6489 c7 -7 15 -10 18 -7 3 3 -2 9 -12 12 -14 6 -15 5 -6 -5z"/>
<path d="M2660 6475 c7 -9 15 -13 17 -11 7 7 -7 26 -19 26 -6 0 -6 -6 2 -15z"/>
<path d="M2640 6449 c0 -5 5 -7 10 -4 6 3 10 8 10 11 0 2 -4 4 -10 4 -5 0 -10
-5 -10 -11z"/>
<path d="M2722 6444 c10 -10 20 -15 24 -12 3 4 -5 12 -18 18 -22 12 -22 12 -6
-6z"/>
<path d="M3945 6450 c27 -12 43 -12 25 0 -8 5 -22 9 -30 9 -10 0 -8 -3 5 -9z"/>
<path d="M2667 6431 c-4 -17 -3 -21 5 -13 5 5 8 16 6 23 -3 8 -7 3 -11 -10z"/>
<path d="M1324 6410 c45 -193 57 -241 71 -275 l15 -40 -4 60 c-5 59 -54 229
-77 263 -8 14 -9 12 -5 -8z"/>
<path d="M4098 6398 c11 -14 52 -31 52 -22 0 2 -15 11 -32 20 -28 14 -31 15
-20 2z"/>
<path d="M2710 6370 c-8 -5 -12 -11 -10 -14 3 -2 14 2 24 10 22 15 10 19 -14
4z"/>
<path d="M3230 6355 c0 -8 4 -15 10 -15 5 0 7 7 4 15 -4 8 -8 15 -10 15 -2 0
-4 -7 -4 -15z"/>
<path d="M4200 6348 c19 -13 40 -29 47 -38 10 -13 12 -12 10 7 0 12 -5 19 -9
17 -4 -3 -8 0 -8 5 0 6 -9 11 -20 11 -11 0 -20 5 -20 10 0 6 -8 10 -17 10 -12
0 -6 -8 17 -22z"/>
<path d="M4270 6320 c0 -5 5 -10 11 -10 5 0 7 5 4 10 -3 6 -8 10 -11 10 -2 0
-4 -4 -4 -10z"/>
<path d="M3790 6314 c0 -6 11 -21 25 -34 13 -12 22 -27 19 -31 -10 -16 16 -47
61 -73 25 -15 50 -24 55 -21 5 3 -3 27 -18 53 -21 34 -41 54 -78 72 -27 14
-52 29 -56 35 -5 7 -8 6 -8 -1z"/>
<path d="M2114 6296 c7 -6 18 -19 23 -30 9 -17 12 -16 30 10 l21 29 -44 1
c-34 1 -41 -1 -30 -10z"/>
<path d="M4270 6290 c0 -5 5 -10 11 -10 5 0 7 5 4 10 -3 6 -8 10 -11 10 -2 0
-4 -4 -4 -10z"/>
<path d="M3970 6144 c0 -8 5 -12 10 -9 6 4 8 11 5 16 -9 14 -15 11 -15 -7z"/>
<path d="M3156 6135 c-3 -8 -1 -25 4 -37 8 -20 9 -18 9 15 1 39 -3 47 -13 22z"/>
<path d="M3976 6111 c-21 -23 -14 -41 14 -34 11 3 20 0 20 -6 0 -6 5 -11 10
-11 15 0 12 22 -8 48 -18 23 -18 23 -36 3z"/>
<path d="M1366 6112 c-2 -4 -1 -14 4 -22 7 -11 9 -9 7 8 -1 24 -3 26 -11 14z"/>
<path d="M3780 6112 c0 -6 12 -24 26 -39 l26 -28 -23 35 c-29 46 -29 45 -29
32z"/>
<path d="M3130 6085 c7 -9 15 -13 17 -11 7 7 -7 26 -19 26 -6 0 -6 -6 2 -15z"/>
<path d="M2060 6070 c-8 -5 -22 -7 -31 -5 -9 3 -24 -4 -34 -15 -16 -18 -16
-20 -2 -20 10 0 17 5 17 11 0 6 7 9 15 6 7 -3 24 3 37 13 24 20 23 26 -2 10z"/>
<path d="M1370 6055 c0 -11 5 -27 10 -35 8 -12 10 -12 10 5 0 11 -5 27 -10 35
-8 12 -10 12 -10 -5z"/>
<path d="M3150 6050 c0 -5 5 -10 10 -10 6 0 10 5 10 10 0 6 -4 10 -10 10 -5 0
-10 -4 -10 -10z"/>
<path d="M3145 6020 c-18 -8 -17 -9 8 -9 15 -1 27 4 27 9 0 12 -8 12 -35 0z"/>
<path d="M4011 5991 c-19 -12 -10 -30 11 -22 10 3 14 11 10 18 -5 7 -13 9 -21
4z"/>
<path d="M3196 5963 c-11 -11 -6 -23 9 -23 8 0 15 4 15 9 0 13 -16 22 -24 14z"/>
<path d="M2390 5920 c0 -5 5 -10 10 -10 6 0 10 5 10 10 0 6 -4 10 -10 10 -5 0
-10 -4 -10 -10z"/>
<path d="M2670 5811 c0 -6 9 -11 21 -11 11 0 18 -4 15 -9 -3 -5 1 -12 10 -15
22 -8 25 -4 11 15 -15 20 -57 35 -57 20z"/>
<path d="M1273 5782 c-6 -26 -23 -30 -23 -5 0 14 -2 14 -20 -2 -27 -24 -25
-44 4 -55 13 -5 29 -16 34 -26 7 -12 11 -1 15 42 6 60 1 86 -10 46z"/>
<path d="M2635 5790 c4 -6 11 -8 16 -5 14 9 11 15 -7 15 -8 0 -12 -5 -9 -10z"/>
<path d="M2594 5778 c-5 -8 -2 -9 9 -5 11 4 17 1 17 -8 0 -8 5 -15 10 -15 7 0
7 6 0 20 -12 23 -25 26 -36 8z"/>
<path d="M2660 5740 c-9 -6 -10 -10 -3 -10 6 0 15 5 18 10 8 12 4 12 -15 0z"/>
<path d="M2731 5745 c0 -5 6 -19 14 -29 8 -11 15 -15 15 -10 0 6 -7 19 -15 30
-8 10 -14 15 -14 9z"/>
<path d="M2770 5740 c0 -5 7 -10 15 -10 8 0 15 5 15 10 0 6 -7 10 -15 10 -8 0
-15 -4 -15 -10z"/>
<path d="M2802 5722 c-9 -20 -9 -23 0 -14 7 7 21 12 33 12 15 0 17 -2 6 -9 -9
-6 -10 -10 -2 -16 7 -4 18 -1 26 5 22 18 48 5 40 -20 -3 -11 -3 -20 1 -20 8 0
33 31 34 42 0 5 -42 21 -115 43 -6 1 -16 -9 -23 -23z"/>
<path d="M2620 5720 c0 -5 -9 -10 -20 -10 -23 0 -26 -10 -8 -28 17 -17 29 -15
22 3 -4 8 1 17 10 21 18 7 22 24 6 24 -5 0 -10 -4 -10 -10z"/>
<path d="M2811 5685 c-1 -11 -10 -26 -21 -33 -25 -15 -27 -4 -2 14 15 12 15
13 1 14 -18 0 -33 -26 -23 -41 3 -6 0 -17 -7 -25 -11 -13 -9 -14 14 -3 15 7
24 16 21 20 -3 5 2 9 10 9 21 0 27 15 17 42 -9 21 -10 21 -10 3z"/>
<path d="M2690 5683 c0 -7 5 -13 11 -13 5 0 8 -4 4 -9 -3 -5 4 -16 15 -24 11
-7 19 -16 17 -18 -1 -2 2 -1 7 3 5 3 -6 21 -23 40 -17 18 -31 27 -31 21z"/>
<path d="M2727 5675 c6 -17 25 -15 31 3 2 7 -5 12 -17 12 -14 0 -19 -5 -14
-15z"/>
<path d="M3016 5672 c-2 -4 0 -14 5 -22 8 -13 10 -13 18 0 10 15 6 30 -9 30
-5 0 -11 -4 -14 -8z"/>
<path d="M3230 5670 c0 -5 5 -10 11 -10 5 0 7 5 4 10 -3 6 -8 10 -11 10 -2 0
-4 -4 -4 -10z"/>
<path d="M2565 5648 c6 -16 -92 -80 -101 -67 -3 5 -10 6 -16 3 -7 -4 -4 -10 6
-16 9 -5 14 -15 10 -21 -3 -7 2 -3 11 8 17 21 28 23 138 29 92 5 90 4 83 21
-3 8 0 15 7 15 7 0 -1 7 -17 15 -20 11 -33 12 -40 5 -7 -7 -4 -10 10 -11 11 0
2 -7 -21 -15 -22 -8 -48 -13 -57 -10 -10 2 -21 0 -24 -5 -3 -5 -10 -9 -17 -9
-6 0 -2 6 8 14 11 8 25 12 32 9 9 -4 11 0 6 12 -5 15 -2 17 20 13 33 -6 36 7
5 16 -35 9 -48 7 -43 -6z m112 -44 c-3 -3 -12 -4 -19 -1 -8 3 -5 6 6 6 11 1
17 -2 13 -5z"/>
<path d="M2840 5616 c0 -2 7 -6 15 -10 8 -3 15 -1 15 4 0 6 -7 10 -15 10 -8 0
-15 -2 -15 -4z"/>
<path d="M2536 5479 c7 -8 15 -32 18 -54 6 -35 3 -46 -24 -83 -27 -38 -28 -42
-9 -31 12 6 43 12 69 12 l46 1 -4 51 c-4 44 -1 55 22 82 l27 32 -37 -11 c-34
-9 -58 -7 -101 9 -15 5 -16 4 -7 -8z m70 -110 c7 -12 -15 -31 -28 -23 -9 6 1
34 12 34 5 0 12 -5 16 -11z"/>
<path d="M12 5466 c7 -8 16 -12 21 -9 11 7 -2 23 -19 23 -12 0 -12 -2 -2 -14z"/>
<path d="M2944 5335 c-13 -10 -14 -14 -5 -15 11 0 11 -3 1 -15 -10 -12 -10
-15 4 -15 15 0 21 12 17 34 -1 5 4 13 11 17 7 5 8 9 2 9 -5 0 -19 -7 -30 -15z"/>
<path d="M2330 5246 c0 -2 8 -10 18 -17 15 -13 16 -12 3 4 -13 16 -21 21 -21
13z"/>
<path d="M2748 5053 c7 -3 16 -2 19 1 4 3 -2 6 -13 5 -11 0 -14 -3 -6 -6z"/>
<path d="M2659 4580 c-1 -5 -2 -16 -3 -22 -1 -7 -5 -16 -11 -20 -6 -5 -6 -8 1
-8 6 0 19 10 30 22 18 22 18 22 0 8 -17 -14 -18 -13 -12 8 4 12 5 22 2 22 -3
0 -7 -4 -7 -10z"/>
<path d="M2490 4530 c0 -5 7 -10 16 -10 8 0 12 5 9 10 -3 6 -10 10 -16 10 -5
0 -9 -4 -9 -10z"/>
<path d="M2557 4514 c-8 -8 1 -24 14 -24 5 0 9 7 9 15 0 15 -12 20 -23 9z"/>
</g>
</svg>
