<?xml version="1.0" standalone="no"?>
<!DOCTYPE svg PUBLIC "-//W3C//DTD SVG 20010904//EN"
 "http://www.w3.org/TR/2001/REC-SVG-20010904/DTD/svg10.dtd">
<svg version="1.0" xmlns="http://www.w3.org/2000/svg"
 width="500.000000pt" height="650.000000pt" viewBox="0 0 500.000000 650.000000"
 preserveAspectRatio="xMidYMid meet">

<g transform="translate(0.000000,650.000000) scale(0.100000,-0.100000)"
fill="#000000" stroke="none">
<path d="M0 6424 c0 -47 4 -73 10 -69 6 3 10 2 10 -4 0 -5 -5 -13 -10 -16 -7
-4 -10 -89 -10 -231 1 -160 4 -223 12 -218 17 11 88 13 88 3 0 -5 -8 -9 -17
-9 -11 0 -14 -3 -7 -10 7 -7 21 -6 44 2 25 8 35 8 38 0 2 -6 11 -8 19 -5 12 5
15 2 10 -9 -3 -9 2 -23 14 -34 10 -9 19 -22 18 -28 0 -6 -7 -1 -16 12 -8 12
-21 22 -29 22 -7 0 -18 8 -23 18 -10 15 -10 15 -11 -4 0 -11 3 -24 8 -30 4 -5
-3 1 -14 14 -15 17 -23 20 -26 11 -3 -10 -10 -9 -28 4 -14 9 -37 17 -52 17
l-27 0 2 -92 c2 -89 3 -93 24 -92 13 0 21 -1 19 -4 -3 -2 10 -17 27 -34 l32
-30 -29 17 c-22 13 -28 14 -24 3 4 -9 -1 -14 -13 -15 -10 -1 -19 2 -19 8 0 5
-4 9 -8 9 -12 0 -13 -62 -1 -76 6 -8 6 -14 0 -18 -5 -3 -9 -63 -10 -132 0
-115 1 -125 17 -120 16 6 16 5 0 -7 -17 -13 -18 -160 -18 -2645 l0 -2632 2500
0 2500 0 0 2611 c0 1868 -3 2616 -11 2631 -7 14 -8 18 0 14 7 -5 10 184 11
619 l0 625 -756 0 -756 0 16 -25 c25 -38 19 -44 -10 -7 l-25 32 -254 0 c-249
0 -253 0 -258 -21 l-6 -21 -29 21 c-32 23 -47 27 -37 11 3 -5 2 -10 -4 -10 -5
0 -13 5 -16 10 -22 35 -38 -13 -70 -215 l-23 -140 6 182 5 182 -506 1 c-450 0
-507 -1 -507 -15 0 -14 -3 -14 -25 1 -24 16 -25 16 -18 -2 7 -18 6 -18 -20 -1
-22 14 -44 17 -114 15 -70 -2 -82 -5 -60 -12 15 -6 27 -13 27 -18 0 -4 7 -8
15 -8 8 0 15 -4 15 -10 0 -5 -6 -10 -12 -10 -9 0 -8 -3 2 -10 8 -5 16 -20 16
-32 1 -13 4 -35 7 -51 4 -20 0 -33 -16 -48 -14 -13 -17 -19 -7 -17 19 4 44 36
58 73 6 18 11 23 11 12 1 -24 -22 -67 -51 -94 -45 -43 -153 -28 -220 30 -32
28 -37 38 -39 82 -1 28 -6 55 -11 62 -5 7 -7 20 -4 30 5 15 0 19 -25 21 -17 1
-29 -1 -27 -5 37 -72 51 -114 50 -144 -1 -31 3 -38 31 -50 43 -19 79 -74 70
-108 -3 -14 -11 -29 -17 -33 -6 -4 -7 -8 -3 -8 5 0 1 -10 -7 -22 -10 -15 -12
-25 -6 -33 7 -9 6 -16 -4 -24 -12 -10 -13 -8 -9 10 5 18 3 20 -15 15 -32 -11
-107 13 -143 45 -22 19 -26 26 -12 20 21 -11 21 -10 6 19 -16 32 -41 50 -70
50 -37 0 -138 132 -116 153 3 3 -2 13 -11 22 -11 11 -13 21 -7 33 5 9 12 25
15 34 3 12 11 15 22 11 12 -4 15 -3 10 5 -11 18 -34 14 -59 -9 -12 -11 -38
-29 -57 -39 -34 -18 -34 -19 -9 -20 29 0 48 -18 74 -69 22 -44 16 -108 -15
-151 l-22 -31 25 6 c28 7 71 -11 62 -25 -3 -6 0 -7 8 -4 15 5 50 -32 78 -83
13 -23 23 -30 49 -31 43 -1 54 -14 46 -55 -11 -59 -70 -99 -143 -96 -27 1 -78
1 -115 -1 -36 -1 -75 3 -86 9 -35 19 -36 12 -3 -21 17 -17 31 -35 31 -40 0 -4
5 -8 11 -8 6 0 9 9 6 20 -3 11 -2 20 2 20 11 0 32 -40 26 -50 -3 -5 -1 -11 4
-14 5 -3 12 -22 15 -41 4 -19 11 -35 16 -35 11 0 13 -38 3 -93 -8 -49 -62 -87
-122 -87 -32 0 -39 -3 -35 -15 4 -8 1 -15 -5 -15 -6 0 -11 8 -11 18 0 11 -11
24 -25 30 -36 16 -83 87 -90 136 -5 32 -13 45 -36 58 -31 18 -53 60 -50 94 1
14 -10 30 -33 48 -20 15 -36 33 -36 41 0 25 -22 28 -52 5 -23 -17 -32 -19 -38
-10 -4 7 -4 18 1 24 5 6 21 26 35 44 15 18 30 50 34 70 4 20 11 51 15 67 l7
30 -17 -24 c-24 -32 -74 -51 -134 -51 -43 0 -52 4 -80 35 -17 19 -36 35 -43
35 -21 0 -71 37 -84 62 -16 27 -18 132 -4 157 9 19 -7 71 -22 71 -5 0 -8 5 -8
11 0 5 5 7 11 4 6 -4 5 2 -2 13 -14 22 -64 27 -86 9 -9 -6 -13 -6 -13 2 0 6
-17 11 -40 11 l-40 0 0 -76z m55 46 c-3 -5 -14 -10 -23 -10 -15 0 -15 2 -2 10
20 13 33 13 25 0z m3315 -25 c0 -5 -5 -3 -10 5 -5 8 -10 20 -10 25 0 6 5 3 10
-5 5 -8 10 -19 10 -25z m-470 15 c-8 -5 -19 -10 -25 -10 -5 0 -3 5 5 10 8 5
20 10 25 10 6 0 3 -5 -5 -10z m-1110 -10 c0 -12 -29 -45 -30 -33 0 6 -2 18 -5
25 -4 9 2 14 15 14 11 0 20 -3 20 -6z m-1706 -8 c2 -4 -10 -8 -29 -8 -19 0
-31 4 -29 8 3 4 16 8 29 8 13 0 26 -4 29 -8z m1654 -26 c-13 -10 -15 -15 -6
-24 9 -9 3 -12 -27 -11 -22 1 -30 4 -18 6 12 2 28 17 35 33 9 20 16 26 23 19
7 -7 5 -14 -7 -23z m1199 9 c-4 -8 -11 -15 -17 -15 -7 0 -7 6 0 21 13 23 26
19 17 -6z m-2767 0 c8 -9 9 -15 2 -15 -6 0 -14 5 -17 10 -4 6 -15 8 -26 5 -11
-4 -19 -2 -19 4 0 16 46 13 60 -4z m2578 -27 c-8 -4 -15 -1 -19 10 -10 26 2
37 18 17 10 -15 10 -20 1 -27z m-2658 -8 c12 -8 10 -10 -10 -10 -14 0 -32 5
-40 10 -12 8 -10 10 10 10 14 0 32 -5 40 -10z m3737 -45 c0 -16 -7 -18 -31 -9
-16 6 -22 35 -9 47 9 10 40 -20 40 -38z m-1827 -130 c-27 -88 -52 -177 -55
-198 -6 -38 -7 -38 -30 -23 -14 9 -25 11 -27 5 -4 -13 -58 6 -58 21 0 7 6 8
19 0 29 -15 39 -12 17 5 -25 19 -9 19 24 0 35 -20 46 -18 26 4 -16 17 -16 19
5 24 24 6 17 27 -9 27 -9 0 -36 11 -59 24 -32 18 -43 21 -47 11 -2 -7 2 -16
11 -19 9 -4 14 -9 11 -11 -3 -3 -14 -2 -24 2 -18 7 -15 17 38 123 65 131 75
139 22 20 -19 -45 -33 -84 -30 -87 3 -3 21 -2 40 1 57 11 109 69 141 159 15
42 29 76 31 75 1 -2 -19 -75 -46 -163z m-375 145 c3 -5 1 -10 -4 -10 -6 0 -11
5 -11 10 0 6 2 10 4 10 3 0 8 -4 11 -10z m-1565 -20 c0 -5 -5 -10 -11 -10 -5
0 -7 5 -4 10 3 6 8 10 11 10 2 0 4 -4 4 -10z m47 -50 c16 -10 16 -11 -4 -7
-12 3 -27 -1 -33 -8 -15 -18 -40 -8 -40 16 0 14 6 17 29 14 17 -2 38 -9 48
-15z m3689 -41 c8 -14 -10 -11 -32 6 -18 13 -18 14 4 8 12 -3 25 -9 28 -14z
m-1336 -74 c7 -9 8 -15 2 -15 -5 0 -12 7 -16 15 -3 8 -4 15 -2 15 2 0 9 -7 16
-15z m-903 -50 c11 -24 7 -65 -6 -65 -3 0 -13 4 -21 10 -9 5 -17 5 -20 -1 -4
-5 -17 5 -29 22 l-24 32 25 -6 c17 -5 28 -1 38 13 18 26 23 25 37 -5z m840 3
c-2 -7 7 -35 20 -61 13 -27 22 -52 19 -55 -4 -3 1 -16 9 -28 11 -17 11 -24 2
-27 -8 -3 -7 -10 7 -25 10 -11 16 -27 14 -34 -8 -24 -42 44 -43 88 -1 30 -9
52 -24 67 -22 24 -30 87 -10 87 6 0 9 -6 6 -12z m-1047 -59 c0 -11 -21 -11
-39 0 -9 6 -5 9 13 9 14 0 26 -4 26 -9z m102 -11 c-6 -6 -15 -8 -19 -4 -4 4
-1 11 7 16 19 12 27 3 12 -12z m1821 12 c7 -6 20 -16 29 -23 9 -7 20 -24 24
-39 5 -22 3 -28 -11 -28 -26 0 -74 56 -68 80 6 23 9 24 26 10z m-1726 -29 c16
-9 15 -10 -8 -11 -14 0 -34 7 -45 15 -18 14 -18 15 8 11 15 -3 35 -9 45 -15z
m88 9 c-3 -5 -10 -10 -16 -10 -5 0 -9 5 -9 10 0 6 7 10 16 10 8 0 12 -4 9 -10z
m665 -117 c10 -35 14 -63 10 -63 -13 0 -38 82 -43 140 -4 49 -4 51 5 20 5 -19
18 -63 28 -97z m37 105 c-3 -8 -6 -5 -6 6 -1 11 2 17 5 13 3 -3 4 -12 1 -19z
m-1847 -2 c0 -3 -4 -8 -10 -11 -5 -3 -10 -1 -10 4 0 6 5 11 10 11 6 0 10 -2
10 -4z m838 -21 c14 -14 -9 -13 -39 0 l-34 16 34 -6 c19 -3 37 -7 39 -10z
m484 -5 c12 -11 17 -20 11 -20 -5 0 -18 9 -28 20 -10 11 -15 20 -11 20 4 0 16
-9 28 -20z m2064 -56 c4 -21 1 -39 -8 -51 -14 -19 -48 -27 -48 -12 0 5 7 9 15
9 8 0 15 5 15 11 0 7 -11 9 -26 6 -20 -3 -28 1 -36 19 -6 13 -15 24 -20 24
-23 0 -3 27 30 41 33 14 39 14 54 1 10 -8 20 -30 24 -48z m-1519 29 c15 -35
25 -145 12 -137 -5 3 -9 0 -9 -7 0 -8 -4 -8 -15 1 -8 7 -15 17 -15 22 0 6 7 5
15 -2 12 -10 15 -10 15 3 0 8 -7 31 -15 50 -16 38 -20 97 -7 97 4 0 12 -12 19
-27z m-927 3 c0 -2 -7 -9 -15 -16 -13 -11 -14 -10 -9 4 5 14 24 23 24 12z
m1590 -39 c0 -16 -18 3 -23 25 -6 22 -5 22 8 4 8 -11 15 -24 15 -29z m-1110
24 c0 -5 -9 -7 -20 -4 -11 3 -20 7 -20 9 0 2 9 4 20 4 11 0 20 -4 20 -9z
m-1525 -49 c-3 -3 -11 0 -18 7 -9 10 -8 11 6 5 10 -3 15 -9 12 -12z m995 -2
c-8 -5 -19 -10 -25 -10 -5 0 -3 5 5 10 8 5 20 10 25 10 6 0 3 -5 -5 -10z m205
-30 c-3 -5 -13 -10 -21 -10 -8 0 -12 5 -9 10 3 6 13 10 21 10 8 0 12 -4 9 -10z
m1462 -32 c-3 -7 -5 -2 -5 12 0 14 2 19 5 13 2 -7 2 -19 0 -25z m-2567 12 c0
-13 -28 -25 -38 -16 -3 4 0 11 8 16 20 13 30 12 30 0z m2000 -15 c0 -12 -29
-3 -34 10 -4 13 -2 14 14 5 11 -6 20 -13 20 -15z m-2092 8 c-10 -2 -26 -2 -35
0 -10 3 -2 5 17 5 19 0 27 -2 18 -5z m1310 -13 c-11 -18 -28 -27 -28 -16 0 16
14 36 26 36 12 0 12 -4 2 -20z m825 -5 c-3 -9 -18 -22 -34 -30 -25 -14 -28
-14 -23 0 4 8 12 15 19 15 7 0 15 7 19 15 3 8 10 15 15 15 6 0 8 -7 4 -15z
m-2113 -2 c0 -10 -79 -76 -107 -90 -18 -8 -31 -18 -29 -22 2 -3 -2 -11 -9 -18
-10 -10 -16 -9 -27 4 -11 15 -11 16 5 10 9 -3 17 -2 17 3 0 6 -7 10 -15 10 -8
0 -15 5 -15 10 0 6 10 8 23 5 25 -7 96 35 117 69 12 18 11 19 -2 9 -18 -15
-56 -19 -80 -8 -11 4 -18 3 -18 -4 0 -6 4 -11 9 -11 5 0 12 -8 15 -17 6 -14 3
-14 -16 3 -13 12 -32 24 -43 29 -19 7 -19 7 -1 14 18 7 176 11 176 4z m25 -22
c-3 -11 -1 -22 5 -26 6 -3 10 3 10 17 l0 23 13 -25 c8 -14 19 -24 25 -22 7 1
12 -2 12 -7 0 -15 -54 -10 -72 7 -10 8 -18 12 -18 8 0 -4 -5 -4 -10 -1 -6 4
-1 14 12 25 29 24 31 24 23 1z m118 -51 c13 -1 77 -50 64 -50 -4 0 -25 9 -47
20 -45 23 -57 25 -42 8 5 -7 13 -27 17 -45 6 -31 33 -50 63 -45 20 4 14 -16
-9 -28 -33 -18 -15 -22 24 -5 22 9 37 11 37 5 0 -5 -5 -10 -11 -10 -5 0 -8 -4
-5 -9 3 -5 0 -14 -8 -20 -17 -14 -64 1 -72 24 -3 8 -11 12 -17 8 -5 -3 -7 -2
-4 3 3 6 -3 37 -14 69 -11 33 -18 67 -17 75 2 8 -5 23 -15 33 -10 10 -15 22
-11 28 3 6 17 -5 30 -25 14 -20 30 -36 37 -36z m1237 60 c0 -5 -2 -10 -4 -10
-3 0 -8 5 -11 10 -3 6 -1 10 4 10 6 0 11 -4 11 -10z m640 -9 c0 -10 -9 -21
-19 -24 -23 -6 -31 0 -31 22 0 14 2 14 10 1 8 -12 10 -12 16 3 8 23 24 22 24
-2z m-1862 -11 c-12 -19 -28 -27 -28 -14 0 6 30 33 38 34 1 0 -3 -9 -10 -20z
m1107 10 c3 -5 -1 -10 -9 -10 -8 0 -18 5 -21 10 -3 6 1 10 9 10 8 0 18 -4 21
-10z m213 -23 c10 -8 9 -13 -3 -28 -15 -16 -15 -18 2 -29 15 -10 14 -10 -11
-5 -16 3 -39 13 -50 21 -20 15 -20 15 7 10 15 -3 27 -3 27 -1 0 2 3 11 7 21 5
13 3 16 -10 11 -11 -4 -14 -2 -10 8 5 14 14 13 41 -8z m909 -19 c-3 -7 -5 -2
-5 12 0 14 2 19 5 13 2 -7 2 -19 0 -25z m-2725 -13 c26 -22 27 -25 9 -25 -12
0 -21 4 -21 9 0 5 -7 17 -16 25 -25 25 -5 19 28 -9z m108 4 c0 -6 -4 -7 -10
-4 -5 3 -10 11 -10 16 0 6 5 7 10 4 6 -3 10 -11 10 -16z m-33 -9 l26 -20 -32
0 c-24 0 -31 4 -31 20 0 11 3 20 6 20 3 0 17 -9 31 -20z m298 -29 c15 -12 15
-15 -6 -37 -23 -25 -49 -32 -49 -14 0 6 10 10 23 11 17 0 14 5 -18 19 -43 20
-55 19 -35 -5 15 -19 9 -28 -14 -19 -9 3 -16 15 -16 25 0 10 -5 19 -11 19 -5
0 -7 5 -3 12 5 8 9 9 11 1 2 -6 13 -9 23 -6 11 3 35 -2 54 -11 50 -24 56 -20
14 10 -21 15 -35 31 -32 35 2 5 13 1 24 -9 10 -9 26 -23 35 -31z m2648 29 c3
-11 1 -18 -4 -14 -5 3 -9 12 -9 20 0 20 7 17 13 -6z m-2887 -18 c-22 -5 -30 3
-21 18 5 8 11 7 22 -2 15 -12 14 -13 -1 -16z m-166 8 c12 -8 11 -10 -7 -10
-13 0 -23 5 -23 10 0 13 11 13 30 0z m1725 -10 c3 -6 -1 -7 -9 -4 -18 7 -21
14 -7 14 6 0 13 -4 16 -10z m2241 -19 c0 -11 -4 -17 -8 -15 -4 3 -8 12 -8 20
0 8 4 14 8 14 4 0 8 -9 8 -19z m-3771 -21 l20 -25 -22 19 c-13 11 -23 24 -23
29 0 6 1 8 3 6 1 -2 11 -15 22 -29z m4033 -18 c-4 -23 -41 -27 -58 -7 -11 13
-10 18 6 29 23 17 57 3 52 -22z m-3188 13 c0 -8 4 -15 10 -15 12 0 2 -29 -18
-52 -20 -23 -67 -25 -58 -2 3 9 6 22 6 30 0 8 10 19 23 24 20 8 20 9 2 10 -17
0 -17 2 -5 10 22 14 40 12 40 -5z m2900 11 c0 -3 -4 -8 -10 -11 -5 -3 -10 -1
-10 4 0 6 5 11 10 11 6 0 10 -2 10 -4z m-1974 -34 c-4 -3 -14 2 -24 12 -16 18
-16 18 6 6 13 -6 21 -14 18 -18z m-1786 3 c7 -8 8 -15 2 -15 -5 0 -15 7 -22
15 -7 8 -8 15 -2 15 5 0 15 -7 22 -15z m-100 -20 c47 -29 49 -35 15 -31 -13 1
-34 15 -45 29 -27 34 -20 34 30 2z m65 -23 c-3 -3 -18 7 -33 23 l-27 28 33
-23 c18 -12 31 -25 27 -28z m125 40 c0 -4 -9 -8 -20 -9 -11 -1 -20 2 -20 5 0
4 9 8 20 9 11 1 20 -2 20 -5z m29 -4 c-3 -29 3 -37 36 -49 19 -7 35 -16 35
-20 0 -9 -69 18 -83 31 -5 4 -6 17 -2 29 7 23 17 29 14 9z m89 -25 c19 -18 4
-16 -42 6 -23 11 -33 20 -25 23 14 5 43 -8 67 -29z m3576 31 c9 -3 16 -12 16
-19 0 -10 -5 -11 -25 -2 -38 18 -31 36 9 21z m-864 -42 c0 -7 -4 -10 -10 -7
-5 3 -10 16 -10 28 0 18 2 19 10 7 5 -8 10 -21 10 -28z m-2876 2 c5 -14 4 -15
-9 -4 -17 14 -19 20 -6 20 5 0 12 -7 15 -16z m226 -12 c-5 -2 -10 -8 -10 -14
0 -5 9 -6 20 -3 14 5 20 2 20 -9 0 -9 5 -16 10 -16 16 0 11 -17 -7 -24 -11 -5
-23 0 -31 11 -13 16 -13 16 -7 -7 6 -20 5 -23 -6 -12 -7 6 -18 12 -23 12 -16
-1 34 -40 50 -40 8 0 14 5 14 12 0 6 6 3 14 -8 13 -17 13 -20 -2 -26 -26 -10
-52 -9 -52 3 0 6 -7 17 -15 25 -9 9 -15 11 -15 4 0 -6 -5 -8 -12 -4 -9 6 -9 9
-1 11 13 5 6 34 -11 46 -7 5 -6 10 4 17 22 14 33 12 26 -5 -3 -8 -1 -15 5 -15
7 0 9 13 5 35 -7 34 -6 35 14 23 11 -7 16 -14 10 -16z m4390 18 c11 -8 8 -9
-14 -6 -16 3 -31 8 -34 11 -10 9 33 5 48 -5z m-3480 -15 c-7 -8 -17 -15 -23
-15 -6 0 -2 7 9 15 25 19 30 19 14 0z m2634 -4 c3 -5 -1 -11 -9 -14 -9 -4 -12
-1 -8 9 6 16 10 17 17 5z m-3674 -36 c0 -2 -7 -2 -15 1 -29 12 -15 -6 18 -21
17 -8 24 -13 14 -10 -10 3 -27 5 -38 5 -14 0 -19 7 -19 25 0 23 2 24 20 15 11
-6 20 -13 20 -15z m215 -25 c-3 -4 21 -17 53 -29 32 -12 59 -28 59 -36 0 -7
-6 -11 -14 -8 -20 8 -15 -7 9 -27 17 -13 25 -15 31 -7 6 8 7 6 4 -5 -3 -9 -1
-19 6 -22 8 -3 8 -5 1 -5 -19 -2 -89 60 -86 75 2 8 -9 16 -25 19 -47 10 -58
21 -64 61 l-7 38 19 -23 c10 -13 17 -27 14 -31z m112 14 c-9 -9 -28 6 -21 18
4 6 10 6 17 -1 6 -6 8 -13 4 -17z m683 23 c0 -2 -9 -14 -20 -27 -11 -13 -20
-19 -20 -15 0 5 7 17 17 27 15 17 23 22 23 15z m2534 -13 c3 -8 2 -12 -4 -9
-6 3 -10 10 -10 16 0 14 7 11 14 -7z m-3877 -16 c-3 -8 -6 -5 -6 6 -1 11 2 17
5 13 3 -3 4 -12 1 -19z m62 -23 c0 -5 -6 -1 -14 9 -8 10 -11 24 -8 29 6 10 21
-16 22 -38z m156 11 c11 -8 16 -15 10 -16 -5 0 -23 12 -40 26 -31 26 -6 18 30
-10z m878 27 c3 -5 -8 -24 -25 -43 -28 -34 -30 -25 -5 28 11 22 22 28 30 15z
m613 -56 c8 -15 19 -25 24 -22 6 3 7 -1 4 -10 -4 -8 -18 -22 -33 -30 -15 -8
-20 -14 -10 -15 8 0 20 5 27 12 13 13 19 0 47 -99 15 -55 16 -65 2 -91 -11
-23 -13 -57 -10 -148 2 -79 -1 -137 -10 -174 -13 -55 -13 -55 -9 52 5 125 -17
219 -69 284 -27 34 -47 48 -121 85 -10 5 -35 9 -55 10 l-38 1 35 8 c19 5 38 6
42 4 5 -3 8 2 8 12 0 9 25 55 56 101 55 84 56 85 76 66 11 -10 27 -30 34 -46z
m2889 53 c-3 -5 -11 -10 -16 -10 -6 0 -7 5 -4 10 3 6 11 10 16 10 6 0 7 -4 4
-10z m-3961 -25 c11 -8 15 -15 10 -15 -6 0 -19 7 -30 15 -10 8 -14 14 -9 14 6
0 19 -6 29 -14z m4078 -13 c-7 -2 -12 -11 -13 -20 0 -13 -2 -13 -8 3 -9 21 6
38 23 28 6 -4 5 -8 -2 -11z m-4516 -8 c18 -14 18 -14 -6 -3 -31 14 -36 19 -24
19 6 0 19 -7 30 -16z m120 5 c3 -6 20 -19 38 -30 17 -10 27 -19 22 -19 -10 0
-86 50 -86 56 0 9 19 3 26 -7z m474 -20 c0 -18 -33 -5 -36 13 -2 15 1 16 17 8
10 -6 19 -15 19 -21z m2360 11 c0 -11 -2 -20 -4 -20 -2 0 -6 9 -9 20 -3 11 -1
20 4 20 5 0 9 -9 9 -20z m-3115 1 c3 -5 1 -12 -4 -15 -5 -3 -11 1 -15 9 -6 16
9 21 19 6z m2695 -177 c-6 -99 -16 -185 -22 -191 -19 -23 -88 -13 -88 12 0 6
9 20 19 30 14 11 29 55 46 134 32 142 48 201 53 197 2 -2 -2 -84 -8 -182z
m1774 173 c-8 -21 -38 -35 -59 -26 -20 7 -20 8 1 8 11 1 29 8 40 16 24 18 25
18 18 2z m-4304 -30 c0 -4 -9 -3 -20 3 -11 6 -20 15 -20 20 0 6 9 5 20 -2 11
-7 20 -16 20 -21z m517 -10 c43 -46 97 -126 90 -133 -3 -3 -15 12 -28 33 -13
21 -25 40 -28 43 -42 40 -93 100 -85 100 6 0 29 -19 51 -43z m3271 -69 c8 -10
11 -18 5 -18 -5 0 -16 11 -23 25 -7 14 -19 25 -26 25 -6 0 -15 11 -18 25 -4
14 -11 25 -16 25 -6 0 -10 7 -10 16 0 8 16 -6 36 -33 20 -26 43 -56 52 -65z
m961 67 c0 -5 -4 -3 -9 5 -5 8 -9 22 -9 30 0 16 17 -16 18 -35z m-4089 25 c0
-5 -7 -10 -15 -10 -8 0 -15 5 -15 10 0 6 7 10 15 10 8 0 15 -4 15 -10z m3180
-75 c11 -14 6 -12 -17 5 -18 14 -35 33 -38 43 -4 9 -11 17 -16 17 -5 0 -9 6
-9 13 0 11 42 -30 80 -78z m490 81 c0 -2 -8 -10 -17 -17 -16 -13 -17 -12 -4 4
13 16 21 21 21 13z m-3937 -20 c-4 -17 -63 -16 -63 0 0 11 9 14 33 12 17 -2
31 -7 30 -12z m3437 -7 c0 -6 -4 -7 -10 -4 -5 3 -10 11 -10 16 0 6 5 7 10 4 6
-3 10 -11 10 -16z m-3150 0 c0 -4 9 -9 20 -12 11 -3 20 -11 20 -17 0 -7 -7
-10 -17 -7 -103 34 -116 43 -58 43 19 0 35 -3 35 -7z m3193 -3 c3 -7 0 -19 -6
-26 -9 -10 -9 -12 4 -7 9 3 16 0 16 -9 0 -8 -3 -14 -7 -14 -14 0 -30 25 -30
47 0 25 15 31 23 9z m47 -14 c0 -4 -4 -13 -8 -20 -6 -9 -12 -5 -20 13 -16 35
-15 37 8 25 11 -6 20 -14 20 -18z m-3155 8 c3 -5 2 -10 -4 -10 -5 0 -13 5 -16
10 -3 6 -2 10 4 10 5 0 13 -4 16 -10z m3205 -15 c-7 -9 -23 -21 -34 -27 -15
-7 -12 -1 9 20 31 30 48 35 25 7z m-4045 5 c3 -5 -3 -10 -14 -10 -11 0 -23 5
-26 10 -3 6 3 10 14 10 11 0 23 -4 26 -10z m4235 6 c0 -3 -4 -8 -10 -11 -5 -3
-10 -1 -10 4 0 6 5 11 10 11 6 0 10 -2 10 -4z m40 -17 c0 -5 -7 -9 -15 -9 -8
0 -15 7 -15 15 0 9 6 12 15 9 8 -4 15 -10 15 -15z m-3787 -42 c26 -22 45 -42
42 -45 -2 -2 -25 14 -51 37 -26 22 -51 41 -55 41 -5 0 -9 5 -9 11 0 13 14 5
73 -44z m3287 32 c0 -6 -4 -7 -10 -4 -5 3 -10 11 -10 16 0 6 5 7 10 4 6 -3 10
-11 10 -16z m368 -4 c-3 -3 -9 2 -12 12 -6 14 -5 15 5 6 7 -7 10 -15 7 -18z
m-4092 -12 c-7 -7 -26 7 -26 19 0 6 6 6 15 -2 9 -7 13 -15 11 -17z m774 17 c0
-5 -5 -10 -11 -10 -5 0 -7 5 -4 10 3 6 8 10 11 10 2 0 4 -4 4 -10z m418 -30
c-22 -30 -35 -41 -22 -17 9 16 36 47 41 47 2 0 -6 -13 -19 -30z m3009 14 c-3
-3 -12 -4 -19 -1 -8 3 -5 6 6 6 11 1 17 -2 13 -5z m54 -9 c3 2 5 -4 5 -14 0
-22 -32 -46 -41 -31 -3 6 1 10 9 10 9 0 16 7 16 15 0 8 -4 15 -10 15 -5 0 -10
5 -10 11 0 8 4 9 13 0 8 -6 16 -9 18 -6z m-4063 -103 c8 -91 -2 -132 -12 -49
-12 101 -14 159 -6 151 5 -5 13 -51 18 -102z m106 93 c-4 -8 -11 -12 -16 -9
-6 4 -5 10 3 15 19 12 19 11 13 -6z m406 -20 c19 -19 31 -35 28 -35 -3 0 -23
16 -44 35 -21 19 -33 35 -28 35 6 0 25 -16 44 -35z m3230 26 c0 -5 -7 -12 -16
-15 -14 -5 -15 -4 -4 9 14 17 20 19 20 6z m160 -12 c0 -10 -12 -11 -34 -3 -25
10 -19 22 9 16 14 -2 25 -8 25 -13z m394 -9 c-6 -6 -10 -3 -10 10 0 13 4 16
10 10 7 -7 7 -13 0 -20z m-4589 10 c3 -6 -1 -7 -9 -4 -18 7 -21 14 -7 14 6 0
13 -4 16 -10z m4435 -11 c0 -6 -4 -7 -10 -4 -5 3 -10 11 -10 16 0 6 5 7 10 4
6 -3 10 -11 10 -16z m-3890 -41 c0 -25 -15 -15 -33 22 l-15 29 24 -16 c13 -8
24 -24 24 -35z m570 48 c0 -7 -52 -116 -55 -116 -5 0 11 57 26 93 9 22 29 38
29 23z m-1039 -23 c13 -16 12 -17 -3 -4 -17 13 -22 21 -14 21 2 0 10 -8 17
-17z m293 3 c-6 -16 13 -32 50 -42 20 -5 27 -3 22 4 -3 6 -2 13 3 16 9 6 22
-44 14 -56 -2 -5 -13 -8 -23 -8 -10 0 -22 -5 -25 -10 -4 -7 -13 -6 -27 1 -15
8 -17 14 -9 22 8 8 14 8 22 0 12 -12 49 -6 49 9 0 5 -8 7 -18 4 -12 -4 -26 1
-37 14 -20 22 -44 28 -26 6 8 -9 9 -16 2 -21 -6 -3 -13 7 -17 22 -3 15 -7 33
-9 38 -1 6 5 12 16 12 11 1 16 -3 13 -11z m2713 7 c-4 -3 5 -16 18 -29 25 -23
25 -23 5 -34 -29 -15 -111 -40 -134 -40 -16 0 -17 2 -5 18 7 9 9 14 4 9 -4 -4
-15 -1 -24 7 -9 8 -25 16 -36 18 -11 2 20 15 70 30 99 28 111 31 102 21z
m-3047 -13 c0 -5 -7 -7 -15 -4 -8 4 -15 8 -15 10 0 2 7 4 15 4 8 0 15 -4 15
-10z m640 -42 c0 -15 -18 -8 -24 10 -3 9 -9 24 -12 32 -3 8 4 4 15 -10 11 -14
21 -28 21 -32z m3405 42 c3 -5 1 -10 -4 -10 -6 0 -11 5 -11 10 0 6 2 10 4 10
3 0 8 -4 11 -10z m145 0 c0 -5 -2 -10 -4 -10 -3 0 -8 5 -11 10 -3 6 -1 10 4
10 6 0 11 -4 11 -10z m-4243 -15 c0 -8 -4 -12 -9 -9 -5 3 -6 10 -3 15 9 13 12
11 12 -6z m267 -6 c9 1 9 -13 -1 -16 -5 -2 -18 4 -28 13 -11 8 -14 13 -7 9 6
-3 12 0 12 7 0 10 2 10 9 0 4 -8 11 -13 15 -13z m3936 9 c0 -11 -12 -10 -30 2
-12 7 -10 9 8 7 12 0 22 -5 22 -9z m-3671 -30 c24 -10 25 -11 6 -18 -14 -6
-16 -9 -5 -10 8 -2 18 -2 23 -1 16 2 6 -17 -12 -22 -28 -7 -39 4 -45 48 -3 22
-3 34 0 27 3 -7 18 -18 33 -24z m271 22 c8 -5 12 -11 10 -14 -3 -2 -14 2 -24
10 -22 15 -10 19 14 4z m-172 -12 c9 -9 12 -9 12 1 0 7 5 9 11 5 8 -5 6 -10
-6 -16 -12 -7 -22 -6 -33 6 -9 9 -12 16 -6 16 5 0 15 -5 22 -12z m3442 -18 c0
-6 -9 -5 -20 2 -11 7 -20 16 -20 21 0 4 9 3 20 -3 11 -6 20 -15 20 -20z
m-3484 -17 c2 -16 -3 -33 -11 -39 -12 -9 -10 -15 12 -38 24 -26 26 -26 39 -9
12 16 13 16 14 1 0 -33 -37 -31 -69 4 l-30 33 22 17 c17 13 19 20 10 29 -6 6
-9 18 -6 26 7 19 16 9 19 -24z m-327 18 c7 -5 11 -13 7 -19 -3 -6 0 -12 6 -15
7 -2 10 -7 7 -11 -3 -3 -14 -4 -23 0 -11 4 -15 13 -11 28 5 15 4 17 -3 7 -10
-14 -32 -7 -32 10 0 11 30 12 49 0z m105 -33 c-5 -16 -3 -20 10 -15 8 3 18 2
22 -4 3 -6 13 -7 23 -4 30 12 61 16 61 7 0 -5 -9 -19 -19 -31 l-19 -22 -51 26
c-49 26 -52 31 -42 73 1 2 6 0 11 -3 6 -4 8 -16 4 -27z m4296 -3 c0 -5 -5 -3
-10 5 -5 8 -10 20 -10 25 0 6 5 3 10 -5 5 -8 10 -19 10 -25z m-4685 15 c-3 -5
-11 -10 -16 -10 -6 0 -7 5 -4 10 3 6 11 10 16 10 6 0 7 -4 4 -10z m42 4 c-3
-3 -12 -4 -19 -1 -8 3 -5 6 6 6 11 1 17 -2 13 -5z m643 -26 c0 -6 -7 -5 -15 2
-8 7 -15 17 -15 22 0 6 7 5 15 -2 8 -7 15 -17 15 -22z m80 16 c0 -7 -6 -11
-14 -8 -9 3 -16 -2 -18 -13 -3 -14 -5 -12 -9 8 -5 23 -2 27 18 27 13 0 23 -7
23 -14z m60 -22 c0 -13 -3 -12 -15 4 -19 25 -19 40 0 24 8 -7 15 -20 15 -28z
m3105 28 c3 -6 -1 -7 -9 -4 -18 7 -21 14 -7 14 6 0 13 -4 16 -10z m210 -2 c25
-11 34 -28 15 -28 -5 0 -10 5 -10 10 0 6 -6 10 -14 10 -8 0 -18 5 -21 10 -8
13 -2 13 30 -2z m668 -24 c-7 -19 -10 -18 -16 5 -3 13 -1 18 9 14 7 -2 10 -11
7 -19z m-4553 -21 c0 -8 4 -11 10 -8 6 3 7 -1 4 -9 -8 -21 6 -20 21 1 7 9 14
12 17 7 3 -5 -5 -17 -19 -27 -24 -19 -24 -19 -36 12 -6 17 -15 31 -19 31 -4 0
-8 4 -8 10 0 5 7 7 15 4 8 -4 15 -13 15 -21z m555 -11 c-6 -7 -35 18 -35 31 0
5 9 2 20 -8 11 -10 18 -20 15 -23z m3075 16 c0 -6 -6 -5 -15 2 -8 7 -15 14
-15 16 0 2 7 1 15 -2 8 -4 15 -11 15 -16z m-3800 -9 c0 -14 -17 -10 -23 5 -4
10 -1 13 9 9 7 -3 14 -9 14 -14z m-103 -11 c-3 -8 -6 -5 -6 6 -1 11 2 17 5 13
3 -3 4 -12 1 -19z m563 -4 c0 -16 -16 -19 -25 -4 -8 13 4 32 16 25 5 -4 9 -13
9 -21z m170 9 c0 -7 -4 -13 -9 -13 -5 0 -11 6 -14 13 -3 8 1 14 9 14 8 0 14
-6 14 -14z m2776 -109 c146 -355 195 -477 190 -481 -7 -7 -20 20 -89 198 -36
90 -88 218 -116 284 -28 65 -51 121 -51 124 0 20 28 -33 66 -125z m-3441 106
c-3 -4 5 -10 18 -14 21 -5 19 -8 -23 -51 -50 -51 -66 -45 -44 18 8 21 12 43 9
47 -2 4 6 8 20 8 14 0 23 -4 20 -8z m340 0 c3 -5 1 -10 -4 -10 -6 0 -11 5 -11
10 0 6 2 10 4 10 3 0 8 -4 11 -10z m255 -6 c0 -8 -4 -12 -10 -9 -5 3 -10 10
-10 16 0 5 5 9 10 9 6 0 10 -7 10 -16z m2509 -5 c-14 -8 -29 -3 -29 11 0 4 9
6 21 3 15 -4 17 -8 8 -14z m1701 2 c0 -5 -7 -12 -16 -15 -14 -5 -15 -4 -4 9
14 17 20 19 20 6z m-4639 -18 c13 -16 12 -17 -3 -4 -17 13 -22 21 -14 21 2 0
10 -8 17 -17z m3760 0 c13 -16 12 -17 -3 -4 -10 7 -18 15 -18 17 0 8 8 3 21
-13z m-3252 -27 c-3 -3 -11 5 -18 17 -13 21 -12 21 5 5 10 -10 16 -20 13 -22z
m2425 19 c42 8 48 -5 9 -22 -36 -17 -53 -16 -53 2 0 8 -5 15 -11 15 -5 0 -7 5
-3 11 5 8 9 8 14 -1 5 -7 20 -9 44 -5z m-2820 -10 c11 -8 15 -15 10 -15 -6 0
-15 5 -22 12 -9 9 -15 8 -27 -8 -8 -10 -15 -14 -15 -8 0 11 20 34 30 34 3 0
14 -7 24 -15z m237 5 c6 0 8 -4 5 -9 -7 -10 18 -33 27 -26 4 3 5 2 2 -2 -3 -3
0 -12 6 -20 6 -7 7 -13 3 -13 -5 0 -20 14 -34 30 -29 35 -39 38 -37 10 1 -11
4 -20 8 -20 4 0 18 -15 30 -32 l22 -33 -36 34 c-26 25 -37 43 -37 64 0 22 4
28 16 23 9 -3 20 -6 25 -6z m2688 -69 c25 -75 24 -71 10 -71 -5 0 -7 5 -4 10
3 6 1 10 -4 10 -6 0 -11 9 -11 21 0 23 -18 60 -34 72 -8 5 -6 10 4 16 8 6 15
9 16 8 1 -1 11 -31 23 -66z m706 49 c-3 -5 -12 -10 -18 -10 -7 0 -6 4 3 10 19
12 23 12 15 0z m902 3 c-4 -3 1 -16 10 -27 18 -21 18 -21 -4 -2 -20 16 -23 36
-6 36 4 0 3 -3 0 -7z m-4646 -20 c13 -16 12 -17 -3 -4 -17 13 -22 21 -14 21 2
0 10 -8 17 -17z m149 7 c0 -5 -5 -10 -11 -10 -5 0 -7 5 -4 10 3 6 8 10 11 10
2 0 4 -4 4 -10z m290 -27 c0 -20 -16 -8 -23 17 -4 17 -3 19 9 9 8 -6 14 -18
14 -26z m-240 17 c0 -5 -2 -10 -4 -10 -3 0 -8 5 -11 10 -3 6 -1 10 4 10 6 0
11 -4 11 -10z m311 -17 c13 -16 12 -17 -3 -4 -17 13 -22 21 -14 21 2 0 10 -8
17 -17z m1793 1 c4 -10 1 -14 -6 -12 -15 5 -23 28 -10 28 5 0 13 -7 16 -16z
m1859 9 c-7 -2 -19 -2 -25 0 -7 3 -2 5 12 5 14 0 19 -2 13 -5z m-4103 -24 c0
-6 -4 -7 -10 -4 -5 3 -10 11 -10 16 0 6 5 7 10 4 6 -3 10 -11 10 -16z m3679
-18 c-1 -13 -2 -13 -6 2 -2 9 -9 15 -14 12 -5 -4 -9 1 -9 11 0 13 3 14 15 4 8
-7 14 -20 14 -29z m232 3 c8 -10 3 -10 -20 2 -17 9 -31 17 -31 19 0 8 40 -9
51 -21z m229 5 c12 -22 -1 -49 -24 -49 -6 0 -3 5 6 11 24 14 11 39 -21 40
l-26 1 25 8 c14 4 26 8 27 9 1 1 7 -8 13 -20z m-3966 -5 c4 -10 1 -14 -6 -12
-15 5 -23 28 -10 28 5 0 13 -7 16 -16z m3665 -46 c13 -16 36 -34 50 -39 19 -8
22 -12 12 -19 -9 -5 -19 -3 -28 6 -8 7 -22 19 -31 26 -25 18 -52 59 -51 78 0
12 3 11 12 -4 7 -10 23 -32 36 -48z m-1424 33 c10 -18 -13 -21 -46 -6 l-34 14
37 1 c20 0 39 -4 43 -9z m430 -281 c79 -200 93 -241 77 -225 -5 6 -22 44 -36
85 -15 41 -31 84 -36 95 -5 11 -28 67 -51 125 -23 58 -50 122 -60 142 -11 21
-19 45 -18 55 0 24 35 -53 124 -277z m1275 280 c0 -5 -8 -10 -17 -10 -15 0
-16 2 -3 10 19 12 20 12 20 0z m-461 -54 c-9 -8 -10 -7 -5 7 3 10 7 24 7 30 1
7 3 4 6 -7 3 -10 -1 -23 -8 -30z m-3314 24 c3 -6 -1 -7 -9 -4 -18 7 -21 14 -7
14 6 0 13 -4 16 -10z m1875 0 c0 -5 -5 -10 -11 -10 -5 0 -7 5 -4 10 3 6 8 10
11 10 2 0 4 -4 4 -10z m178 0 c6 0 12 -5 12 -11 0 -6 -6 -9 -14 -6 -8 3 -16 2
-18 -4 -4 -11 -68 -1 -68 11 0 4 12 5 28 3 22 -4 24 -2 12 7 -12 10 -10 11 10
6 14 -3 31 -6 38 -6z m1396 -19 c-2 -3 -12 3 -22 13 -16 17 -16 18 5 5 12 -7
20 -15 17 -18z m-3505 2 c17 -15 18 -21 7 -35 -12 -17 -14 -17 -32 4 l-19 21
30 -7 c22 -5 26 -4 15 4 -8 5 -23 10 -32 10 -10 0 -18 5 -18 10 0 16 26 12 49
-7z m1318 -55 c-2 -13 -4 -5 -4 17 -1 22 1 32 4 23 2 -10 2 -28 0 -40z m2106
-3 c-27 -49 -38 -59 -23 -21 12 33 33 66 42 66 3 0 -5 -20 -19 -45z m149 10
c2 3 5 -1 5 -7 0 -7 3 -24 7 -37 6 -16 5 -21 -3 -17 -6 4 -11 14 -11 23 0 9
-11 26 -25 39 -14 13 -25 26 -25 30 0 4 10 -2 23 -14 13 -12 26 -20 29 -17z
m278 25 c0 -5 -10 -15 -22 -21 -23 -12 -23 -12 -4 10 21 23 26 26 26 11z m320
-15 c0 -14 -2 -25 -4 -25 -2 0 -6 11 -8 25 -3 14 -1 25 3 25 5 0 9 -11 9 -25z
m-486 0 c-4 -8 -8 -15 -10 -15 -2 0 -4 7 -4 15 0 8 4 15 10 15 5 0 7 -7 4 -15z
m-3639 -5 c3 -5 1 -10 -4 -10 -6 0 -11 5 -11 10 0 6 2 10 4 10 3 0 8 -4 11
-10z m2680 0 c-3 -5 -16 -10 -28 -10 -18 0 -19 2 -7 10 20 13 43 13 35 0z
m1137 -12 c-7 -7 -12 -8 -12 -2 0 6 3 14 7 17 3 4 9 5 12 2 2 -3 -1 -11 -7
-17z m-1112 -30 c0 -6 -7 -7 -16 -4 -9 3 -18 6 -20 6 -3 0 -3 4 1 10 7 11 35
2 35 -12z m860 12 c0 -5 -5 -10 -11 -10 -5 0 -7 5 -4 10 3 6 8 10 11 10 2 0 4
-4 4 -10z m230 0 c0 -5 -2 -10 -4 -10 -3 0 -8 5 -11 10 -3 6 -1 10 4 10 6 0
11 -4 11 -10z m-173 -22 c-3 -8 -6 -5 -6 6 -1 11 2 17 5 13 3 -3 4 -12 1 -19z
m-147 -29 c0 -6 -4 -7 -10 -4 -5 3 -10 11 -10 16 0 6 5 7 10 4 6 -3 10 -11 10
-16z m-745 1 c3 -6 -5 -10 -19 -10 -14 0 -28 5 -31 10 -3 6 5 10 19 10 14 0
28 -4 31 -10z m645 0 c0 -5 -5 -10 -11 -10 -5 0 -7 5 -4 10 3 6 8 10 11 10 2
0 4 -4 4 -10z m40 -15 c0 -12 -19 -12 -23 0 -4 9 -1 12 9 8 7 -3 14 -7 14 -8z
m315 6 c3 -5 1 -12 -5 -16 -5 -3 -10 1 -10 9 0 18 6 21 15 7z m-3805 -11 c0
-13 -11 -13 -30 0 -12 8 -11 10 8 10 12 0 22 -4 22 -10z m1870 -5 c-7 -9 -15
-13 -17 -11 -7 7 7 26 19 26 6 0 6 -6 -2 -15z m210 -5 c13 -9 13 -10 0 -10 -8
0 -22 5 -30 10 -13 9 -13 10 0 10 8 0 22 -5 30 -10z m1377 -22 c-3 -7 -5 -2
-5 12 0 14 2 19 5 13 2 -7 2 -19 0 -25z m127 4 c-9 -16 -25 -39 -36 -53 l-19
-24 12 25 c15 31 49 80 55 80 3 0 -2 -13 -12 -28z m-2934 -24 c0 -23 59 -244
91 -345 11 -34 19 -69 17 -79 -2 -12 11 -22 50 -37 64 -24 61 -35 -4 -13 -63
21 -63 21 -80 -19 -8 -21 -21 -35 -32 -35 -28 0 -194 58 -237 84 -23 13 -38
29 -36 37 2 8 7 30 12 50 9 40 130 281 174 347 28 43 45 47 45 10z m2170 22
c0 -5 -9 -10 -19 -10 -11 0 -23 5 -26 10 -4 6 5 10 19 10 14 0 26 -4 26 -10z
m1132 -37 c11 1 16 7 14 14 -7 18 -3 16 18 -9 18 -20 18 -21 0 -15 -18 7 -18
6 -1 -7 9 -7 17 -16 17 -20 0 -13 -23 -5 -36 12 -11 15 -12 11 -8 -23 l4 -40
-13 36 c-7 19 -21 46 -30 60 -9 13 -17 28 -17 34 0 5 8 -2 17 -17 9 -14 25
-26 35 -25z m-2008 21 c5 -13 4 -14 -7 -6 -8 7 -17 9 -20 5 -4 -3 -7 -1 -7 5
0 18 27 14 34 -4z m2082 4 c3 -4 -1 -5 -10 -4 -8 1 -18 5 -22 8 -3 4 1 5 10 4
8 -1 18 -5 22 -8z m-1866 -30 c0 -5 -12 -13 -26 -18 -35 -14 -38 -13 -19 6 12
13 13 19 4 31 -11 12 -9 12 14 2 15 -7 27 -16 27 -21z m-333 16 c-3 -3 -12 -4
-19 -1 -8 3 -5 6 6 6 11 1 17 -2 13 -5z m64 -21 c-12 -20 -14 -14 -5 12 4 9 9
14 11 11 3 -2 0 -13 -6 -23z m280 -24 c-11 -12 -24 -19 -28 -15 -5 4 3 16 16
27 31 25 39 17 12 -12z m96 -26 c-3 -18 0 -23 17 -23 17 0 18 -2 6 -10 -20
-12 -39 6 -33 31 3 11 -2 29 -13 42 l-19 22 23 -20 c16 -13 22 -27 19 -42z
m573 47 c0 -5 -9 -10 -19 -10 -11 0 -23 5 -26 10 -4 6 5 10 19 10 14 0 26 -4
26 -10z m1200 -82 c0 -10 -4 -18 -9 -18 -5 0 -12 -12 -14 -27 -4 -27 -4 -27
-6 4 0 17 5 33 12 36 10 3 10 9 0 26 -18 29 -16 39 2 15 8 -10 15 -27 15 -36z
m-1176 33 c10 -16 -21 -20 -41 -6 -17 13 -16 14 9 15 15 0 29 -4 32 -9z m-807
-17 c-3 -3 -12 -4 -19 -1 -8 3 -5 6 6 6 11 1 17 -2 13 -5z m-270 -10 c-3 -3
-12 -4 -19 -1 -8 3 -5 6 6 6 11 1 17 -2 13 -5z m1886 -14 c3 -11 3 -20 1 -20
-2 0 -8 9 -14 20 -6 11 -7 20 -2 20 6 0 12 -9 15 -20z m57 16 c0 -2 -8 -10
-17 -17 -16 -13 -17 -12 -4 4 13 16 21 21 21 13z m80 -6 c0 -5 -2 -10 -4 -10
-3 0 -8 5 -11 10 -3 6 -1 10 4 10 6 0 11 -4 11 -10z m-930 -20 c0 -5 -9 -10
-19 -10 -11 0 -23 5 -26 10 -4 6 5 10 19 10 14 0 26 -4 26 -10z m4 -36 c22 -9
20 -24 -3 -24 -21 0 -34 13 -24 24 8 7 8 7 27 0z m36 -65 c0 -12 -37 -12 -44
0 -3 4 -3 11 0 14 8 7 44 -4 44 -14z m675 11 c3 -5 15 -10 26 -10 29 0 20 -33
-8 -35 -13 -1 -23 2 -23 6 0 5 -8 5 -17 2 -13 -5 -15 -2 -10 11 4 10 7 22 7
27 0 12 17 12 25 -1z m-95 -40 c0 -11 -4 -20 -10 -20 -5 0 -10 9 -10 20 0 11
5 20 10 20 6 0 10 -9 10 -20z m-2037 -51 c-16 -40 -42 -73 -52 -63 -2 2 11 28
30 58 18 31 34 54 36 52 1 -1 -5 -22 -14 -47z m1466 42 c7 -5 10 -14 7 -20 -8
-13 -46 3 -46 19 0 12 20 13 39 1z m539 -9 c2 -7 -2 -10 -12 -6 -22 8 -20 -12
2 -25 14 -9 12 -10 -15 -11 -31 0 -31 1 -20 30 12 30 36 37 45 12z m-788 -12
c0 -5 -2 -10 -4 -10 -3 0 -8 5 -11 10 -3 6 -1 10 4 10 6 0 11 -4 11 -10z m485
-32 c4 -18 12 -38 17 -45 6 -8 3 -15 -11 -22 -26 -14 -31 -14 -31 4 0 8 5 15
10 15 15 0 12 26 -5 40 -18 15 -110 -10 -142 -39 -12 -11 -23 -16 -25 -10 -4
11 -163 -35 -185 -53 -7 -5 -17 -7 -24 -3 -6 4 -15 2 -19 -4 -5 -9 -10 -8 -20
4 -10 13 -9 15 8 15 23 0 209 57 322 100 41 15 80 28 87 29 6 1 15 -14 18 -31z
m-1061 -61 c41 -58 84 -143 68 -135 -35 19 -85 38 -88 35 -2 -2 8 -10 24 -18
15 -8 33 -21 40 -29 22 -26 41 -80 35 -97 -4 -11 -3 -14 5 -9 13 8 14 4 16
-64 1 -25 5 -101 8 -170 7 -124 7 -124 -2 -20 -13 155 -28 226 -60 289 -35 69
-96 141 -119 141 -25 0 -55 36 -47 56 5 13 15 15 46 11 23 -3 38 -1 34 4 -3 5
0 9 5 9 6 0 11 4 11 9 0 5 -16 7 -35 4 -19 -3 -35 -1 -35 4 0 16 31 53 41 48
5 -3 29 -34 53 -68z m1662 62 c3 -6 -5 -23 -20 -37 -27 -28 -33 -21 -16 22 10
27 24 33 36 15z m-813 -10 c-8 -8 -16 -8 -30 0 -16 9 -14 10 12 11 21 0 26 -3
18 -11z m640 -4 c19 -14 45 -10 60 9 5 7 6 4 3 -7 -3 -10 -6 -23 -6 -28 0 -5
-10 -9 -23 -9 -13 0 -28 -5 -35 -12 -6 -6 -15 -8 -19 -3 -5 4 -2 10 5 12 14 5
16 33 2 33 -5 0 -10 -5 -10 -12 0 -9 -3 -9 -11 -1 -11 11 -5 33 9 33 4 0 15
-7 25 -15z m-263 1 c0 -2 -7 -9 -15 -16 -13 -11 -14 -10 -9 4 5 14 24 23 24
12z m380 -6 c0 -5 -4 -10 -9 -10 -6 0 -13 5 -16 10 -3 6 1 10 9 10 9 0 16 -4
16 -10z m-228 -22 c-7 -7 -12 -8 -12 -2 0 6 3 14 7 17 3 4 9 5 12 2 2 -3 -1
-11 -7 -17z m323 12 c3 -5 -1 -10 -10 -10 -9 0 -13 5 -10 10 3 6 8 10 10 10 2
0 7 -4 10 -10z m-420 -50 l16 -30 -46 0 c-52 0 -72 23 -40 46 30 22 53 16 70
-16z m114 14 c10 -9 -24 -34 -40 -29 -11 4 -19 2 -19 -4 0 -6 11 -11 25 -11
31 0 33 -16 3 -24 -42 -11 -53 -6 -63 27 -10 31 -9 33 15 35 14 1 27 7 28 12
3 9 39 5 51 -6z m208 -26 c-7 -4 -15 0 -18 10 -10 26 1 36 16 15 10 -13 10
-20 2 -25z m76 27 c-3 -9 -8 -14 -10 -11 -3 3 -2 9 2 15 9 16 15 13 8 -4z m57
11 c0 -3 -4 -8 -10 -11 -5 -3 -10 -1 -10 4 0 6 5 11 10 11 6 0 10 -2 10 -4z
m-165 -36 c3 -6 -1 -7 -9 -4 -18 7 -21 14 -7 14 6 0 13 -4 16 -10z m-575 -15
c-7 -8 -17 -15 -22 -15 -11 0 14 29 26 30 5 0 3 -7 -4 -15z m-1966 -28 c-10
-13 -29 -31 -43 -42 -16 -10 -10 -1 14 23 43 47 55 54 29 19z m2465 2 c16 -17
17 -25 8 -40 -14 -22 -30 -14 -22 11 3 10 1 21 -5 25 -10 6 -14 25 -5 25 2 0
13 -10 24 -21z m-669 -3 c0 -3 -4 -8 -10 -11 -5 -3 -10 -1 -10 4 0 6 5 11 10
11 6 0 10 -2 10 -4z m120 -16 c-6 -11 -12 -20 -14 -20 -2 0 -2 9 1 20 3 11 9
20 15 20 5 0 4 -9 -2 -20z m317 -6 c-3 -3 -12 -4 -19 -1 -8 3 -5 6 6 6 11 1
17 -2 13 -5z m-437 -27 c11 -5 9 -6 -4 -4 -11 1 -21 9 -23 17 -3 10 -2 11 4 4
4 -6 15 -14 23 -17z m640 -2 c0 -7 -23 -10 -67 -7 -97 6 -105 23 -10 20 47 -1
77 -7 77 -13z m-25 -25 c3 -5 1 -10 -4 -10 -6 0 -11 5 -11 10 0 6 2 10 4 10 3
0 8 -4 11 -10z m245 -6 c0 -8 -4 -12 -10 -9 -5 3 -10 10 -10 16 0 5 5 9 10 9
6 0 10 -7 10 -16z m-380 -19 c5 3 11 1 15 -4 3 -6 12 -8 20 -4 23 8 19 -33 -6
-58 -24 -24 -52 -22 -57 5 -3 16 0 18 22 12 33 -8 33 4 1 27 -22 16 -26 16
-31 3 -5 -12 -10 -13 -26 -5 -23 12 -20 31 6 35 10 1 21 5 24 9 3 3 10 -1 15
-10 4 -8 12 -13 17 -10z m164 -23 c13 -26 13 -31 -4 -57 -15 -23 -27 -30 -55
-31 -48 -1 -66 21 -34 44 13 9 29 18 34 18 6 1 20 5 33 9 18 6 20 10 11 21 -9
11 -15 12 -26 3 -15 -13 -28 -6 -18 10 12 21 44 11 59 -17z m-554 2 c0 -8 -4
-12 -10 -9 -5 3 -10 10 -10 16 0 5 5 9 10 9 6 0 10 -7 10 -16z m600 -9 c7 -8
8 -15 2 -15 -5 0 -15 7 -22 15 -7 8 -8 15 -2 15 5 0 15 -7 22 -15z m45 -5 c3
-5 2 -10 -4 -10 -5 0 -13 5 -16 10 -3 6 -2 10 4 10 5 0 13 -4 16 -10z m60 -1
c4 -6 -3 -13 -14 -16 -14 -4 -20 -11 -17 -22 3 -9 2 -22 -3 -30 -7 -11 -13
-11 -32 2 -21 15 -25 15 -40 1 -13 -12 -19 -12 -25 -3 -5 8 -3 10 6 4 10 -6
12 -4 7 8 -5 14 0 17 28 17 19 0 35 -4 35 -10 0 -5 5 -10 11 -10 8 0 8 4 0 14
-10 11 -8 19 6 35 20 24 29 26 38 10z m35 -19 c0 -5 -5 -10 -11 -10 -5 0 -7 5
-4 10 3 6 8 10 11 10 2 0 4 -4 4 -10z m-733 -22 c-3 -8 -6 -5 -6 6 -1 11 2 17
5 13 3 -3 4 -12 1 -19z m-1507 -8 c-6 -11 -13 -20 -16 -20 -2 0 0 9 6 20 6 11
13 20 16 20 2 0 0 -9 -6 -20z m1554 -49 c-2 -2 7 -12 19 -22 18 -15 19 -18 5
-19 -9 0 -20 5 -23 10 -4 6 -10 8 -15 5 -4 -3 -10 5 -14 18 -11 40 -7 48 12
30 10 -10 17 -20 16 -22z m-1574 -10 c-5 -11 -15 -23 -21 -27 -6 -3 -3 5 6 20
20 30 30 35 15 7z m717 -13 c-3 -8 -6 -5 -6 6 -1 11 2 17 5 13 3 -3 4 -12 1
-19z m908 -58 c3 -5 -3 -10 -14 -10 -11 0 -23 5 -26 10 -3 6 3 10 14 10 11 0
23 -4 26 -10z m15 -50 c0 -5 -4 -10 -9 -10 -6 0 -13 5 -16 10 -3 6 1 10 9 10
9 0 16 -4 16 -10z m-1403 -103 c12 -45 34 -134 48 -197 14 -63 32 -140 41
-170 36 -124 38 -152 16 -193 -11 -21 -23 -34 -26 -29 -3 5 -18 7 -33 5 l-28
-4 24 13 c25 13 50 73 28 65 -7 -2 -17 -15 -24 -28 -22 -45 -53 -54 -134 -40
-56 10 -69 16 -65 28 4 9 2 21 -2 27 -17 21 -32 105 -32 177 0 57 8 94 36 178
45 131 104 251 123 251 3 0 16 -37 28 -83z m1423 53 c0 -5 -4 -10 -9 -10 -6 0
-13 5 -16 10 -3 6 1 10 9 10 9 0 16 -4 16 -10z m13 -47 c-7 -2 -19 -2 -25 0
-7 3 -2 5 12 5 14 0 19 -2 13 -5z m337 -13 c0 -5 -5 -10 -11 -10 -5 0 -7 5 -4
10 3 6 8 10 11 10 2 0 4 -4 4 -10z m-1310 -146 c-16 -76 -22 -63 -8 15 7 35
14 59 16 53 2 -7 -2 -37 -8 -68z m920 -28 c0 -12 -5 -7 -19 24 -11 24 -11 24
3 6 9 -11 16 -24 16 -30z m-55 -6 c17 -32 20 -55 4 -28 -8 15 -13 16 -29 6
-22 -14 -35 -6 -26 18 4 10 12 14 22 10 12 -4 15 -2 10 9 -10 26 3 16 19 -15z
m-895 -75 c-16 -47 -23 -40 -8 8 6 20 13 35 16 33 2 -3 -1 -21 -8 -41z m1116
10 c11 -27 -2 -37 -14 -11 -7 16 -8 26 -1 26 5 0 12 -7 15 -15z m-1145 -82
c-12 -20 -14 -14 -5 12 4 9 9 14 11 11 3 -2 0 -13 -6 -23z m602 -8 c-8 -23
-30 -24 -49 -4 -15 17 -16 22 -5 29 19 11 61 -9 54 -25z m-728 -126 c5 -5 -5
-4 -23 2 -17 6 -32 13 -32 16 0 7 43 -8 55 -18z m22 -35 c-3 -3 -20 0 -38 5
l-34 11 33 -3 c18 -2 32 1 33 7 0 6 3 5 6 -2 3 -7 3 -15 0 -18z"/>
<path d="M3785 5980 c-3 -5 -1 -10 4 -10 6 0 11 5 11 10 0 6 -2 10 -4 10 -3 0
-8 -4 -11 -10z"/>
<path d="M1740 5251 c0 -5 4 -12 9 -15 5 -3 12 -22 16 -42 3 -20 9 -34 11 -31
8 7 -15 85 -26 92 -6 3 -10 2 -10 -4z"/>
<path d="M67 5181 c-4 -17 -3 -21 5 -13 5 5 8 16 6 23 -3 8 -7 3 -11 -10z"/>
<path d="M2606 4454 c-5 -14 -4 -15 9 -4 12 10 18 10 33 -1 15 -13 16 -12 3 4
-17 21 -37 22 -45 1z"/>
<path d="M2749 4301 c14 -27 27 -48 29 -46 5 5 -36 83 -47 89 -5 3 3 -16 18
-43z"/>
<path d="M2190 3397 c3 -4 32 -10 63 -15 32 -5 55 -6 50 -2 -9 9 -121 25 -113
17z"/>
<path d="M621 6474 c20 -21 24 -37 25 -90 1 -35 -1 -63 -4 -61 -4 2 -20 -10
-37 -26 -19 -18 -23 -27 -12 -24 12 5 17 1 17 -13 0 -17 2 -17 30 -3 19 9 41
12 61 8 29 -6 30 -6 20 13 -6 12 -11 31 -11 43 0 17 -5 20 -25 17 -14 -3 -25
-1 -25 4 0 5 11 13 25 18 14 5 25 14 25 19 0 16 51 71 61 66 5 -3 1 8 -9 24
-17 30 -19 31 -91 31 l-74 0 24 -26z"/>
<path d="M1227 6493 c-12 -12 -7 -22 8 -17 8 4 15 2 15 -4 0 -5 7 -13 15 -16
13 -5 12 -1 -2 19 -19 26 -26 29 -36 18z"/>
<path d="M593 6470 c14 -11 28 -20 32 -20 4 0 -4 9 -18 20 -14 11 -28 20 -32
20 -4 0 4 -9 18 -20z"/>
<path d="M895 6301 c-3 -5 -2 -12 3 -15 5 -3 9 1 9 9 0 17 -3 19 -12 6z"/>
<path d="M585 6209 c-4 -6 -5 -12 -2 -15 2 -3 7 2 10 11 7 17 1 20 -8 4z"/>
<path d="M820 6160 c0 -5 7 -10 16 -10 8 0 12 5 9 10 -3 6 -10 10 -16 10 -5 0
-9 -4 -9 -10z"/>
<path d="M1217 6013 c-4 -3 -7 -11 -7 -17 0 -6 5 -5 12 2 6 6 9 14 7 17 -3 3
-9 2 -12 -2z"/>
<path d="M793 5947 c-10 -22 -9 -25 5 -22 9 1 26 -5 36 -14 18 -15 18 -15 8 4
-6 11 -17 28 -24 38 -13 18 -15 18 -25 -6z"/>
</g>
</svg>
