<?xml version="1.0" standalone="no"?>
<!DOCTYPE svg PUBLIC "-//W3C//DTD SVG 20010904//EN"
 "http://www.w3.org/TR/2001/REC-SVG-20010904/DTD/svg10.dtd">
<svg version="1.0" xmlns="http://www.w3.org/2000/svg"
 width="500.000000pt" height="650.000000pt" viewBox="0 0 500.000000 650.000000"
 preserveAspectRatio="xMidYMid meet">

<g transform="translate(0.000000,650.000000) scale(0.100000,-0.100000)"
fill="#000000" stroke="none">
<path d="M469 6492 c9 -7 10 -12 2 -16 -11 -7 -11 -56 0 -56 4 0 10 -7 13 -16
3 -8 2 -12 -4 -9 -18 11 -10 -9 14 -37 13 -16 28 -28 35 -28 6 0 11 -4 11 -10
0 -15 -11 -12 -32 7 -29 26 -30 10 -2 -20 22 -24 28 -26 42 -15 14 10 15 10 5
-2 -7 -8 -13 -22 -13 -32 0 -10 -4 -18 -9 -18 -5 0 -7 9 -4 20 6 23 -4 25 -31
5 -19 -15 -14 -35 10 -35 16 0 19 -16 4 -25 -5 -3 -10 -2 -10 3 0 6 -6 12 -13
15 -8 3 -14 -1 -14 -9 0 -8 4 -14 9 -14 5 0 6 -5 3 -10 -4 -6 -13 -7 -24 -1
-13 7 -18 6 -18 -4 0 -8 5 -11 11 -8 7 4 8 3 1 -4 -30 -30 -227 -82 -260 -69
-9 3 -22 20 -30 38 -7 18 -27 52 -44 75 -17 24 -31 47 -31 53 0 5 -4 10 -8 10
-5 0 -9 6 -9 13 0 22 -66 152 -71 139 -2 -8 1 -19 7 -25 14 -14 15 -30 1 -22
-7 4 -10 -64 -10 -198 l0 -204 68 -8 c85 -9 125 -23 67 -24 -22 -1 -47 -6 -55
-12 -11 -7 -4 -9 25 -4 23 3 47 0 55 -6 12 -8 7 -9 -18 -5 -20 4 -31 2 -27 -4
3 -6 14 -10 23 -10 9 0 32 -9 50 -20 18 -11 39 -20 48 -20 8 0 12 -4 9 -10 -9
-15 31 -52 125 -115 109 -73 121 -85 115 -105 -3 -10 4 -28 16 -41 l21 -24
-17 28 c-23 39 -14 43 23 12 27 -22 34 -24 54 -14 63 33 68 34 68 18 0 -5 -4
-7 -10 -4 -5 3 -10 2 -10 -3 0 -9 -148 -85 -334 -172 -49 -22 -103 -51 -120
-63 -17 -12 -35 -22 -41 -22 -5 0 -38 -15 -72 -33 -61 -31 -63 -33 -63 -73 0
-34 4 -42 31 -57 48 -27 340 -237 379 -274 19 -18 44 -39 55 -47 19 -14 19
-14 5 4 -13 18 -12 18 10 -1 44 -37 118 -84 133 -84 8 0 17 -12 20 -26 3 -18
1 -22 -6 -15 -16 16 -31 13 -18 -3 9 -11 4 -20 -25 -45 -19 -17 -52 -42 -72
-55 -20 -13 -46 -33 -56 -45 -19 -21 -19 -21 2 -21 29 0 145 -30 157 -41 5 -6
4 -9 -3 -9 -15 0 -16 -26 -2 -35 16 -10 40 14 33 32 -5 14 -1 13 25 -3 18 -10
32 -22 32 -27 0 -4 -4 -6 -10 -2 -10 6 -50 -29 -50 -45 0 -15 -17 -12 -24 5
-3 8 -13 15 -23 15 -15 0 -16 2 -3 11 11 7 3 8 -27 4 -30 -5 -43 -3 -43 5 0 7
-7 10 -18 6 -14 -5 -14 -4 2 9 25 19 9 19 -24 0 -29 -17 -44 -19 -35 -6 3 5 0
13 -6 17 -8 4 -9 3 -5 -4 11 -18 -15 -14 -50 7 -30 18 -31 18 -55 0 -13 -10
-19 -19 -12 -19 6 0 15 4 18 10 3 5 29 -1 63 -16 63 -28 130 -55 149 -58 22
-4 24 -13 4 -19 -11 -3 -25 1 -32 9 -6 8 -21 14 -33 14 -11 0 -33 7 -48 14
-16 8 -28 10 -28 5 0 -5 10 -14 23 -19 12 -5 17 -9 10 -9 -7 -1 -42 15 -77 35
-62 34 -106 39 -106 13 0 -6 -4 -8 -9 -4 -5 3 -13 0 -17 -6 -5 -9 -1 -10 14
-7 12 4 26 0 33 -8 6 -8 17 -14 24 -14 7 0 16 -7 19 -16 3 -8 2 -12 -4 -9 -6
3 -10 4 -10 1 0 -3 14 -13 31 -21 17 -9 28 -19 25 -22 -3 -4 -33 8 -66 26 -34
17 -65 29 -70 26 -5 -3 -16 2 -25 12 -19 18 -56 20 -151 8 -38 -4 -54 -11 -54
-21 0 -8 4 -13 9 -10 5 3 14 -1 21 -9 7 -8 19 -15 26 -15 8 0 14 -4 14 -9 0
-4 -15 -7 -33 -6 l-34 3 0 -56 c0 -45 4 -61 20 -74 24 -21 38 -23 55 -6 6 6
14 10 16 7 3 -3 -17 -19 -44 -37 l-50 -33 0 -2089 0 -2090 2500 0 2500 0 0
3250 0 3250 -474 0 c-371 0 -475 -3 -479 -12 -3 -10 -7 -10 -18 -1 -11 9 -104
12 -347 13 -315 0 -332 -1 -332 -18 0 -10 5 -23 12 -30 13 -13 -5 -42 -26 -42
-14 0 -76 58 -76 71 0 17 30 9 31 -8 0 -14 2 -15 6 -3 3 8 11 18 17 22 6 4
-89 8 -211 8 -123 0 -223 -3 -223 -6 0 -3 14 -27 30 -53 l30 -46 -47 53 -48
52 -548 0 -549 0 109 -122 c59 -68 128 -148 152 -178 24 -30 60 -71 80 -90 20
-20 79 -87 131 -149 224 -268 397 -458 473 -518 31 -25 57 -52 57 -58 0 -15
-62 -119 -86 -146 -24 -27 -57 -23 -153 16 -106 44 -131 63 -244 191 -145 166
-295 333 -356 399 -31 33 -67 74 -80 90 -12 17 -44 53 -70 80 -26 28 -103 115
-169 193 l-122 144 27 36 c15 21 43 54 62 75 l35 37 -46 0 c-41 0 -47 -3 -50
-22 -2 -16 -9 -22 -23 -21 -10 1 -28 -3 -40 -8 -11 -6 -4 3 15 20 l35 30 -157
1 c-87 0 -158 -3 -158 -6 0 -6 102 -131 208 -254 58 -67 55 -65 -27 20 -50 52
-117 128 -148 168 l-58 72 -297 0 c-232 0 -298 -3 -298 -12 0 -9 -3 -9 -8 -3
-4 6 -25 12 -47 13 -27 2 -36 0 -26 -6z m46 -60 c-5 -5 -45 22 -45 31 0 4 11
0 24 -10 13 -10 23 -19 21 -21z m260 -44 c-4 -46 -11 -86 -17 -89 -7 -4 -6 -9
1 -13 6 -4 11 -17 10 -29 0 -21 -1 -21 -9 -2 -8 19 -9 18 -11 -5 -1 -14 -2
-33 -1 -42 3 -31 -7 -19 -18 23 -9 32 -8 44 2 56 10 12 10 17 1 20 -8 3 -9 12
-1 34 6 17 8 33 5 36 -3 3 0 12 8 20 8 8 15 28 15 44 0 16 5 29 11 29 8 0 10
-24 4 -82z m-195 37 c0 -5 -5 -3 -10 5 -5 8 -10 20 -10 25 0 6 5 3 10 -5 5 -8
10 -19 10 -25z m-36 -1 c3 -8 2 -12 -4 -9 -6 3 -10 10 -10 16 0 14 7 11 14 -7z
m296 1 c7 -9 10 -18 6 -22 -3 -3 -6 -1 -6 5 0 7 -7 12 -15 12 -8 0 -15 5 -15
10 0 15 16 12 30 -5z m626 2 c8 3 14 0 14 -7 0 -15 -33 -9 -36 8 -1 7 0 8 2 3
3 -6 12 -7 20 -4z m2291 7 c-3 -3 -12 -4 -19 -1 -8 3 -5 6 6 6 11 1 17 -2 13
-5z m61 -19 c-3 -3 -9 2 -12 12 -6 14 -5 15 5 6 7 -7 10 -15 7 -18z m142 15
c-18 -12 -30 -13 -30 -2 0 4 10 9 22 9 18 2 20 0 8 -7z m-240 -10 c0 -5 -2
-10 -4 -10 -3 0 -8 5 -11 10 -3 6 -1 10 4 10 6 0 11 -4 11 -10z m194 1 c6 -10
-63 -26 -71 -17 -3 3 0 8 8 10 8 2 21 7 29 9 23 8 28 8 34 -2z m-2474 -16 c7
-9 8 -15 2 -15 -5 0 -12 7 -16 15 -3 8 -4 15 -2 15 2 0 9 -7 16 -15z m2351
-12 c13 -16 12 -17 -3 -4 -10 7 -18 15 -18 17 0 8 8 3 21 -13z m174 7 c3 -5 1
-10 -4 -10 -6 0 -11 5 -11 10 0 6 2 10 4 10 3 0 8 -4 11 -10z m-3040 -75 c27
-33 42 -54 33 -47 -14 11 -17 10 -21 -10 -4 -21 -4 -21 -6 4 0 15 -8 33 -16
41 -8 8 -12 17 -10 19 3 3 -6 15 -20 28 -14 13 -25 28 -25 34 0 6 3 6 8 1 4
-6 30 -37 57 -70z m2840 55 c10 -11 13 -20 8 -20 -6 0 -14 7 -17 16 -3 8 -10
12 -16 9 -5 -3 -10 -1 -10 4 0 17 15 13 35 -9z m-2932 -5 c-3 -9 -8 -14 -10
-11 -3 3 -2 9 2 15 9 16 15 13 8 -4z m-263 -5 c0 -5 -2 -10 -4 -10 -3 0 -8 5
-11 10 -3 6 -1 10 4 10 6 0 11 -4 11 -10z m150 5 c0 -13 -25 -55 -32 -55 -6 0
-7 6 -4 13 3 6 9 20 12 30 6 15 24 25 24 12z m3105 -23 c-3 -3 -11 0 -18 7 -9
10 -8 11 6 5 10 -3 15 -9 12 -12z m195 -2 c8 -5 11 -10 5 -10 -5 0 -17 5 -25
10 -8 5 -10 10 -5 10 6 0 17 -5 25 -10z m-3450 -31 c0 -6 -4 -7 -10 -4 -5 3
-10 11 -10 16 0 6 5 7 10 4 6 -3 10 -11 10 -16z m3330 -20 c0 -5 -4 -9 -10 -9
-5 0 -10 7 -10 16 0 8 5 12 10 9 6 -3 10 -10 10 -16z m-3005 -28 c-3 -6 -11
-11 -17 -11 -6 0 -6 6 2 15 14 17 26 13 15 -4z m2232 -18 c-3 -10 -5 -4 -5 12
0 17 2 24 5 18 2 -7 2 -21 0 -30z m501 12 c-3 -3 -9 2 -12 12 -6 14 -5 15 5 6
7 -7 10 -15 7 -18z m307 5 c3 -5 1 -10 -4 -10 -6 0 -11 5 -11 10 0 6 2 10 4
10 3 0 8 -4 11 -10z m-3248 -22 c-3 -8 -6 -5 -6 6 -1 11 2 17 5 13 3 -3 4 -12
1 -19z m314 -14 l24 -26 -30 8 c-27 6 -29 5 -17 -8 9 -11 10 -18 2 -23 -9 -6
-15 18 -10 40 1 6 3 16 3 23 0 16 0 16 28 -14z m2084 6 c10 -11 16 -20 13 -20
-3 0 -13 9 -23 20 -10 11 -16 20 -13 20 3 0 13 -9 23 -20z m671 7 c4 -4 -2 -7
-14 -7 -12 0 -22 4 -22 9 0 10 26 9 36 -2z m54 9 c0 -3 -4 -8 -10 -11 -5 -3
-10 -1 -10 4 0 6 5 11 10 11 6 0 10 -2 10 -4z m65 -6 c3 -5 1 -10 -4 -10 -6 0
-11 5 -11 10 0 6 2 10 4 10 3 0 8 -4 11 -10z m-725 -45 c14 -19 14 -19 -2 -6
-10 7 -18 18 -18 24 0 6 1 8 3 6 1 -2 9 -13 17 -24z m710 19 c0 -2 -9 -8 -19
-13 -14 -8 -20 -7 -24 2 -3 7 5 13 19 13 13 1 24 0 24 -2z m-692 -89 c-3 -3
-20 13 -38 37 l-33 43 38 -37 c22 -21 36 -40 33 -43z m636 66 c3 -5 -1 -14 -9
-21 -8 -7 -15 -21 -15 -32 0 -10 -5 -16 -10 -13 -6 4 -8 11 -4 16 3 5 1 16 -6
24 -7 8 -7 15 -1 19 5 4 12 2 16 -4 4 -6 11 -7 17 -4 6 4 5 10 -3 15 -10 6
-10 9 -2 9 6 0 14 -4 17 -9z m-3147 -23 c-3 -8 -6 -5 -6 6 -1 11 2 17 5 13 3
-3 4 -12 1 -19z m3615 -5 c-6 -10 -19 -26 -30 -37 -20 -17 -20 -17 -15 3 3 11
9 18 14 15 5 -3 14 7 19 22 6 15 13 24 16 21 3 -3 1 -14 -4 -24z m-3560 -40
c7 -9 7 -13 0 -13 -13 0 -22 25 -21 53 2 19 2 19 6 -3 3 -14 10 -31 15 -37z
m2996 39 c5 -16 -7 -15 -38 3 l-25 14 29 -2 c16 -1 31 -8 34 -15z m-2659 -13
c-7 -4 -17 -5 -22 -2 -5 3 -3 9 4 14 7 4 17 5 22 2 5 -3 3 -9 -4 -14z m421
-24 c13 -14 21 -25 18 -25 -2 0 -15 11 -28 25 -13 14 -21 25 -18 25 2 0 15
-11 28 -25z m1810 21 c0 -2 -8 -10 -17 -17 -16 -13 -17 -12 -4 4 13 16 21 21
21 13z m400 -22 c0 -2 -7 -4 -15 -4 -8 0 -15 4 -15 10 0 5 7 7 15 4 8 -4 15
-8 15 -10z m65 5 c11 -17 -1 -21 -15 -4 -8 9 -8 15 -2 15 6 0 14 -5 17 -11z
m-2723 -21 c-7 -7 -12 -8 -12 -2 0 14 12 26 19 19 2 -3 -1 -11 -7 -17z m82 -4
c5 -14 4 -15 -9 -4 -17 14 -19 20 -6 20 5 0 12 -7 15 -16z m2516 1 c19 -22 8
-25 -12 -3 -10 10 -14 18 -9 18 5 0 14 -7 21 -15z m84 -1 c3 -8 2 -12 -4 -9
-6 3 -10 10 -10 16 0 14 7 11 14 -7z m376 7 c0 -12 -76 -61 -94 -61 -8 0 -27
-11 -41 -26 -14 -14 -30 -22 -35 -19 -6 3 -10 0 -10 -7 0 -8 -13 -15 -31 -16
-21 -2 -29 1 -26 10 2 7 13 11 23 9 18 -3 18 -2 -1 19 l-20 23 21 -7 c12 -3
31 -3 44 2 l23 9 -24 16 c-13 9 -19 17 -13 17 5 0 19 -7 31 -15 14 -10 24 -12
28 -5 3 5 18 10 33 11 24 0 25 1 9 12 -15 10 -11 13 30 23 27 7 49 12 51 13 1
0 2 -3 2 -8z m-3020 -5 c0 -3 -4 -8 -10 -11 -5 -3 -10 -1 -10 4 0 6 5 11 10
11 6 0 10 -2 10 -4z m-75 -34 c-6 -7 -34 11 -29 19 3 5 11 3 19 -4 7 -6 12
-13 10 -15z m526 1 c13 -16 12 -17 -3 -4 -10 7 -18 15 -18 17 0 8 8 3 21 -13z
m2164 7 c3 -5 -1 -10 -9 -10 -9 0 -16 5 -16 10 0 6 4 10 9 10 6 0 13 -4 16
-10z m-2453 -115 c18 -22 23 -32 11 -22 -12 10 -42 46 -68 80 -35 47 -38 52
-10 22 19 -22 50 -58 67 -80z m424 -17 c35 -43 58 -75 50 -72 -8 3 -22 17 -31
30 -8 13 -43 57 -77 97 -34 39 -49 61 -34 47 16 -14 57 -60 92 -102z m2194
118 c0 -2 -8 -10 -17 -17 -16 -13 -17 -12 -4 4 13 16 21 21 21 13z m55 -16 c3
-5 1 -10 -4 -10 -6 0 -11 5 -11 10 0 6 2 10 4 10 3 0 8 -4 11 -10z m-2294
-115 c12 -16 -2 -5 -31 25 -28 30 -56 64 -61 75 -12 24 64 -58 92 -100z m1679
95 c6 -11 8 -20 6 -20 -3 0 -10 9 -16 20 -6 11 -8 20 -6 20 3 0 10 -9 16 -20z
m565 -21 c-10 -15 -25 -10 -19 6 4 8 10 12 15 9 5 -3 7 -10 4 -15z m-2665 -43
c0 -14 -18 -5 -24 12 -3 9 -9 24 -12 32 -4 8 3 3 15 -12 11 -14 21 -29 21 -32z
m3240 39 c0 -2 -9 -19 -20 -37 -12 -20 -16 -36 -10 -43 5 -6 5 -17 -2 -25 -8
-13 -9 -12 -5 2 4 10 -1 19 -11 23 -12 4 -13 8 -4 14 9 5 5 14 -14 32 l-26 24
24 6 c28 8 68 11 68 4z m-91 -28 c13 5 13 3 4 -7 -13 -15 -43 -7 -43 12 0 9 3
9 11 1 6 -6 19 -9 28 -6z m-482 -13 c2 -6 -6 -10 -19 -9 -29 2 -36 23 -7 21
12 0 24 -6 26 -12z m-21 -24 c9 0 14 -11 14 -35 0 -19 -4 -35 -10 -35 -5 0
-10 9 -10 21 0 12 -4 17 -11 14 -6 -4 -8 -13 -5 -21 4 -9 -2 -14 -16 -14 -16
0 -18 3 -9 13 6 8 8 17 4 20 -11 12 -23 8 -23 -8 0 -8 -5 -15 -10 -15 -7 0 -7
6 0 20 6 11 7 20 3 20 -4 0 2 7 13 15 10 8 25 12 32 10 8 -3 20 -5 28 -5z
m524 -46 c0 -25 -4 -34 -16 -34 -11 0 -14 5 -10 17 4 9 1 20 -6 25 -9 5 -9 8
-1 8 7 0 9 9 5 23 -5 20 -4 21 11 8 10 -8 17 -28 17 -47z m-110 30 c0 -8 -19
-13 -24 -6 -3 5 1 9 9 9 8 0 15 -2 15 -3z m54 -26 c-2 -4 0 -9 6 -13 25 -15 5
-25 -52 -25 -64 1 -99 15 -97 41 0 10 2 11 6 2 2 -7 9 -13 14 -13 6 0 7 4 4
10 -4 6 1 7 11 3 13 -5 15 -3 9 7 -6 9 -4 11 5 5 10 -6 10 -11 -3 -20 -27 -20
-19 -27 8 -9 14 9 28 14 32 10 3 -3 1 -6 -6 -6 -7 0 -9 -5 -6 -11 9 -13 45 18
45 38 0 11 3 11 14 1 8 -7 12 -16 10 -20z m-701 8 c4 -10 0 -14 -12 -13 -11 1
-17 7 -14 14 7 17 20 17 26 -1z m146 10 c-2 -2 -15 -9 -29 -15 -24 -11 -24
-11 -6 3 16 13 49 24 35 12z m805 -10 c19 -8 37 -19 41 -25 5 -9 -66 21 -84
36 -10 7 12 2 43 -11z m-3263 -13 c13 -16 12 -17 -3 -4 -17 13 -22 21 -14 21
2 0 10 -8 17 -17z m412 -64 c32 -38 57 -69 54 -69 -3 0 -33 32 -67 70 -34 39
-58 70 -54 69 5 0 35 -32 67 -70z m2451 46 c13 -20 14 -25 3 -25 -8 0 -19 10
-26 23 l-11 22 6 -22 c6 -26 -11 -31 -20 -6 -6 15 8 32 25 33 4 0 14 -11 23
-25z m310 16 c3 -5 -5 -11 -19 -13 -28 -6 -35 8 -7 15 9 3 18 5 19 6 1 0 4 -3
7 -8z m-559 -21 c3 -5 -1 -10 -10 -10 -9 0 -13 5 -10 10 3 6 8 10 10 10 2 0 7
-4 10 -10z m498 3 c-7 -2 -19 -2 -25 0 -7 3 -2 5 12 5 14 0 19 -2 13 -5z
m-2949 -167 c50 -55 91 -104 91 -110 0 -6 4 -17 9 -25 5 -8 4 -16 -2 -20 -6
-3 -10 -14 -9 -22 3 -25 -80 -110 -99 -102 -13 5 -9 10 17 24 32 18 33 19 12
25 -13 3 -20 10 -17 16 3 5 11 4 19 -2 8 -7 19 -9 25 -5 6 4 0 15 -17 28 -15
12 -35 29 -44 39 -9 10 -18 15 -21 13 -2 -3 -15 6 -28 20 -13 14 -19 25 -13
25 6 0 16 -7 23 -15 7 -9 19 -14 26 -11 7 3 15 -2 18 -10 3 -8 13 -14 23 -14
17 1 17 1 1 11 -10 5 -18 17 -18 25 0 11 -6 13 -20 9 -11 -3 -20 -3 -21 2 0 4
-2 20 -4 36 l-4 27 27 -18 c47 -32 111 -62 106 -49 -2 7 -21 20 -42 30 -46 22
-135 87 -129 93 2 3 20 -4 38 -15 70 -42 73 -41 24 6 -27 26 -48 50 -46 53 1
2 -2 6 -8 8 -6 2 -11 -1 -11 -7 0 -13 -70 22 -82 41 -18 29 -6 28 27 -1 20
-17 40 -31 46 -31 11 0 -4 33 -30 65 -20 26 15 -11 133 -139z m2646 153 c0 -5
-16 -9 -36 -9 -19 0 -33 4 -30 8 7 12 66 13 66 1z m-2350 -24 c13 -14 21 -25
18 -25 -2 0 -15 11 -28 25 -13 14 -21 25 -18 25 2 0 15 -11 28 -25z m2675 -9
c11 -8 16 -15 10 -16 -5 0 -23 12 -40 26 -31 26 -6 18 30 -10z m-415 -9 c0 -1
-11 -3 -25 -3 -24 -2 -32 6 -19 19 6 5 44 -9 44 -16z m230 -24 c0 -9 -19 -1
-38 16 -33 28 -26 35 8 9 17 -12 30 -23 30 -25z m70 43 c0 -3 -4 -8 -10 -11
-5 -3 -10 -1 -10 4 0 6 5 11 10 11 6 0 10 -2 10 -4z m89 -46 c25 -10 68 -80
50 -80 -5 0 -9 4 -9 8 0 4 -8 8 -17 9 -10 1 -45 11 -78 23 -47 16 -52 20 -24
16 26 -3 36 0 36 10 0 8 -3 12 -5 9 -7 -6 -30 38 -25 47 2 4 13 -1 25 -11 11
-11 32 -25 47 -31z m-508 23 c13 -16 12 -17 -3 -4 -10 7 -18 15 -18 17 0 8 8
3 21 -13z m439 -19 c0 -2 -7 -4 -15 -4 -8 0 -15 4 -15 10 0 5 7 7 15 4 8 -4
15 -8 15 -10z m-324 -22 c-17 -16 -18 -16 -5 5 7 12 15 20 18 17 3 -2 -3 -12
-13 -22z m84 -9 c0 -3 -6 -3 -12 0 -7 2 -18 -5 -25 -17 l-12 -21 -1 22 c0 12
6 23 13 26 13 4 37 -2 37 -10z m-2290 -48 c19 -19 32 -35 29 -35 -3 0 -20 16
-39 35 -19 19 -32 35 -29 35 3 0 20 -16 39 -35z m2238 5 c14 -18 19 -31 12
-35 -11 -7 -44 14 -36 23 3 2 1 13 -5 23 -15 29 3 22 29 -11z m97 5 c17 -14
25 -25 18 -25 -6 0 -15 5 -18 10 -3 6 -11 10 -16 10 -6 0 -1 -12 10 -26 12
-15 21 -33 21 -40 0 -8 5 -14 11 -14 5 0 7 -4 4 -10 -7 -12 -26 -14 -23 -2 4
12 -24 56 -49 75 -12 10 -23 23 -23 29 0 6 6 5 15 -2 9 -7 19 -10 22 -6 4 4 1
11 -7 16 -8 6 -10 10 -5 9 6 0 24 -11 40 -24z m-135 -5 c0 -5 -2 -10 -4 -10
-3 0 -8 5 -11 10 -3 6 -1 10 4 10 6 0 11 -4 11 -10z m420 -16 c0 -2 -7 -4 -15
-4 -8 0 -15 4 -15 10 0 5 7 7 15 4 8 -4 15 -8 15 -10z m-2735 -14 c10 -11 16
-20 13 -20 -3 0 -13 9 -23 20 -10 11 -16 20 -13 20 3 0 13 -9 23 -20z m2409
-41 l19 -32 -31 23 c-17 13 -29 27 -26 32 9 15 19 9 38 -23z m-3139 -6 c40 7
48 -8 10 -17 -24 -6 -25 -8 -11 -27 8 -12 28 -30 45 -40 18 -11 36 -30 41 -44
5 -14 13 -25 17 -24 20 3 27 -2 13 -11 -17 -11 -5 -40 20 -48 7 -3 10 0 6 7
-4 6 -5 11 -2 11 6 0 48 -78 111 -207 20 -40 40 -73 46 -73 16 0 89 -79 79
-85 -6 -4 -10 -14 -10 -23 0 -10 -9 -23 -21 -30 -12 -8 -19 -21 -17 -35 3 -27
-10 -50 -24 -41 -6 4 -17 -1 -25 -11 -7 -11 -13 -13 -13 -7 0 7 -4 12 -10 12
-5 0 -2 -16 7 -35 23 -49 9 -63 -47 -46 -22 6 -40 15 -40 20 0 4 -23 18 -50
31 -28 13 -47 27 -42 32 8 8 86 -25 97 -41 3 -6 17 -6 36 1 25 9 28 13 17 23
-15 15 -132 37 -152 29 -8 -3 -17 -1 -21 5 -3 6 -30 11 -59 11 -65 0 -224 29
-379 69 -65 17 -134 31 -153 31 -19 0 -34 4 -34 9 0 5 15 32 33 61 106 171
156 237 257 339 60 61 110 116 110 121 0 20 58 40 84 30 28 -10 33 -2 14 20
-7 8 -3 6 9 -4 17 -14 32 -17 58 -13z m3258 -41 c2 -15 6 -34 9 -42 3 -8 3
-11 0 -7 -2 4 -10 3 -16 -2 -15 -13 -62 31 -51 48 3 6 10 9 14 7 9 -6 7 31 -2
40 -4 4 -7 12 -7 17 0 21 48 -36 53 -61z m-2332 21 c13 -16 12 -17 -3 -4 -17
13 -22 21 -14 21 2 0 10 -8 17 -17z m119 -88 c13 -14 21 -25 18 -25 -2 0 -15
11 -28 25 -13 14 -21 25 -18 25 2 0 15 -11 28 -25z m1705 5 c3 -5 -1 -10 -9
-10 -9 0 -16 5 -16 10 0 6 4 10 9 10 6 0 13 -4 16 -10z m135 -33 c0 -16 -18 3
-23 25 -6 22 -5 22 8 4 8 -11 15 -24 15 -29z m-50 13 c0 -5 -2 -10 -4 -10 -3
0 -8 5 -11 10 -3 6 -1 10 4 10 6 0 11 -4 11 -10z m-3255 -10 c3 -5 -3 -10 -15
-10 -12 0 -18 5 -15 10 3 6 10 10 15 10 5 0 12 -4 15 -10z m3225 -7 c0 -5 -5
-15 -11 -23 -9 -12 -10 -12 -5 4 5 13 2 17 -9 13 -8 -4 -17 -2 -20 3 -4 6 5
10 19 10 14 0 26 -3 26 -7z m-3252 -29 l27 -27 -32 22 c-21 14 -33 18 -33 10
0 -7 -3 -10 -6 -6 -6 6 3 27 12 27 3 0 17 -12 32 -26z m3317 6 c-3 -5 -11 -10
-16 -10 -6 0 -7 5 -4 10 3 6 11 10 16 10 6 0 7 -4 4 -10z m-2390 -80 c3 -5 2
-10 -4 -10 -5 0 -13 5 -16 10 -3 6 -2 10 4 10 5 0 13 -4 16 -10z m1945 -20 c0
-5 -4 -10 -10 -10 -5 0 -10 5 -10 10 0 6 5 10 10 10 6 0 10 -4 10 -10z m-2886
-36 c22 -9 20 -20 -4 -20 -11 0 -20 6 -20 13 0 15 2 15 24 7z m2924 -44 c-9
-13 -16 -16 -23 -9 -7 7 -5 13 5 19 24 15 31 11 18 -10z m25 -69 c3 -14 11
-18 26 -14 12 3 21 1 21 -5 0 -20 -35 -17 -52 4 -20 25 -22 34 -9 34 5 0 11
-9 14 -19z m-332 -173 c13 -18 41 -55 62 -81 22 -27 36 -52 31 -56 -5 -4 -25
-19 -45 -33 l-36 -27 -65 67 c-74 76 -84 94 -60 115 18 16 73 46 84 47 4 0 17
-15 29 -32z m-2161 -104 c14 -10 31 -24 37 -32 7 -8 21 -16 30 -17 21 -2 81
-31 104 -51 9 -8 33 -23 55 -34 l39 -21 -35 7 c-19 3 -45 12 -57 20 -12 8 -31
14 -43 14 -11 0 -20 7 -20 15 0 15 -5 17 -45 19 -11 1 -19 6 -18 12 1 6 -8 10
-20 10 -15 -1 -23 6 -25 22 -2 12 -9 22 -17 22 -16 0 -28 -40 -12 -41 8 0 7
-3 -1 -6 -9 -3 -4 -10 13 -19 15 -8 31 -11 36 -8 5 3 6 -1 3 -9 -6 -17 42 -41
52 -26 8 13 53 3 75 -17 9 -8 19 -11 22 -7 4 3 7 1 7 -6 0 -11 16 -19 68 -35
18 -6 22 -4 22 15 0 33 6 20 14 -28 l6 -43 -52 21 c-29 11 -63 30 -75 41 -19
18 -23 19 -23 5 0 -9 5 -19 10 -22 6 -4 8 -10 6 -14 -3 -4 13 -29 34 -55 46
-56 52 -71 13 -34 -16 14 -34 23 -40 21 -7 -3 -16 2 -19 11 -3 9 -11 16 -17
16 -6 0 2 -13 17 -29 15 -16 24 -31 19 -34 -13 -8 -55 12 -48 23 3 5 0 7 -8 4
-7 -2 -25 5 -38 16 -13 12 -17 20 -9 17 13 -3 48 20 39 27 -35 24 -59 34 -59
26 0 -6 7 -13 15 -16 16 -7 21 -24 6 -24 -22 0 -105 43 -90 47 9 2 21 14 26
26 9 19 7 22 -14 23 -18 2 -21 -1 -13 -11 8 -10 2 -14 -29 -17 -22 -2 -37 0
-35 3 2 4 -3 10 -12 13 -24 9 -31 7 -14 -5 12 -9 12 -10 -3 -5 -10 3 -26 6
-35 6 -15 0 -15 2 -2 10 10 6 11 10 3 10 -9 0 -6 10 7 32 10 17 16 36 13 41
-3 6 -1 7 5 3 7 -4 28 -4 47 0 31 6 34 8 19 19 -12 8 -15 18 -9 31 4 10 7 22
7 27 -3 13 43 7 68 -9z m-180 -148 c0 -3 -4 -8 -10 -11 -5 -3 -10 -1 -10 4 0
6 5 11 10 11 6 0 10 -2 10 -4z m-30 -46 c0 -5 -9 -6 -20 -3 -11 3 -20 9 -20
13 0 5 9 6 20 3 11 -3 20 -9 20 -13z m160 0 c0 -5 -2 -10 -4 -10 -3 0 -8 5
-11 10 -3 6 -1 10 4 10 6 0 11 -4 11 -10z m-9 -43 c16 3 30 -1 38 -11 9 -11
10 -16 2 -16 -6 0 -11 5 -11 10 0 6 -10 10 -21 10 -17 0 -19 -3 -10 -14 9 -11
4 -10 -23 2 -20 9 -38 22 -41 30 -4 12 -1 12 18 -1 13 -8 34 -13 48 -10z
m-138 -20 c20 -7 37 -16 37 -21 0 -4 -10 -5 -22 -2 -46 14 -104 17 -128 7
l-25 -10 27 0 c15 -1 30 -6 33 -11 4 -7 -7 -9 -31 -7 -46 5 -52 18 -22 47 24
23 49 22 131 -3z m470 0 c15 -7 27 -17 27 -24 0 -6 3 -20 7 -30 4 -11 -3 -7
-16 10 -12 15 -27 27 -33 27 -6 0 -4 -8 5 -18 10 -10 17 -23 17 -28 0 -4 -8 3
-17 16 -10 14 -17 28 -15 33 1 4 -11 10 -28 13 -16 4 -30 10 -30 14 0 9 46 2
83 -13z m1513 -4 c-4 -29 -60 -43 -70 -18 -4 12 0 14 19 9 18 -4 27 -1 31 10
8 21 23 21 20 -1z m54 -9 c0 -8 -5 -12 -10 -9 -6 4 -8 11 -5 16 9 14 15 11 15
-7z m-141 -7 c9 -11 0 -13 -47 -12 -71 3 -77 6 -32 15 55 11 67 11 79 -3z
m236 3 c3 -5 -1 -10 -9 -10 -9 0 -16 5 -16 10 0 6 4 10 9 10 6 0 13 -4 16 -10z
m-2005 -16 c16 -10 18 -13 5 -8 -11 4 -28 7 -37 8 -9 0 -14 4 -12 8 7 11 15
10 44 -8z m-137 -4 c7 0 8 -3 1 -10 -12 -12 -56 -1 -48 12 3 5 13 7 21 4 8 -3
20 -6 26 -6z m72 0 c3 -5 1 -10 -4 -10 -6 0 -11 5 -11 10 0 6 2 10 4 10 3 0 8
-4 11 -10z m-25 -20 c8 -5 11 -10 5 -10 -5 0 -17 5 -25 10 -8 5 -10 10 -5 10
6 0 17 -5 25 -10z m150 -32 c0 -5 -11 -1 -25 8 -14 9 -25 18 -25 20 0 2 11 -2
25 -8 14 -6 25 -15 25 -20z m90 12 c0 -5 -2 -10 -4 -10 -3 0 -8 5 -11 10 -3 6
-1 10 4 10 6 0 11 -4 11 -10z m-472 -17 c-10 -2 -26 -2 -35 0 -10 3 -2 5 17 5
19 0 27 -2 18 -5z m157 -13 c53 -11 104 -24 113 -30 25 -14 10 -12 -81 9 -45
11 -102 24 -127 29 -25 5 -35 10 -24 11 12 0 65 -8 119 -19z m446 -7 c13 -16
12 -17 -3 -4 -17 13 -22 21 -14 21 2 0 10 -8 17 -17z m1432 3 c3 -7 -5 -12
-21 -11 -14 0 -27 5 -29 10 -4 14 45 15 50 1z m32 5 c3 -5 1 -12 -5 -16 -5 -3
-10 1 -10 9 0 18 6 21 15 7z m91 -18 c-8 -8 -36 5 -36 17 0 7 6 7 21 0 11 -7
18 -14 15 -17z m55 -1 c5 -48 5 -51 -18 -55 -13 -2 -23 0 -23 4 0 5 7 9 16 9
14 0 14 2 0 22 -23 33 -21 51 4 38 11 -6 20 -14 21 -18z m-106 7 c11 -17 -1
-21 -15 -4 -8 9 -8 15 -2 15 6 0 14 -5 17 -11z m163 -30 c-3 -20 -5 -19 -9 9
-3 20 -2 29 4 23 5 -5 7 -19 5 -32z m-223 1 c16 -6 14 -8 -12 -7 -18 0 -33 4
-33 9 0 10 18 9 45 -2z m104 -21 c-27 -17 -41 -9 -18 10 14 11 26 15 28 9 2
-6 -3 -14 -10 -19z m-1961 -56 c-10 -2 -18 -9 -18 -15 0 -6 -3 -9 -6 -5 -10
10 6 27 24 26 15 -1 15 -2 0 -6z m-438 -13 c0 -5 -2 -10 -4 -10 -3 0 -8 5 -11
10 -3 6 -1 10 4 10 6 0 11 -4 11 -10z m2775 -17 c1 -12 -3 -19 -10 -17 -13 5
-15 46 -1 41 5 -2 10 -13 11 -24z m-2470 -3 c3 -5 2 -10 -4 -10 -5 0 -13 5
-16 10 -3 6 -2 10 4 10 5 0 13 -4 16 -10z m-105 -29 c0 -5 -9 -7 -20 -4 -11 3
-20 7 -20 9 0 2 9 4 20 4 11 0 20 -4 20 -9z m2600 -36 c0 -25 -18 -25 -22 -1
-4 17 -1 23 9 19 7 -3 13 -11 13 -18z m-1897 8 c-7 -2 -19 -2 -25 0 -7 3 -2 5
12 5 14 0 19 -2 13 -5z m-46 -9 c-3 -3 -12 -4 -19 -1 -8 3 -5 6 6 6 11 1 17
-2 13 -5z m138 -45 c10 -57 1 -57 -17 0 -12 39 -13 48 -3 44 8 -2 17 -23 20
-44z m-176 36 c-7 -7 -552 -115 -557 -110 -6 5 60 22 159 40 46 8 147 28 224
44 136 29 183 36 174 26z m1139 -34 c-6 -11 -18 -17 -26 -13 -12 4 -12 8 4 19
26 19 36 16 22 -6z m-1178 -11 c0 -5 -10 -9 -22 -9 -13 1 -43 -1 -68 -4 l-45
-6 50 13 c62 17 85 19 85 6z m314 -45 c2 -15 10 -32 19 -37 10 -5 17 -16 17
-23 0 -8 5 -15 10 -15 6 0 10 -5 10 -11 0 -6 -5 -7 -12 -2 -7 4 -22 6 -33 5
-19 -2 -19 -2 -2 8 17 11 17 12 -2 28 -12 10 -22 33 -24 55 -3 24 -1 35 5 29
5 -5 10 -22 12 -37z m-444 5 c40 -22 33 -27 -8 -7 -30 15 -77 14 -97 -3 -7 -6
-21 -7 -31 -3 -15 5 -9 10 26 19 61 16 70 16 110 -6z m1922 -2 c-7 -7 -12 -8
-12 -2 0 6 3 14 7 17 3 4 9 5 12 2 2 -3 -1 -11 -7 -17z m-2692 -2 c0 -2 -7 -7
-16 -10 -8 -3 -12 -2 -9 4 6 10 25 14 25 6z m1790 -6 c0 -5 -4 -10 -10 -10 -5
0 -10 5 -10 10 0 6 5 10 10 10 6 0 10 -4 10 -10z m-1075 -10 c3 -6 -1 -7 -9
-4 -18 7 -21 14 -7 14 6 0 13 -4 16 -10z m425 -46 c22 -102 25 -121 34 -184 4
-38 2 -34 -13 20 -9 36 -20 72 -23 80 -8 20 -20 145 -13 138 3 -2 10 -27 15
-54z m612 12 c10 -19 8 -18 -16 3 -14 14 -26 29 -26 34 0 13 29 -12 42 -37z
m-62 4 c23 -32 13 -42 -12 -12 -23 26 -30 42 -19 42 5 0 19 -13 31 -30z m-40
-44 c0 -5 -11 1 -25 14 -14 13 -25 31 -25 39 1 11 9 6 25 -14 14 -16 25 -34
25 -39z m0 44 c6 -11 8 -20 6 -20 -3 0 -10 9 -16 20 -6 11 -8 20 -6 20 3 0 10
-9 16 -20z m-365 0 c3 -5 1 -10 -4 -10 -6 0 -11 5 -11 10 0 6 2 10 4 10 3 0 8
-4 11 -10z m231 -17 c1 -10 4 -26 9 -35 4 -10 3 -18 -3 -18 -9 0 -22 32 -22
58 0 19 16 14 16 -5z m1123 -43 c-18 -33 -34 -58 -37 -55 -3 2 1 11 7 19 7 8
10 24 6 35 -4 13 1 27 14 40 38 38 42 21 10 -39z m-1071 11 c-3 -20 -5 -21
-22 -8 -17 12 -18 16 -5 30 17 19 32 7 27 -22z m-121 -14 c0 -8 -9 -12 -21
-11 -32 4 -33 5 -6 14 14 4 25 8 26 9 0 1 1 -5 1 -12z m45 -9 c-6 -6 -8 -18
-5 -27 5 -15 4 -14 -12 1 -15 14 -15 18 -4 31 8 8 18 13 22 10 5 -3 4 -10 -1
-15z m423 12 c-11 -5 -31 -8 -45 -8 l-25 0 25 8 c14 4 34 8 45 8 l20 1 -20 -9z
m-525 -10 c0 -5 -4 -10 -9 -10 -5 0 -18 -3 -28 -6 -16 -5 -16 -4 1 10 23 18
36 20 36 6z m1364 -57 c-42 -80 -40 -77 -48 -65 -5 9 69 132 80 132 2 0 -12
-30 -32 -67z m-1515 24 c12 -15 12 -17 -3 -11 -9 3 -16 13 -16 22 0 8 1 13 3
11 1 -2 9 -12 16 -22z m-134 -13 c9 -14 14 -28 12 -31 -7 -6 -47 34 -47 47 0
18 17 10 35 -16z m-60 -10 c18 -28 14 -44 -8 -26 -8 7 -16 9 -19 6 -3 -2 -5 7
-5 21 0 32 10 32 32 -1z m-55 -14 c17 -24 18 -30 6 -30 -14 0 -46 36 -46 52 0
17 20 6 40 -22z m435 2 c-3 -3 -11 0 -18 7 -9 10 -8 11 6 5 10 -3 15 -9 12
-12z m215 1 c51 -34 131 -107 141 -127 8 -16 5 -14 -13 6 -12 14 -56 51 -97
82 -40 31 -69 56 -64 56 5 0 20 -8 33 -17z m-706 -18 c9 -13 16 -27 16 -30 0
-12 -40 16 -50 35 -16 30 14 26 34 -5z m633 19 c-3 -3 -12 -4 -19 -1 -8 3 -5
6 6 6 11 1 17 -2 13 -5z m-692 -30 c9 -14 14 -28 12 -31 -7 -6 -47 34 -47 47
0 18 17 10 35 -16z m-57 -14 c13 -16 18 -30 13 -30 -12 0 -51 40 -51 52 0 17
17 7 38 -22z m-50 -39 c-14 -5 -49 40 -41 53 4 5 17 -4 30 -20 14 -18 18 -30
11 -33z m-48 -14 c0 -13 -37 11 -44 29 -13 34 -5 38 19 9 13 -16 24 -34 25
-38z m583 -24 l4 -72 -53 -12 c-30 -7 -56 -10 -58 -8 -2 2 -6 27 -10 54 -6 51
6 39 18 -17 4 -15 12 -26 19 -23 6 2 24 6 40 9 27 6 27 8 28 84 1 91 6 85 12
-15z m287 72 c11 -13 10 -14 -4 -9 -9 3 -16 10 -16 15 0 13 6 11 20 -6z m-520
-5 c-8 -5 -19 -10 -25 -10 -5 0 -3 5 5 10 8 5 20 10 25 10 6 0 3 -5 -5 -10z
m-426 -22 c9 -12 13 -24 11 -27 -6 -5 -45 29 -45 41 0 15 19 8 34 -14z m-59
-14 c9 -14 14 -28 12 -31 -7 -6 -47 34 -47 47 0 18 17 10 35 -16z m370 6 c3
-5 -3 -10 -15 -10 -12 0 -18 5 -15 10 3 6 10 10 15 10 5 0 12 -4 15 -10z m554
-24 c-3 -3 -11 5 -18 17 -13 21 -12 21 5 5 10 -10 16 -20 13 -22z m188 -7 c-6
-10 -15 -19 -19 -19 -13 0 -9 12 10 26 10 8 12 13 5 14 -7 0 -13 5 -13 11 0 8
4 8 15 -1 11 -9 12 -16 2 -31z m-1239 -6 c6 -18 8 -33 4 -33 -10 0 -31 57 -24
64 7 7 7 7 20 -31z m72 17 c7 -13 7 -20 1 -20 -6 0 -15 9 -21 20 -7 13 -7 20
-1 20 6 0 15 -9 21 -20z m1020 -95 c14 -15 35 -31 48 -36 13 -5 20 -13 17 -19
-4 -6 1 -7 11 -3 12 4 15 3 10 -5 -4 -7 -2 -10 6 -7 18 7 143 -109 134 -124
-4 -6 -2 -10 5 -9 6 2 13 -2 16 -9 3 -7 -3 -9 -17 -6 -11 3 -19 12 -18 21 2 9
-4 17 -12 17 -8 1 -14 6 -12 13 1 7 -2 12 -8 12 -5 0 -10 -6 -11 -12 0 -10 -2
-10 -6 0 -2 6 -9 12 -15 12 -6 0 -7 -7 -4 -16 5 -14 4 -15 -9 -4 -17 14 -21
35 -5 25 6 -3 10 -1 10 4 0 6 -9 16 -20 23 -11 7 -20 17 -20 22 0 4 8 2 18 -5
15 -13 16 -12 4 3 -8 9 -20 14 -28 11 -17 -6 -56 25 -48 38 3 5 -4 9 -15 9
-11 0 -25 9 -31 20 -6 11 -24 27 -40 35 -42 22 -51 18 -12 -5 18 -11 30 -24
27 -29 -3 -5 3 -12 12 -16 10 -3 36 -22 58 -42 22 -20 31 -33 20 -28 -11 4
-25 8 -32 8 -6 0 -9 7 -5 16 3 9 2 13 -2 9 -5 -4 -19 4 -33 18 -13 13 -32 24
-41 24 -12 0 -14 3 -4 8 8 6 0 15 -26 30 -22 12 -41 19 -44 17 -3 -3 -11 1
-17 9 -10 11 -10 19 -1 33 9 15 10 14 4 -7 -4 -18 -3 -22 5 -15 6 6 12 23 13
37 l2 26 46 -38 c25 -21 56 -50 70 -65z m-1172 75 c-7 -11 -15 -15 -17 -9 -2
6 3 15 10 20 20 12 21 11 7 -11z m46 5 c3 -8 1 -15 -4 -15 -6 0 -10 7 -10 15
0 8 2 15 4 15 2 0 6 -7 10 -15z m1317 -2 c13 -16 12 -17 -3 -4 -17 13 -22 21
-14 21 2 0 10 -8 17 -17z m-1587 -15 c1 -7 4 -17 7 -23 15 -27 18 -46 6 -38
-27 16 -33 28 -29 55 4 29 12 32 16 6z m1577 -5 c13 -16 12 -17 -3 -4 -17 13
-22 21 -14 21 2 0 10 -8 17 -17z m89 -38 c14 -19 14 -19 -2 -6 -10 7 -18 18
-18 24 0 6 1 8 3 6 1 -2 9 -13 17 -24z m-405 -26 l20 -22 -22 12 c-13 6 -23 9
-23 5 0 -3 -7 -1 -15 6 -8 7 -15 9 -15 5 0 -5 -2 -6 -5 -3 -3 3 -3 12 1 21 7
20 28 11 59 -24z m-1335 20 c0 -5 -4 -8 -9 -4 -5 3 -12 1 -16 -5 -3 -5 2 -10
12 -10 15 0 24 -17 42 -76 22 -75 23 -105 2 -65 -6 11 -21 26 -32 32 -13 7
-19 7 -15 1 3 -6 2 -13 -4 -17 -5 -3 -10 -1 -10 4 0 6 -7 11 -15 11 -8 0 -19
16 -24 38 -14 47 -14 75 -1 67 6 -3 10 -14 10 -23 0 -29 15 -43 36 -35 21 9
31 51 11 50 -50 -1 -61 11 -24 29 30 15 37 16 37 3z m170 -20 c0 -4 -9 -6 -20
-4 -15 3 -24 -3 -29 -18 -11 -29 -4 -35 13 -11 14 19 15 19 35 -2 11 -12 17
-25 14 -28 -4 -3 -1 -6 6 -6 7 0 11 -6 8 -14 -3 -7 -1 -18 4 -23 20 -20 -1
-41 -39 -39 -29 1 -36 5 -34 19 2 9 -2 17 -8 17 -5 0 -10 -4 -10 -10 0 -5 -11
1 -25 14 -30 28 -32 46 -4 46 11 0 17 4 14 10 -3 5 6 25 22 44 20 26 30 32 40
24 7 -6 13 -14 13 -19z m1455 11 c10 -11 16 -20 13 -20 -3 0 -13 9 -23 20 -10
11 -16 20 -13 20 3 0 13 -9 23 -20z m40 9 c11 -16 1 -19 -13 -3 -7 8 -8 14 -3
14 5 0 13 -5 16 -11z m-1869 -14 c-20 -15 -36 -19 -36 -10 0 5 38 23 50 24 3
0 -4 -6 -14 -14z m62 -31 c-4 -3 -12 5 -18 18 -12 22 -12 22 6 6 10 -10 15
-20 12 -24z m1435 10 c97 -51 163 -92 199 -127 48 -44 88 -108 83 -132 -2 -11
-4 -23 -4 -27 -1 -5 -9 -8 -18 -8 -16 1 -16 2 -3 13 21 17 23 42 5 57 -10 9
-15 9 -15 1 0 -6 -5 -11 -11 -11 -8 0 -8 4 0 14 9 11 2 21 -31 51 -24 20 -53
45 -64 56 -25 22 -42 26 -25 5 9 -11 5 -13 -24 -10 -30 2 -34 0 -24 -12 7 -8
7 -14 1 -14 -5 0 -15 7 -22 15 -9 11 -9 15 -1 15 7 0 10 4 6 10 -3 5 -12 7
-20 4 -8 -3 -29 8 -47 26 -18 18 -27 29 -20 26 6 -4 12 -2 12 3 0 6 7 11 15
11 8 0 15 4 15 10 0 6 -10 5 -25 -2 -19 -8 -28 -8 -40 2 -12 10 -15 10 -15 -1
0 -9 -3 -10 -8 -3 -4 6 -14 14 -22 18 -10 4 -8 5 5 3 11 -2 26 2 33 10 17 17
27 17 65 -3z m475 -9 c-3 -3 -9 2 -12 12 -6 14 -5 15 5 6 7 -7 10 -15 7 -18z
m-693 -5 c3 -5 -1 -10 -9 -10 -9 0 -16 5 -16 10 0 6 4 10 9 10 6 0 13 -4 16
-10z m-75 -10 c0 -5 -6 -11 -12 -11 -78 -7 -154 -20 -403 -70 -82 -17 -172
-37 -199 -45 -58 -16 -63 -17 -50 -5 13 13 159 47 409 96 242 48 255 50 255
35z m160 -10 c0 -11 -2 -20 -3 -20 -2 0 -12 9 -22 20 -18 19 -17 20 3 20 15 0
22 -6 22 -20z m-43 -17 c10 -21 10 -28 0 -35 -17 -11 -47 -10 -47 2 0 6 6 10
14 10 8 0 12 9 11 25 -4 33 7 32 22 -2z m-54 10 c-7 -2 -19 -2 -25 0 -7 3 -2
5 12 5 14 0 19 -2 13 -5z m189 -49 c21 -13 38 -29 38 -35 0 -8 -4 -8 -12 -2
-71 53 -98 76 -98 85 0 5 7 2 17 -7 9 -9 33 -28 55 -41z m516 21 c-3 -3 -9 2
-12 12 -6 14 -5 15 5 6 7 -7 10 -15 7 -18z m-838 5 c-10 -6 -11 -10 -2 -10 6
0 11 -3 11 -7 -3 -21 3 -24 18 -12 10 8 14 9 10 2 -4 -7 0 -16 10 -22 14 -8
15 -11 3 -11 -11 0 -8 -6 9 -20 13 -11 19 -20 13 -20 -15 0 -59 39 -44 40 7 0
10 5 6 11 -5 8 -10 7 -16 -4 -12 -23 44 -123 63 -112 4 3 13 -5 19 -17 11 -22
10 -22 -4 -4 -24 30 -19 9 6 -24 26 -35 43 -40 28 -7 -9 19 -9 20 2 4 7 -10
21 -28 31 -39 9 -12 17 -26 16 -32 0 -6 -3 -6 -6 2 -2 6 -9 12 -14 12 -6 0 -7
-5 -3 -11 4 -8 0 -8 -15 0 -27 15 -27 8 2 -23 13 -14 28 -22 32 -18 5 4 5 2 2
-5 -10 -16 97 -108 163 -141 48 -23 104 -34 183 -33 10 0 15 -5 11 -11 -13
-21 -124 0 -201 38 -141 70 -242 189 -326 383 -37 85 -39 101 -9 101 15 0 15
-2 2 -10z m130 -50 c21 0 43 -23 32 -35 -4 -5 0 -6 9 -2 15 5 89 -36 89 -49 0
-3 -5 -2 -12 2 -8 5 -9 2 -5 -9 7 -19 -8 -23 -19 -6 -3 6 -2 14 4 18 7 4 3 12
-10 20 -18 11 -20 11 -15 -3 5 -13 3 -15 -11 -6 -38 22 -54 39 -46 51 5 9 2
10 -10 6 -11 -5 -26 4 -46 26 -16 17 -29 37 -30 42 0 6 12 -5 26 -22 14 -18
34 -33 44 -33z m139 7 c6 -8 7 -17 3 -22 -4 -4 4 -4 16 0 18 5 29 1 43 -14 15
-16 16 -21 5 -21 -7 0 -16 7 -20 15 -3 8 -12 12 -20 9 -21 -8 -80 27 -63 38
17 11 23 10 36 -5z m-1189 -7 c0 -5 -2 -10 -4 -10 -3 0 -8 5 -11 10 -3 6 -1
10 4 10 6 0 11 -4 11 -10z m1176 -48 c-4 -3 -14 2 -24 12 -16 18 -16 18 6 6
13 -6 21 -14 18 -18z m714 13 c13 -16 10 -17 -49 -18 -29 -1 -40 19 -14 26 34
9 51 7 63 -8z m-420 -37 c0 -12 -14 -10 -28 4 -19 19 -14 29 8 16 11 -7 20
-16 20 -20z m186 -6 c-9 -9 -37 8 -31 18 5 8 11 7 21 -1 8 -6 12 -14 10 -17z
m-631 8 c3 -6 -1 -7 -9 -4 -18 7 -21 14 -7 14 6 0 13 -4 16 -10z m285 -11 c0
-6 -4 -7 -10 -4 -5 3 -10 11 -10 16 0 6 5 7 10 4 6 -3 10 -11 10 -16z m196
-16 c-10 -11 -19 -7 -22 10 -2 15 0 16 12 6 8 -6 12 -14 10 -16z m-152 2 c10
-8 23 -12 28 -9 14 9 38 -16 31 -32 -3 -8 -9 -14 -15 -14 -13 0 -78 51 -78 61
0 13 12 11 34 -6z m110 -10 c4 -13 2 -14 -14 -5 -23 13 -26 20 -6 20 8 0 16
-7 20 -15z m322 -42 c-2 -2 -13 -6 -25 -8 -14 -3 -19 0 -15 7 5 8 1 9 -12 5
-17 -7 -18 -6 -2 6 16 13 16 15 0 32 -9 10 0 5 20 -11 20 -15 36 -30 34 -31z
m-91 27 c10 -11 14 -20 8 -20 -5 0 -18 9 -28 20 -10 11 -14 20 -8 20 5 0 18
-9 28 -20z m-70 -40 c3 -5 1 -10 -4 -10 -6 0 -11 5 -11 10 0 6 2 10 4 10 3 0
8 -4 11 -10z m-165 -20 c0 -5 -2 -10 -4 -10 -3 0 -8 5 -11 10 -3 6 -1 10 4 10
6 0 11 -4 11 -10z m-266 -39 c-3 -3 -15 6 -27 18 l-22 24 27 -19 c14 -10 24
-21 22 -23z m-69 19 c3 -5 2 -10 -4 -10 -5 0 -13 5 -16 10 -3 6 -2 10 4 10 5
0 13 -4 16 -10z m420 -28 c-3 -3 -11 0 -18 7 -9 10 -8 11 6 5 10 -3 15 -9 12
-12z m-290 -29 c3 -9 -4 -8 -20 3 -14 9 -25 20 -25 25 0 12 38 -12 45 -28z
m460 19 c-3 -3 -11 0 -18 7 -9 10 -8 11 6 5 10 -3 15 -9 12 -12z m-78 -14 c-3
-8 -6 -5 -6 6 -1 11 2 17 5 13 3 -3 4 -12 1 -19z m37 -20 c5 -10 7 -10 12 0 7
14 24 16 24 3 0 -13 -27 -21 -45 -15 -8 4 -15 10 -15 15 0 13 17 11 24 -3z
m-179 -48 c3 -5 2 -10 -4 -10 -5 0 -13 5 -16 10 -3 6 -2 10 4 10 5 0 13 -4 16
-10z m-264 -17 c13 -16 12 -17 -3 -4 -10 7 -18 15 -18 17 0 8 8 3 21 -13z
m233 6 c14 -7 27 -18 30 -26 5 -12 -25 4 -63 34 -9 7 10 2 33 -8z m-20 -85 c7
-19 2 -18 -19 6 -16 17 -16 20 -3 15 9 -4 19 -13 22 -21z m-149 6 c3 -6 -1 -7
-9 -4 -18 7 -21 14 -7 14 6 0 13 -4 16 -10z m268 -6 c-5 -13 -1 -15 18 -10 21
6 22 5 6 -4 -14 -9 -22 -9 -33 1 -12 10 -12 14 -2 20 18 12 18 11 11 -7z m-63
-34 c13 -8 13 -10 -2 -10 -9 0 -20 5 -23 10 -8 13 5 13 25 0z"/>
<path d="M4377 5996 c-11 -8 -14 -17 -8 -20 5 -4 15 3 21 14 13 23 11 24 -13
6z"/>
<path d="M1510 5580 c0 -5 5 -10 11 -10 5 0 7 5 4 10 -3 6 -8 10 -11 10 -2 0
-4 -4 -4 -10z"/>
<path d="M1223 5144 c-3 -10 0 -20 9 -25 9 -5 21 -22 28 -39 10 -24 15 -28 26
-19 22 18 16 44 -16 72 -35 32 -39 32 -47 11z"/>
<path d="M4171 5596 c-9 -10 -9 -16 -1 -21 16 -10 31 7 21 23 -6 10 -10 10
-20 -2z"/>
<path d="M990 4799 c0 -5 5 -7 10 -4 6 3 10 8 10 11 0 2 -4 4 -10 4 -5 0 -10
-5 -10 -11z"/>
<path d="M1876 3771 c10 -10 23 -16 27 -14 5 3 0 11 -10 19 -27 20 -39 17 -17
-5z"/>
<path d="M400 3810 c0 -5 5 -10 10 -10 6 0 10 5 10 10 0 6 -4 10 -10 10 -5 0
-10 -4 -10 -10z"/>
<path d="M436 3775 c4 -8 10 -12 15 -9 14 8 10 24 -6 24 -9 0 -12 -6 -9 -15z"/>
<path d="M1570 3842 c0 -5 7 -12 15 -16 8 -3 15 -12 15 -20 0 -9 10 -20 21
-27 15 -8 19 -8 15 0 -4 6 -2 11 4 11 6 0 8 5 5 11 -4 6 -13 8 -21 5 -8 -3
-13 -1 -11 5 1 6 -8 18 -20 26 -13 9 -23 11 -23 5z"/>
<path d="M1540 3820 c0 -5 5 -10 10 -10 6 0 10 5 10 10 0 6 -4 10 -10 10 -5 0
-10 -4 -10 -10z"/>
<path d="M1656 3638 c3 -5 10 -6 15 -3 13 9 11 12 -6 12 -8 0 -12 -4 -9 -9z"/>
<path d="M1470 6469 c0 -5 5 -7 10 -4 6 3 10 8 10 11 0 2 -4 4 -10 4 -5 0 -10
-5 -10 -11z"/>
<path d="M460 6359 c0 -5 5 -7 10 -4 6 3 10 8 10 11 0 2 -4 4 -10 4 -5 0 -10
-5 -10 -11z"/>
<path d="M464 6315 c4 -12 2 -16 -7 -12 -10 4 -13 -2 -9 -19 3 -17 -2 -30 -14
-39 -18 -13 -18 -14 4 -12 12 1 22 7 22 13 0 7 9 16 20 19 26 8 25 26 -2 49
-19 17 -20 17 -14 1z"/>
<path d="M104 5082 c3 -6 39 -34 79 -62 39 -28 56 -37 37 -20 -44 39 -125 97
-116 82z"/>
<path d="M260 4966 c0 -2 8 -10 18 -17 15 -13 16 -12 3 4 -13 16 -21 21 -21
13z"/>
<path d="M528 4818 c17 -13 34 -31 38 -40 3 -10 10 -18 15 -18 16 0 -9 37 -40
59 -16 12 -33 21 -37 21 -5 0 6 -10 24 -22z"/>
<path d="M450 4816 c0 -2 14 -14 30 -26 17 -12 30 -19 30 -16 0 2 -13 14 -30
26 -16 12 -30 19 -30 16z"/>
<path d="M375 4540 c3 -5 8 -10 11 -10 2 0 4 5 4 10 0 6 -5 10 -11 10 -5 0 -7
-4 -4 -10z"/>
<path d="M525 4538 c17 -6 36 -15 43 -21 8 -6 12 -6 12 1 0 16 -23 28 -55 29
l-30 2 30 -11z"/>
<path d="M16 4221 c-12 -5 -15 -10 -9 -14 6 -4 16 0 23 8 14 17 13 17 -14 6z"/>
</g>
</svg>
