<?xml version="1.0" encoding="utf-8"?>
<!-- Generator: Adobe Illustrator 22.0.0, SVG Export Plug-In . SVG Version: 6.00 Build 0)  -->
<svg version="1.1" id="Слой_1" xmlns="http://www.w3.org/2000/svg" xmlns:xlink="http://www.w3.org/1999/xlink" x="0px" y="0px"
	 viewBox="0 0 100 100" style="enable-background:new 0 0 100 100;" xml:space="preserve">
<style type="text/css">
	.st0{fill:url(#SVGID_1_);}
	.st1{fill:url(#SVGID_2_);}
	.st2{fill:url(#SVGID_3_);}
	.st3{fill:url(#SVGID_4_);}
	.st4{fill:url(#SVGID_5_);}
	.st5{fill:url(#SVGID_6_);}
	.st6{fill:url(#SVGID_7_);}
	.st7{fill:url(#SVGID_8_);}
	.st8{fill:url(#SVGID_9_);}
	.st9{fill:url(#SVGID_10_);}
	.st10{fill:url(#SVGID_11_);}
	.st11{opacity:0.36;}
	.st12{fill:url(#SVGID_12_);}
	.st13{fill:url(#SVGID_13_);}
	.st14{fill:url(#SVGID_14_);}
	.st15{fill:url(#SVGID_15_);}
	.st16{fill:url(#SVGID_16_);}
	.st17{fill:url(#SVGID_17_);}
</style>
<g>
	<linearGradient id="SVGID_1_" gradientUnits="userSpaceOnUse" x1="61.0947" y1="92.266" x2="72.9073" y2="15.8533">
		<stop  offset="0" style="stop-color:#1570A3"/>
		<stop  offset="1" style="stop-color:#B9D7E4"/>
	</linearGradient>
	<path class="st0" d="M70,34.1V21.5h0.8v-5.6h-9.9v5.6h0.9V34c-3.1,1-5.4,4-5.4,7.5v41.3c0,1.2,0.9,2.1,2.1,2.1h14.6
		c1.2,0,2.1-0.9,2.1-2.1V41.5C75.2,38,73,35.2,70,34.1z"/>
	<linearGradient id="SVGID_2_" gradientUnits="userSpaceOnUse" x1="66.8541" y1="81.8996" x2="71.1608" y2="59.751">
		<stop  offset="0" style="stop-color:#1570A3"/>
		<stop  offset="1" style="stop-color:#B9D7E4"/>
	</linearGradient>
	<path class="st1" d="M73.7,80.7V42.3c0-3.2-1.9-5.9-4.5-6.9v47.2h2.7C72.9,82.7,73.7,81.8,73.7,80.7z"/>
	<linearGradient id="SVGID_3_" gradientUnits="userSpaceOnUse" x1="57.341" y1="71.7764" x2="62.8782" y2="54.0575">
		<stop  offset="0" style="stop-color:#1570A3"/>
		<stop  offset="1" style="stop-color:#B9D7E4"/>
	</linearGradient>
	<path class="st2" d="M58.5,80.7V42.3c0-3.2,1.7-5.9,4-6.9v47.2h-2.4C59.2,82.7,58.5,81.8,58.5,80.7z"/>
	<linearGradient id="SVGID_4_" gradientUnits="userSpaceOnUse" x1="43" y1="58.5911" x2="66.6252" y2="22.4151">
		<stop  offset="0" style="stop-color:#1570A3"/>
		<stop  offset="1" style="stop-color:#B9D7E4"/>
	</linearGradient>
	<rect x="62.7" y="21.3" class="st3" width="1.1" height="12.6"/>
	<linearGradient id="SVGID_5_" gradientUnits="userSpaceOnUse" x1="46.5259" y1="60.8937" x2="70.151" y2="24.7177">
		<stop  offset="0" style="stop-color:#1570A3"/>
		<stop  offset="1" style="stop-color:#B9D7E4"/>
	</linearGradient>
	<rect x="67.2" y="21.3" class="st4" width="2" height="12.6"/>
	<g>
		<linearGradient id="SVGID_6_" gradientUnits="userSpaceOnUse" x1="78.6759" y1="42.7195" x2="56.5521" y2="73.8939">
			<stop  offset="0" style="stop-color:#F28B6C"/>
			<stop  offset="1" style="stop-color:#C7586B"/>
		</linearGradient>
		<rect x="60.4" y="47.9" class="st5" width="13.3" height="22.4"/>
		<linearGradient id="SVGID_7_" gradientUnits="userSpaceOnUse" x1="86.8283" y1="37.2419" x2="68.9163" y2="62.4815">
			<stop  offset="0" style="stop-color:#F28B6C"/>
			<stop  offset="1" style="stop-color:#C7586B"/>
		</linearGradient>
		<rect x="69" y="47.9" class="st6" width="4.7" height="22.4"/>
		<linearGradient id="SVGID_8_" gradientUnits="userSpaceOnUse" x1="64.8552" y1="55.1277" x2="68.3101" y2="49.8374">
			<stop  offset="0" style="stop-color:#1570A3"/>
			<stop  offset="1" style="stop-color:#B9D7E4"/>
		</linearGradient>
		<rect x="61.8" y="51.8" class="st7" width="9.5" height="1.4"/>
		<linearGradient id="SVGID_9_" gradientUnits="userSpaceOnUse" x1="65.2253" y1="57.8017" x2="67.7329" y2="53.9618">
			<stop  offset="0" style="stop-color:#1570A3"/>
			<stop  offset="1" style="stop-color:#B9D7E4"/>
		</linearGradient>
		<rect x="63.2" y="55.3" class="st8" width="6.6" height="1.2"/>
	</g>
	<g>
		
			<linearGradient id="SVGID_10_" gradientUnits="userSpaceOnUse" x1="463.0788" y1="89.7762" x2="473.2311" y2="60.2749" gradientTransform="matrix(-1 0 0 1 507.0695 0)">
			<stop  offset="0" style="stop-color:#1570A3"/>
			<stop  offset="1" style="stop-color:#B9D7E4"/>
		</linearGradient>
		<path class="st9" d="M32.1,57.3c-4.7-0.6-8.3-4.6-8.3-9.5l2.1-17.9h14.9L43,47.8c0,4.9-3.6,8.9-8.3,9.5V81c0,1.3,1,2.3,2.3,2.3h5
			v1.6h-7.3h-2.5h-7.3v-1.6H30c1.2,0,2.1-0.9,2.1-2.1V57.3z"/>
		
			<linearGradient id="SVGID_11_" gradientUnits="userSpaceOnUse" x1="470.0511" y1="58.1915" x2="472.7488" y2="50.3524" gradientTransform="matrix(-1 0 0 1 507.0695 0)">
			<stop  offset="0" style="stop-color:#F28B6C"/>
			<stop  offset="1" style="stop-color:#C7586B"/>
		</linearGradient>
		<path class="st10" d="M34.7,57.3h-2.6c-4.7-0.6-8.3-4.6-8.3-9.5l0.3-2.7h18.6l0.3,2.7C43,52.7,39.4,56.7,34.7,57.3z"/>
		<g class="st11">
			
				<linearGradient id="SVGID_12_" gradientUnits="userSpaceOnUse" x1="480.1135" y1="37.6122" x2="477.4858" y2="58.2751" gradientTransform="matrix(-1 0 0 1 507.0695 0)">
				<stop  offset="0" style="stop-color:#DFF5FB"/>
				<stop  offset="0.2502" style="stop-color:#D3EEF6"/>
				<stop  offset="1" style="stop-color:#AED8E6"/>
			</linearGradient>
			<path class="st12" d="M25.9,29.9h4.6l-2.1,17.6c0,4.7,3.7,9.8,3.7,9.8c-4.7-0.6-8.3-4.6-8.3-9.5L25.9,29.9z"/>
		</g>
		
			<linearGradient id="SVGID_13_" gradientUnits="userSpaceOnUse" x1="480.778" y1="34.8217" x2="479.7095" y2="43.224" gradientTransform="matrix(-1 0 0 1 507.0695 0)">
			<stop  offset="0" style="stop-color:#DFF5FB"/>
			<stop  offset="0.2502" style="stop-color:#D3EEF6"/>
			<stop  offset="1" style="stop-color:#AED8E6"/>
		</linearGradient>
		<polygon class="st13" points="28,31.5 27.2,31.5 25.3,43.1 26.3,43.1 		"/>
	</g>
	<g>
		
			<linearGradient id="SVGID_14_" gradientUnits="userSpaceOnUse" x1="488.8097" y1="89.9244" x2="499.2687" y2="59.5316" gradientTransform="matrix(-1 0 0 1 547.9028 0)">
			<stop  offset="0" style="stop-color:#1570A3"/>
			<stop  offset="1" style="stop-color:#B9D7E4"/>
		</linearGradient>
		<path class="st14" d="M46.9,56.5c-4.9-0.6-8.6-4.8-8.6-9.8l2.2-18.4h15.4l2.2,18.4c0,5-3.7,9.2-8.6,9.8v24.4
			c0,1.3,1.1,2.4,2.4,2.4h5.2v1.6h-7.6h-2.6h-7.6v-1.6h5.4c1.2,0,2.2-1,2.2-2.2V56.5z"/>
		
			<linearGradient id="SVGID_15_" gradientUnits="userSpaceOnUse" x1="495.9927" y1="57.3853" x2="498.7718" y2="49.3093" gradientTransform="matrix(-1 0 0 1 547.9028 0)">
			<stop  offset="0" style="stop-color:#F28B6C"/>
			<stop  offset="1" style="stop-color:#C7586B"/>
		</linearGradient>
		<path class="st15" d="M49.5,56.5h-2.7c-4.8-0.7-8.6-4.8-8.6-9.8l0.3-2.8h19.1l0.3,2.8C58.1,51.7,54.4,55.8,49.5,56.5z"/>
		<g class="st11">
			
				<linearGradient id="SVGID_16_" gradientUnits="userSpaceOnUse" x1="506.3591" y1="36.1841" x2="503.652" y2="57.4714" gradientTransform="matrix(-1 0 0 1 547.9028 0)">
				<stop  offset="0" style="stop-color:#DFF5FB"/>
				<stop  offset="0.2502" style="stop-color:#D3EEF6"/>
				<stop  offset="1" style="stop-color:#AED8E6"/>
			</linearGradient>
			<path class="st16" d="M40.5,28.2h4.7L43,46.3c0,4.9,3.8,10.1,3.8,10.1c-4.8-0.7-8.6-4.8-8.6-9.8L40.5,28.2z"/>
		</g>
		
			<linearGradient id="SVGID_17_" gradientUnits="userSpaceOnUse" x1="507.0437" y1="33.3093" x2="505.9429" y2="41.9655" gradientTransform="matrix(-1 0 0 1 547.9028 0)">
			<stop  offset="0" style="stop-color:#DFF5FB"/>
			<stop  offset="0.2502" style="stop-color:#D3EEF6"/>
			<stop  offset="1" style="stop-color:#AED8E6"/>
		</linearGradient>
		<polygon class="st17" points="42.6,29.9 41.8,29.9 39.8,41.8 40.9,41.8 		"/>
	</g>
</g>
</svg>
